<?xml version="1.0" encoding="utf-8"?>
<!-- Generator: Adobe Illustrator 22.1.0, SVG Export Plug-In . SVG Version: 6.00 Build 0)  -->
<svg version="1.1" id="圖層_1" xmlns="http://www.w3.org/2000/svg" xmlns:xlink="http://www.w3.org/1999/xlink" x="0px" y="0px"
	 viewBox="0 0 471 310" style="enable-background:new 0 0 471 310;" xml:space="preserve">
<style type="text/css">
	.st0{opacity:0.65;fill:#0D9890;enable-background:new    ;}
	.st1{fill:#0D9890;}
	.st2{fill:#12928A;}
	.st3{enable-background:new    ;}
	.st4{fill:#FFFFFF;}
</style>
<g>
	<g class="st3">
		<path class="st1" d="M42.5,120.9h-6.5c0,0.7-0.1,1.3-0.1,1.8h5.4c-0.1,1.5-0.2,2.7-0.3,3.7c-0.1,1-0.2,1.6-0.4,1.8
			c-0.1,0.2-0.3,0.4-0.6,0.5c-0.3,0.1-0.7,0.2-1.4,0.2c-0.4,0-0.9,0-1.4-0.1l-0.3-1.1c0.6,0,1.2,0.1,1.7,0.1c0.5,0,0.8-0.1,0.9-0.2
			c0.1-0.1,0.2-0.4,0.3-1c0.1-0.6,0.2-1.6,0.2-2.9h-4.3c-0.3,2.1-1.5,3.8-3.6,5.2l-0.7-1c0.7-0.4,1.3-0.9,1.9-1.6s0.9-1.4,1.1-2.2
			c0.2-0.8,0.3-1.9,0.3-3.4h-3.1v-1.1h4.9c-0.3-0.5-0.6-1-0.9-1.5l1.2-0.4c0.4,0.7,0.8,1.4,1,1.9h4.6V120.9z"/>
		<path class="st1" d="M55,125.9h-4.9v3H49v-3h-4.9v-1H49v-0.8h1.1v0.8H55V125.9z M48.3,126.9c-1,0.8-2.2,1.4-3.6,1.9l-0.6-0.9
			c1.2-0.4,2.3-0.9,3.3-1.6L48.3,126.9z M54.8,121.6h-3c-0.3,0.5-0.7,0.9-1,1.1c1.3,0.3,2.5,0.7,3.6,1.1l-0.5,0.8
			c-1.1-0.5-2.4-0.9-4-1.3c-1.3,0.7-3.1,1.1-5.3,1.2l-0.3-1c1.6,0,3-0.2,4.2-0.6c-0.8-0.2-1.7-0.3-2.7-0.5c0.3-0.3,0.6-0.6,1-1h-2.5
			v-0.9h3.3c0.2-0.3,0.4-0.5,0.6-0.8l1,0.3c-0.1,0.1-0.2,0.3-0.4,0.5h2.3l0.3-0.5l1.1,0.2c0,0.1-0.1,0.2-0.2,0.3h2.4V121.6z
			 M54.5,120.3h-1.1v-0.7h-7.9v0.7h-1.1v-1.6H49c-0.1-0.2-0.2-0.4-0.3-0.5l1-0.3l0.5,0.8h4.3V120.3z M50.5,121.6h-2.4
			c-0.2,0.2-0.3,0.3-0.4,0.5c0.8,0.2,1.5,0.3,1.9,0.4C50.1,122.1,50.4,121.8,50.5,121.6z M55,127.9l-0.6,0.9
			c-1.2-0.7-2.4-1.2-3.7-1.6l0.6-0.9C52.8,126.7,54,127.3,55,127.9z"/>
		<path class="st1" d="M67.5,119.4h-4.3c-0.1,0.3-0.2,0.6-0.4,1h3.8v4.7h-3v2.8c0,0.2-0.1,0.4-0.2,0.6c-0.1,0.2-0.3,0.3-0.5,0.3
			c-0.2,0.1-0.5,0.1-1,0.1c-0.2,0-0.4,0-0.7,0l-0.3-1c0.8,0,1.3,0,1.4-0.1c0.1,0,0.2-0.2,0.2-0.3v-2.4h-3v-4.7h2.1
			c0.1-0.3,0.3-0.6,0.4-1h-3.4v4c0,2.4-0.4,4.2-1.2,5.6l-1-0.7c0.7-1.3,1.1-3,1.1-5.2v-4.8h10L67.5,119.4z M61.6,125.9
			c-0.6,0.9-1.3,1.8-2.4,2.6l-0.9-0.7c1.1-0.9,1.9-1.7,2.3-2.4L61.6,125.9z M65.5,122.2v-0.9h-4.8v0.9H65.5z M65.5,124.1v-0.9h-4.8
			v0.9H65.5z M67.6,127.8l-0.9,0.7c-0.6-0.9-1.3-1.7-2.2-2.5l0.9-0.6C66.3,126.1,67,126.9,67.6,127.8z"/>
		<path class="st1" d="M72,118.1c-0.1,0.4-0.2,1-0.5,1.6l-0.3,0.9v8.3h-1.1V123c-0.2,0.3-0.4,0.7-0.6,1l-0.6-1.2
			c0.9-1.4,1.6-3.1,2-5L72,118.1z M79.2,127.2h-4.5l0.5,0.6c-0.6,0.4-1.6,0.8-2.9,1.2l-0.5-0.9c1.1-0.3,2-0.6,2.6-0.9h-1.7v-4.8h6.6
			V127.2z M79.9,119.1h-2.4v0.5h2.1v2.3h-7.4v-2.3h2.2v-0.5h-2.3v-0.9h7.8V119.1z M74.4,121.1v-0.6h-1.1v0.6H74.4z M78.1,123.8v-0.5
			h-4.4v0.5H78.1z M78.1,125.1v-0.6h-4.4v0.6H78.1z M78.1,126.4v-0.6h-4.4v0.6H78.1z M76.5,119.6v-0.5h-1v0.5H76.5z M76.5,121.1
			v-0.6h-1v0.6H76.5z M80,128.2l-0.5,0.8c-0.8-0.4-1.8-0.7-2.9-0.9l0.6-0.8C78.2,127.5,79.2,127.8,80,128.2z M78.6,121.1v-0.6h-1.1
			v0.6H78.6z"/>
	</g>
	<path class="st0" d="M90.5,192.9H28c-2.3,0-4.2-1.9-4.2-4.2v-52.1c0-2.3,1.9-4.2,4.2-4.2h62.5c2.3,0,4.2,1.9,4.2,4.2v52.1
		C94.6,191.1,92.8,192.9,90.5,192.9z"/>
	<g class="st3">
		<path class="st4" d="M41.3,169.2h-7.4v-1.6h2.8v-9.1l-2.8,0.8v-1.7l4.7-1.2v11.3h2.7V169.2z"/>
		<path class="st4" d="M50.9,169.2h-7.8v-1.6l3.7-3.6c0.8-0.8,1.4-1.5,1.8-2.1c0.4-0.6,0.6-1.2,0.6-1.9c0-1.4-0.7-2.1-2.2-2.1
			c-1.1,0-2.2,0.5-3.2,1.4v-1.8c1-0.7,2.2-1.1,3.5-1.1c1.2,0,2.1,0.3,2.8,0.9c0.7,0.6,1,1.5,1,2.5c0,0.8-0.2,1.5-0.7,2.3
			c-0.4,0.8-1.2,1.7-2.3,2.7l-2.8,2.7v0h5.6V169.2z"/>
		<path class="st4" d="M55.3,167.2l-1.4,4.4h-1.4l1-4.4H55.3z"/>
		<path class="st4" d="M57.1,163.2c0-2.2,0.4-3.9,1.1-5c0.8-1.1,1.9-1.7,3.3-1.7c2.7,0,4.1,2.2,4.1,6.5c0,2.1-0.4,3.7-1.1,4.9
			c-0.7,1.1-1.8,1.7-3.3,1.7c-1.4,0-2.4-0.5-3.1-1.6C57.4,166.8,57.1,165.2,57.1,163.2z M59,163.1c0,3.2,0.8,4.8,2.3,4.8
			c1.5,0,2.3-1.6,2.3-4.9c0-3.4-0.8-5-2.3-5C59.8,158,59,159.7,59,163.1z"/>
		<path class="st4" d="M67,163.2c0-2.2,0.4-3.9,1.1-5c0.8-1.1,1.9-1.7,3.3-1.7c2.7,0,4.1,2.2,4.1,6.5c0,2.1-0.4,3.7-1.1,4.9
			c-0.7,1.1-1.8,1.7-3.3,1.7c-1.4,0-2.4-0.5-3.1-1.6C67.4,166.8,67,165.2,67,163.2z M69,163.1c0,3.2,0.8,4.8,2.3,4.8
			c1.5,0,2.3-1.6,2.3-4.9c0-3.4-0.8-5-2.3-5C69.8,158,69,159.7,69,163.1z"/>
		<path class="st4" d="M76.9,163.2c0-2.2,0.4-3.9,1.1-5c0.8-1.1,1.9-1.7,3.3-1.7c2.7,0,4.1,2.2,4.1,6.5c0,2.1-0.4,3.7-1.1,4.9
			c-0.7,1.1-1.8,1.7-3.3,1.7c-1.4,0-2.4-0.5-3.1-1.6C77.3,166.8,76.9,165.2,76.9,163.2z M78.9,163.1c0,3.2,0.8,4.8,2.3,4.8
			c1.5,0,2.3-1.6,2.3-4.9c0-3.4-0.8-5-2.3-5C79.7,158,78.9,159.7,78.9,163.1z"/>
	</g>
</g>
<g class="st3">
	<path class="st1" d="M188.5,101.9c-0.3,1.1-0.7,2.2-1.2,3.3v12.9h-2V109c-0.4,0.6-0.8,1.1-1.1,1.5c-0.2-0.5-0.7-1.7-1-2.3
		c1.4-1.7,2.7-4.3,3.5-7L188.5,101.9z M200.1,111.2h-1.6c0.3,0.3,0.6,0.7,0.8,0.9l-1.2,0.7c-0.2-0.3-0.6-0.8-1-1.3
		c-0.2,0.8-0.6,1-1.6,1H194c-0.2,0.2-0.3,0.4-0.5,0.5h3.7l0.4-0.1l1.3,0.7c-0.6,0.9-1.4,1.6-2.5,2.2c1.2,0.3,2.5,0.4,3.8,0.5
		c-0.4,0.4-0.8,1.1-1,1.6c-1.9-0.2-3.6-0.5-5.1-1.1c-1.5,0.5-3.3,0.9-5.2,1.2c-0.2-0.5-0.6-1.1-1-1.5c1.5-0.1,2.8-0.4,4-0.6
		c-0.4-0.2-0.7-0.4-1-0.7c-0.5,0.3-1,0.5-1.5,0.8c-0.2-0.4-0.8-1-1.2-1.2c0.5-0.2,1-0.4,1.5-0.7c-0.2-0.3-0.5-0.5-0.6-0.8l1.5-0.5
		c0.1,0.2,0.3,0.3,0.4,0.5c0.5-0.4,0.9-0.7,1.2-1.1c-0.3-0.2-0.5-0.5-0.5-1c-0.4,0.5-0.9,1.1-1.4,1.4l-1.2-0.9
		c0.3-0.2,0.6-0.4,0.8-0.7H188v-2.6h1.6v-4.5h3c0.1-0.2,0.1-0.4,0.1-0.6h-4.2V102h11.1v1.5H195l-0.3,0.6h3.9v4.5h1.5V111.2z
		 M197.4,110.1c0.3,0.3,0.6,0.5,0.8,0.8v-1.1h-3.5c0.4,0.3,0.8,0.6,1,0.9l-1.2,0.7c-0.3-0.4-0.9-0.9-1.4-1.3l0.5-0.3h-3.8v1.2
		c0.3-0.3,0.5-0.6,0.7-0.9l0.8,0.4v-0.4h1.7v0.8c0,0.4,0.1,0.4,0.6,0.4h1.6c0.4,0,0.5-0.1,0.5-0.6c0.2,0.1,0.5,0.2,0.8,0.3
		c-0.1-0.1-0.3-0.3-0.4-0.4L197.4,110.1z M191.6,105.2v0.5h5v-0.5H191.6z M196.6,106.6h-5v0.6h5V106.6z M191.6,108.6h5V108h-5V108.6
		z M193.9,115.3c0.7-0.3,1.3-0.6,1.8-0.9l-3.7,0C192.6,114.8,193.2,115.1,193.9,115.3z"/>
	<path class="st1" d="M201.4,116.5c0.7-0.8,1.3-2.1,1.7-3.2l1.9,0.8c-0.4,1.2-1,2.6-1.7,3.5L201.4,116.5z M208.4,103.8h-6.5v-1.7
		h6.5v-0.9h2.2v0.9h6.7v1.7h-6.7v0.8h5.5v5.3h-1.8c1.2,0.7,2.4,1.6,3.2,2.2l-1.5,1.2c-0.2-0.3-0.5-0.5-0.8-0.8
		c-1.7,0-3.5,0.1-5.2,0.1c0.8,0.5,1.7,1.2,2.2,1.7l-1.5,1.2c-0.5-0.6-1.7-1.6-2.7-2.2l0.9-0.7c-2.6,0-5,0.1-6.9,0.1l-0.1-1.8
		c1.7,0,4,0,6.5,0v-1H203v-5.3h5.5V103.8z M205,106.7h3.4v-0.8H205V106.7z M208.4,108.7v-0.8H205v0.8H208.4z M211.8,116.1
		c0.8,0,1-0.2,1-1.5c0.5,0.3,1.3,0.6,1.9,0.7c-0.3,2.1-0.8,2.6-2.7,2.6h-3.5c-2.5,0-3.2-0.5-3.2-2.3v-2.1h2.1v2
		c0,0.5,0.2,0.6,1.2,0.6H211.8z M210.7,105.8v0.8h3.4v-0.8H210.7z M210.7,108.7h3.4v-0.8h-3.4V108.7z M212.9,110.9
		c-0.3-0.2-0.6-0.3-0.8-0.5l0.8-0.5h-2.2v1L212.9,110.9z M215.9,113.4c0.8,1.1,1.6,2.5,1.9,3.5l-2,0.6c-0.2-0.9-1-2.4-1.7-3.5
		L215.9,113.4z"/>
	<path class="st1" d="M224.5,101.9c-0.4,1.2-0.8,2.3-1.4,3.5v12.7h-2v-9c-0.4,0.5-0.7,1-1.1,1.5c-0.2-0.5-0.7-1.7-1-2.3
		c1.4-1.7,2.8-4.3,3.6-7L224.5,101.9z M232.6,115.4c1.4,0.5,2.9,1.1,3.8,1.5l-1.8,1.2c-0.9-0.5-2.4-1.2-3.9-1.7l1.2-1h-3.5l1.2,0.8
		c-1.2,0.8-3,1.5-4.6,1.8c-0.3-0.4-0.7-1.1-1.1-1.5c1.3-0.3,2.8-0.7,3.8-1.2H225v-6.7h10.2v6.7H232.6z M232.3,103.6v0.8h3.1v3.7
		h-10.6v-3.7h3v-0.8h-3.3v-1.5h11.5v1.5H232.3z M226.6,106.9h1.1v-1.2h-1.1V106.9z M227,110.6h6.1v-0.6H227V110.6z M227,112.4h6.1
		v-0.6H227V112.4z M227,114.2h6.1v-0.7H227V114.2z M230.6,103.6h-1.2v0.8h1.2V103.6z M229.4,106.9h1.2v-1.2h-1.2V106.9z
		 M232.3,105.6v1.2h1.2v-1.2H232.3z"/>
</g>
<path class="st1" d="M267.3,209.6H152.1c-2.6,0-4.7-2.7-4.7-6v-75c0-3.3,2.1-6,4.7-6h115.2c2.6,0,4.7,2.7,4.7,6v75
	C271.9,206.9,269.8,209.6,267.3,209.6z"/>
<g class="st3">
	<path class="st4" d="M181.4,171.2c0.6,0.6,1.7,1.2,2.7,1.2c1.8,0,3.3-1.3,3.4-5.2c-0.9,1.2-2.4,1.8-3.4,1.8c-3,0-5.2-1.8-5.2-5.6
		c0-3.8,2.7-6,5.9-6c3.4,0,6.7,2.6,6.7,9s-3.4,9.5-7.1,9.5c-2.4,0-4.1-1-5.3-2.1L181.4,171.2z M187.5,164.3c-0.4-3-1.5-3.8-2.6-3.8
		c-1.1,0-2.1,0.8-2.1,2.9c0,1.9,1,2.6,2.2,2.6C185.9,166,186.8,165.5,187.5,164.3z"/>
	<path class="st4" d="M196.9,175.4c-1.3,0-2.5-0.9-2.5-2.4c0-1.4,1.2-2.4,2.7-2.4c1.9,0,2.9,1.5,2.9,4c0,3.1-1.8,5.4-5.1,6.4
		l-0.9-2.3c2.1-0.7,3.2-2,3.2-3.3H196.9z"/>
	<path class="st4" d="M202.2,171.1c0-2.2,1.3-3.6,2.9-4.5v-0.1c-1.4-1-2.3-2.4-2.3-4.3c0-3,2.4-4.8,5.7-4.8c3.2,0,5.4,1.9,5.4,4.8
		c0,1.7-1,3.1-2.3,4v0.1c1.7,0.9,3,2.4,3,4.8c0,2.8-2.5,4.8-6.2,4.8C204.8,175.9,202.2,173.9,202.2,171.1z M210.6,170.8
		c0-1.6-1.4-2.2-3.6-3.2c-0.7,0.7-1.2,1.8-1.2,2.9c0,1.5,1.2,2.3,2.6,2.3C209.7,172.9,210.6,172.3,210.6,170.8z M210.4,162.4
		c0-1.3-0.7-2.1-2-2.1c-1,0-1.8,0.6-1.8,1.9c0,1.4,1.1,2.2,2.9,2.9C210.1,164.2,210.4,163.3,210.4,162.4z"/>
	<path class="st4" d="M216.7,166.5c0-6.1,2.5-9.2,6.3-9.2c3.8,0,6.3,3.1,6.3,9.2c0,6.1-2.6,9.4-6.3,9.4
		C219.2,175.9,216.7,172.6,216.7,166.5z M225.3,166.5c0-4.9-1-5.9-2.3-5.9c-1.3,0-2.3,1-2.3,5.9c0,4.9,1,6,2.3,6
		C224.3,172.5,225.3,171.4,225.3,166.5z"/>
	<path class="st4" d="M231.3,166.5c0-6.1,2.5-9.2,6.3-9.2s6.3,3.1,6.3,9.2c0,6.1-2.6,9.4-6.3,9.4S231.3,172.6,231.3,166.5z
		 M239.9,166.5c0-4.9-1-5.9-2.3-5.9s-2.3,1-2.3,5.9c0,4.9,1,6,2.3,6S239.9,171.4,239.9,166.5z"/>
</g>
<path class="st1" d="M128.4,152.6l-9-9c-2-2-5.4-0.6-5.4,2.3v18c0,2.8,3.4,4.3,5.4,2.3l9-9C129.7,156.1,129.7,153.9,128.4,152.6z"/>
<g>
	<circle class="st2" cx="299.9" cy="150.1" r="14.9"/>
	<g class="st3">
		<path class="st4" d="M306.1,155.5c0.9-0.1,1.7-0.2,2.4-0.3c-0.3,0.7-0.7,1.9-0.7,2.6c-1.5,0.1-4.5,0.2-6.6,0.2
			c-2.4,0-3.8-0.2-5.1-0.9c-0.7-0.4-1.4-1-1.7-1c-0.4,0-1,1.2-1.3,2.2l-1.7-2.5c0.7-0.8,1.5-1.5,2.2-1.8c0.4-0.8,0.7-1.7,0.9-2.6
			h-2.3c0.4-1,0.8-2.3,1.2-3.6h-1.6v-2.3h4.5c-0.3,1.2-0.7,2.5-1.1,3.7h0.8l0.4-0.1l0.6,0.2v-1.2h3.9v-1.6h-3.5v-2.3h2
			c-0.3-0.6-0.7-1.4-1-2l2.1-0.9c0.5,0.8,1.1,1.8,1.5,2.5l-0.8,0.3h2.1c0.5-0.9,1-2,1.3-2.8l2.6,0.8c-0.4,0.7-0.9,1.4-1.3,2.1h1.7
			v2.3h-3.9v1.6h4.6v2.3h-3.8c1.3,1.1,2.8,2.3,3.6,3.1L306.1,155.5z M293.6,145.4c-0.2-0.8-0.7-2.1-1-3l2.3-0.7
			c0.4,0.9,0.8,2.1,1.1,2.9L293.6,145.4z M297.1,150.6c-0.4,1.4-0.8,2.8-1.4,3.9c0.2,0.1,0.4,0.2,0.6,0.4c1.2,0.7,2.9,0.8,4.9,0.8
			c1.2,0,3.1-0.1,4.8-0.2c-0.8-0.9-2.2-2.2-3.5-3.4c-0.8,1.3-2.1,2.5-4.2,3.4c-0.4-0.5-1.2-1.4-1.8-1.9c2.4-0.8,3.4-1.9,3.9-3H297.1
			z"/>
	</g>
</g>
<g class="st3">
	<path class="st2" d="M340.1,170.6c0,0,0,0.8,0,1.1c-0.2,6.9-0.4,9.5-1,10.3c-0.4,0.6-0.8,0.9-1.4,1c-0.5,0.1-1.2,0.1-1.9,0.1
		c0-0.7-0.3-1.7-0.6-2.4c-0.4,1-0.8,1.9-1.4,2.7c-0.4-0.6-1.2-1.4-1.8-1.8c1.6-2.2,2.1-5.2,2.2-8.7h-1.7v-2.3h1.8c0-0.9,0-1.9,0-2.8
		h2.4c0,1,0,1.9,0,2.8L340.1,170.6L340.1,170.6z M336.5,173.1c-0.1,2.8-0.5,5.5-1.3,7.7c0.5,0,0.9,0.1,1.2,0.1
		c0.2,0,0.4-0.1,0.6-0.3c0.3-0.5,0.5-2.4,0.7-7.4h-1.2V173.1z M347.2,169.6v13.3h-2.5v-1H343v1.1h-2.4v-13.5L347.2,169.6
		L347.2,169.6z M344.7,179.6v-7.7H343v7.7H344.7z"/>
	<path class="st2" d="M358.4,178.9c0.2,1,0.3,2.2,0.3,3l-1.6,0.2c0-0.8,0-1.9-0.2-2.8c-0.2,1.3-0.4,2.6-1.1,3.4l-1.6-0.9
		c0.1-0.1,0.1-0.2,0.2-0.3h-2.7v1.3h-2v-3.7c-0.1,0.1-0.1,0.2-0.2,0.3c-0.2-0.6-0.8-1.8-1.3-2.3c1.1-1.6,1.7-4,2-6.6h-1.5v-2.2h6.4
		v2.2h-2.6c-0.2,1.1-0.3,2.1-0.6,3.2h2.8v7.4c0.3-0.8,0.5-1.8,0.6-2.7l1.7,0.4v0.3L358.4,178.9z M352.6,175.6h-0.9v3.8h0.9V175.6z
		 M364,175.9c0,0,0,0.6,0,0.8c-0.1,3.8-0.3,5.4-0.8,5.9c-0.4,0.5-0.7,0.6-1.2,0.7c-0.4,0.1-1.1,0.1-1.8,0.1c0-0.6-0.3-1.5-0.6-2
		c0.5,0,1,0.1,1.3,0.1c0.2,0,0.3,0,0.5-0.2c0.1-0.1,0.2-0.4,0.3-1l-0.6,0.2c-0.1-0.5-0.4-1.3-0.8-1.9l1.2-0.4
		c0.1,0.2,0.2,0.4,0.3,0.6c0-0.3,0-0.6,0-0.9h-6.3v-9.6h8.2v2H361v0.6h2.1v1.8H361v0.6h2.1v1.8H361v0.7L364,175.9L364,175.9z
		 M357.7,170.4v0.6h1.3v-0.6H357.7z M358.9,172.6h-1.3v0.6h1.3V172.6z M357.7,175.9h1.3v-0.7h-1.3V175.9z M360,178.6
		c0.3,0.8,0.5,1.8,0.6,2.5l-1.5,0.4c0-0.7-0.3-1.7-0.5-2.5L360,178.6z"/>
	<path class="st2" d="M378.1,181.1c-1.5,1.5-3.2,2.2-5.3,2.2s-3.8-0.7-5.3-2.2s-2.2-3.2-2.2-5.3s0.7-3.8,2.2-5.3s3.2-2.2,5.3-2.2
		s3.8,0.7,5.3,2.2s2.2,3.2,2.2,5.3C380.3,178.1,379.6,179.9,378.1,181.1z M373.7,173.1c0.3,0.2,0.4,0.6,0.4,1.1c0,0.6-0.3,1.3-0.8,2
		c-0.5,0.6-1.4,1.5-2.8,2.5c-0.4,0.3-0.6,0.7-0.6,1.2c0,0.2,0.1,0.4,0.2,0.5c0.1,0.1,0.3,0.2,0.5,0.2h4.6c0.2,0,0.4-0.1,0.5-0.2
		c0.1-0.1,0.2-0.3,0.2-0.5s-0.1-0.4-0.2-0.5c-0.1-0.1-0.3-0.2-0.5-0.2h-3l0,0l0,0c1.4-1.2,2.4-2.2,2.9-2.9s0.7-1.5,0.7-2.3
		c0-0.9-0.3-1.5-0.8-1.9c-0.5-0.5-1.3-0.7-2.3-0.7c-0.7,0-1.4,0.1-2,0.3c-0.2,0.1-0.4,0.2-0.6,0.4c-0.1,0.2-0.2,0.4-0.2,0.7
		c0,0.2,0.1,0.3,0.2,0.4c0.1,0.1,0.3,0.1,0.5,0.1c0.6-0.3,1.2-0.4,1.8-0.4C373,172.6,373.4,172.9,373.7,173.1z"/>
	<path class="st2" d="M399.2,181.1c0.5,0,0.6-0.3,0.7-2c0.5,0.4,1.5,0.8,2.2,0.9c-0.2,2.5-0.9,3.2-2.6,3.2h-1.9
		c-2.2,0-2.7-0.7-2.7-2.7v-2.7c-0.9,2.4-2.8,4.3-6.9,5.5c-0.2-0.6-0.8-1.5-1.3-2c3.2-0.8,4.7-2,5.6-3.5h-4v-3.5l-0.3,0.2
		c-0.4-0.6-1.1-1.4-1.7-1.8c2.2-1.4,3.7-3.3,4.6-5l2.6,0.5c-0.1,0.2-0.2,0.4-0.3,0.6h2.9l0.4-0.1l1.7,1.1c-0.4,0.6-0.9,1.4-1.5,2.1
		h4.2v5.9h-3.4v2.6c0,0.6,0.1,0.6,0.6,0.6L399.2,181.1L399.2,181.1z M392.8,175.6c0.1-0.5,0.2-1.1,0.2-1.7h-2.5v1.7H392.8z
		 M391.6,170.6c-0.3,0.4-0.6,0.8-1,1.2h2.9c0.3-0.4,0.6-0.8,0.9-1.2H391.6z M398.1,174.1h-2.6c-0.1,0.6-0.1,1.1-0.2,1.7h2.8V174.1
		L398.1,174.1z"/>
	<path class="st2" d="M415.1,180.9c1.2,0.4,2.3,0.9,3,1.2l-1.7,1.4c-1.1-0.6-2.9-1.4-4.6-2l0.6-0.6h-3.8l1.3,0.6
		c-1.4,0.8-3.5,1.6-5.2,2c-0.4-0.5-1.2-1.3-1.7-1.7c1.3-0.2,2.8-0.5,3.9-0.9h-1.7v-4.7c-0.3,0.1-0.7,0.1-1.1,0.2
		c-0.2-0.5-0.8-1.4-1.1-1.8c1.9-0.2,3-0.5,3.7-0.9h-2.5c0.2-0.9,0.4-2.2,0.5-3.3h3.1v-0.5h-3.6v-1.3h3.6v-0.6h2.2v0.6h1.4v-0.6h2.3
		v0.6h3.4v3.2h-3.4v0.6h4.5c0,0,0,0.4,0,0.6c-0.1,1.1-0.2,1.7-0.5,2.1c-0.3,0.3-0.7,0.4-1,0.5h-0.2v5.6h-1.4V180.9z M406.5,172.1
		h1.2c0-0.2,0-0.4,0.1-0.6h-1.2L406.5,172.1z M407.5,175.6v0.5h6.5v-0.5H407.5z M407.5,177.4v0.5h6.5v-0.5H407.5z M407.5,179.1v0.5
		h6.5v-0.5H407.5z M409.5,173.6c-0.1,0.3-0.3,0.6-0.6,0.9h2.4v-0.9H409.5z M411.3,171.6h-1.4c0,0.2,0,0.4,0,0.6h1.5L411.3,171.6
		L411.3,171.6z M409.9,170.1h1.4v-0.5h-1.4V170.1z M413.6,169.6v0.5h1.3v-0.5H413.6z M413.6,173.6v0.9h1.2c-0.1-0.2-0.1-0.4-0.2-0.5
		c0.3,0,0.6,0.1,0.8,0c0.1,0,0.2,0,0.3-0.1c0-0.1,0.1-0.2,0.1-0.3L413.6,173.6L413.6,173.6z"/>
	<path class="st2" d="M432.9,180.9c0.8-0.1,1.6-0.2,2.2-0.3c-0.3,0.6-0.7,1.8-0.7,2.4c-1.4,0.1-4.2,0.2-6.2,0.2
		c-2.2,0-3.6-0.2-4.7-0.8c-0.7-0.4-1.3-0.9-1.6-0.9c-0.4,0-0.9,1.2-1.3,2.1l-1.6-2.3c0.7-0.8,1.4-1.4,2.1-1.6
		c0.3-0.7,0.6-1.6,0.9-2.5h-2.2c0.3-0.9,0.8-2.2,1.1-3.4h-1.5v-2.1h4.3c-0.3,1.1-0.7,2.3-1.1,3.5h0.7l0.3-0.1l0.6,0.2V174h3.7v-1.5
		h-3.3v-2.2h1.9c-0.3-0.6-0.6-1.3-1-1.8l2-0.8c0.4,0.7,1.1,1.7,1.4,2.3l-0.7,0.3h1.9c0.5-0.8,0.9-1.8,1.2-2.7l2.4,0.7
		c-0.4,0.7-0.8,1.4-1.2,2h1.6v2.2h-3.7v1.5h4.3v2.2h-3.5c1.2,1,2.6,2.1,3.4,2.9L432.9,180.9z M421.2,171.4c-0.2-0.7-0.7-1.9-1-2.8
		l2.2-0.6c0.3,0.9,0.8,2,1,2.7L421.2,171.4z M424.5,176.1c-0.3,1.3-0.8,2.6-1.3,3.7c0.2,0.1,0.3,0.2,0.5,0.3
		c1.1,0.7,2.7,0.8,4.6,0.8c1.2,0,2.9-0.1,4.5-0.2c-0.7-0.8-2.1-2-3.3-3.1c-0.7,1.2-1.9,2.3-3.9,3.2c-0.3-0.5-1.1-1.3-1.7-1.8
		c2.2-0.8,3.2-1.8,3.6-2.8L424.5,176.1L424.5,176.1z"/>
</g>
<g class="st3">
	<path class="st2" d="M340.1,38.1c0,0,0,0.8,0,1.1c-0.2,6.9-0.4,9.5-1,10.3c-0.4,0.6-0.8,0.9-1.4,1c-0.5,0.1-1.2,0.1-1.9,0.1
		c0-0.7-0.3-1.7-0.6-2.4c-0.4,1-0.8,1.9-1.4,2.7c-0.4-0.6-1.2-1.4-1.8-1.8c1.6-2.2,2.1-5.2,2.2-8.7h-1.7v-2.3h1.8c0-0.9,0-1.9,0-2.8
		h2.4c0,1,0,1.9,0,2.8C336.7,38,340.1,38,340.1,38.1z M336.5,40.5c-0.1,2.8-0.5,5.5-1.3,7.7c0.5,0,0.9,0.1,1.2,0.1
		c0.2,0,0.4-0.1,0.6-0.3c0.3-0.5,0.5-2.4,0.7-7.4L336.5,40.5L336.5,40.5z M347.2,37.1v13.3h-2.5v-1H343v1.1h-2.4V37.1H347.2z
		 M344.7,47.2v-7.7H343v7.7H344.7z"/>
	<path class="st2" d="M358.4,46.3c0.2,1,0.3,2.2,0.3,3l-1.6,0.2c0-0.8,0-1.9-0.2-2.8c-0.2,1.3-0.4,2.6-1.1,3.4l-1.6-0.9
		c0.1-0.1,0.1-0.2,0.2-0.3h-2.7v1.3h-2v-3.7c-0.1,0.1-0.1,0.2-0.2,0.3c-0.2-0.6-0.8-1.8-1.3-2.3c1.1-1.6,1.7-4,2-6.6h-1.5v-2.2h6.4
		v2.2h-2.6c-0.2,1.1-0.3,2.1-0.6,3.2h2.8v7.4c0.3-0.8,0.5-1.8,0.6-2.7l1.7,0.4v0.3L358.4,46.3z M352.6,43.2h-0.9v3.8h0.9V43.2z
		 M364,43.4c0,0,0,0.6,0,0.8c-0.1,3.8-0.3,5.4-0.8,5.9c-0.4,0.5-0.7,0.6-1.2,0.7c-0.4,0.1-1.1,0.1-1.8,0.1c0-0.6-0.3-1.5-0.6-2
		c0.5,0,1,0.1,1.3,0.1c0.2,0,0.3,0,0.5-0.2c0.1-0.1,0.2-0.4,0.3-1l-0.6,0.2c-0.1-0.5-0.4-1.3-0.8-1.9l1.2-0.4
		c0.1,0.2,0.2,0.4,0.3,0.6c0-0.3,0-0.6,0-0.9h-6.3v-9.7h8.2v2H361v0.6h2.1v1.8H361v0.6h2.1v1.8H361v0.7h3L364,43.4L364,43.4z
		 M357.7,37.9v0.6h1.3v-0.6H357.7z M358.9,40.3h-1.3v0.6h1.3V40.3z M357.7,43.4h1.3v-0.7h-1.3V43.4z M360,46.2
		c0.3,0.8,0.5,1.8,0.6,2.5l-1.5,0.4c0-0.7-0.3-1.7-0.5-2.5L360,46.2z"/>
	<path class="st2" d="M378.1,48.8c-1.5,1.5-3.2,2.2-5.3,2.2s-3.8-0.7-5.3-2.2s-2.2-3.2-2.2-5.3s0.7-3.8,2.2-5.3s3.2-2.2,5.3-2.2
		s3.8,0.7,5.3,2.2s2.2,3.2,2.2,5.3S379.6,47.3,378.1,48.8z M369.7,41.8L369.7,41.8c0,0.2,0.1,0.4,0.3,0.5s0.3,0.1,0.5-0.1l1.7-1.3
		l0,0l0,0v6.3c0,0.3,0.1,0.5,0.3,0.6s0.4,0.2,0.6,0.2s0.5-0.1,0.6-0.3c0.1-0.2,0.3-0.4,0.3-0.6v-7.3c0-0.3-0.1-0.5-0.3-0.6
		c-0.2-0.2-0.4-0.2-0.6-0.2c-0.6,0-1.1,0.2-1.6,0.5l-1,0.8C369.9,40.7,369.7,41,369.7,41.8z"/>
	<path class="st2" d="M399.2,48.5c0.5,0,0.6-0.3,0.7-2c0.5,0.4,1.5,0.8,2.2,0.9c-0.2,2.5-0.9,3.2-2.6,3.2h-1.9
		c-2.2,0-2.7-0.7-2.7-2.7v-2.6c-0.9,2.4-2.8,4.3-6.9,5.5c-0.2-0.6-0.8-1.5-1.3-2c3.2-0.8,4.7-2,5.6-3.5h-4v-3.5l-0.3,0.2
		c-0.4-0.6-1.1-1.4-1.7-1.8c2.2-1.4,3.7-3.3,4.6-5l2.6,0.5c-0.1,0.2-0.2,0.4-0.3,0.6h2.9l0.4-0.1l1.7,1.1c-0.4,0.6-0.9,1.4-1.5,2.1
		h4.2v5.9h-3.4V48c0,0.6,0.1,0.6,0.6,0.6C398.1,48.6,399.2,48.6,399.2,48.5z M392.8,43.3c0.1-0.5,0.2-1.1,0.2-1.7h-2.5v1.7H392.8z
		 M391.6,38.3c-0.3,0.4-0.6,0.8-1,1.2h2.9c0.3-0.4,0.6-0.8,0.9-1.2H391.6z M398.1,41.5h-2.6c-0.1,0.6-0.1,1.1-0.2,1.7h2.8V41.5
		L398.1,41.5z"/>
	<path class="st2" d="M415.1,48.4c1.2,0.4,2.3,0.9,3,1.2l-1.7,1.4c-1.1-0.6-2.9-1.4-4.6-2l0.6-0.6h-3.8l1.3,0.6
		c-1.4,0.8-3.5,1.6-5.2,2c-0.4-0.5-1.2-1.3-1.7-1.7c1.3-0.2,2.8-0.5,3.9-0.9h-1.7v-4.7c-0.3,0.1-0.7,0.1-1.1,0.2
		c-0.2-0.5-0.8-1.4-1.1-1.8c1.9-0.2,3-0.5,3.7-0.9h-2.5c0.2-0.9,0.4-2.2,0.5-3.3h3.1v-0.5h-3.6v-1.3h3.6v-0.6h2.2v0.6h1.4v-0.6h2.3
		v0.6h3.4v3.2h-3.4v0.6h4.5c0,0,0,0.4,0,0.6c-0.1,1.1-0.2,1.7-0.5,2.1c-0.3,0.3-0.7,0.4-1,0.5h-0.2v5.6h-1.4V48.4z M406.5,39.7h1.2
		c0-0.2,0-0.4,0.1-0.6h-1.2L406.5,39.7z M407.5,43.3v0.5h6.5v-0.5H407.5z M407.5,44.9v0.5h6.5v-0.5H407.5z M407.5,46.7v0.5h6.5v-0.5
		H407.5z M409.5,41c-0.1,0.3-0.3,0.6-0.6,0.9h2.4V41H409.5z M411.3,39.2h-1.4c0,0.2,0,0.4,0,0.6h1.5L411.3,39.2L411.3,39.2z
		 M409.9,37.8h1.4v-0.5h-1.4V37.8z M413.6,37.3v0.5h1.3v-0.5H413.6z M413.6,41v0.9h1.2c-0.1-0.2-0.1-0.4-0.2-0.5
		c0.3,0,0.6,0.1,0.8,0c0.1,0,0.2,0,0.3-0.1c0-0.1,0.1-0.2,0.1-0.3C415.8,41,413.6,41,413.6,41z"/>
	<path class="st2" d="M432.9,48.3c0.8-0.1,1.6-0.2,2.2-0.3c-0.3,0.6-0.7,1.8-0.7,2.4c-1.4,0.1-4.2,0.2-6.2,0.2
		c-2.2,0-3.6-0.2-4.7-0.8c-0.7-0.4-1.3-0.9-1.6-0.9c-0.4,0-0.9,1.2-1.3,2.1l-1.6-2.3c0.7-0.8,1.4-1.4,2.1-1.6
		c0.3-0.7,0.6-1.6,0.9-2.5h-2.2c0.3-0.9,0.8-2.2,1.1-3.4h-1.5v-2.1h4.3c-0.3,1.1-0.7,2.3-1.1,3.5h0.7l0.3-0.1l0.6,0.2v-1.1h3.7v-1.5
		h-3.3V38h1.9c-0.3-0.6-0.6-1.3-1-1.8l2-0.8c0.4,0.7,1.1,1.7,1.4,2.3l-0.7,0.3h1.9c0.5-0.8,0.9-1.8,1.2-2.7l2.4,0.7
		c-0.4,0.7-0.8,1.4-1.2,2h1.6v2.2h-3.7v1.5h4.3v2.2h-3.5c1.2,1,2.6,2.1,3.4,2.9L432.9,48.3z M421.2,38.8c-0.2-0.7-0.7-1.9-1-2.8
		l2.2-0.6c0.3,0.9,0.8,2,1,2.7L421.2,38.8z M424.5,43.8c-0.3,1.3-0.8,2.6-1.3,3.7c0.2,0.1,0.3,0.2,0.5,0.3c1.1,0.7,2.7,0.8,4.6,0.8
		c1.2,0,2.9-0.1,4.5-0.2c-0.7-0.8-2.1-2-3.3-3.1c-0.7,1.2-1.9,2.3-3.9,3.2c-0.3-0.5-1.1-1.3-1.7-1.8c2.2-0.8,3.2-1.8,3.6-2.8
		L424.5,43.8L424.5,43.8L424.5,43.8z"/>
</g>
<path class="st0" d="M440.1,151.3H331.7c-3.9,0-7.1-2.7-7.1-6v-75c0-3.3,3.2-6,7.1-6h108.4c3.9,0,7.1,2.7,7.1,6v75
	C447.2,148.6,444,151.3,440.1,151.3z"/>
<path class="st0" d="M440,274.8H331.9c-4,0-7.2-2.7-7.2-6v-75c0-3.3,3.2-6,7.2-6H440c4,0,7.2,2.7,7.2,6v75
	C447.2,272.1,443.9,274.8,440,274.8z"/>
<g>
	<g>
		<g class="st3">
			<path class="st4" d="M350.3,97.7c1.3-0.2,2.7-0.4,4-0.6l0.2,2.7c-3.8,0.7-8,1.4-11.1,2l-0.7-2.9c1.3-0.2,2.9-0.4,4.6-0.7v-2.5
				h-3.9V93h3.9v-1.7h3V93h3.7v2.7h-3.7V97.7z M342.9,82.8h11.6v2.7h-2.7c1,1.4,2.2,3.1,2.6,4.3l-2.4,1.6c-0.1-0.3-0.2-0.6-0.4-0.9
				c-5.6,0.4-6.6,0.5-7.4,0.8c-0.2-0.6-0.7-2-1-2.9c0.4-0.1,0.7-0.4,1-0.9c0.2-0.3,0.6-1,1-2h-2.4L342.9,82.8L342.9,82.8z
				 M350.2,87.9c-0.4-0.5-0.7-1.1-1-1.5l1.5-0.9h-2c-0.5,0.9-1,1.8-1.6,2.6L350.2,87.9z M358,97.2h-2.9V83.7h2.9V97.2z M362.4,81.7
				v17c0,1.6-0.3,2.4-1.2,2.9s-2.2,0.6-4,0.6c-0.1-0.8-0.6-2.2-1.1-3c1.1,0,2.3,0,2.7,0s0.5-0.1,0.5-0.5v-17H362.4z"/>
			<path class="st4" d="M375.4,87.4c-0.4,1.1-0.9,2.3-1.5,3.4v11.5h-3V95c-0.3,0.3-0.5,0.5-0.8,0.8c-0.2-0.7-0.7-1.9-1.1-2.7
				c-0.2,3.2-0.7,6.9-2.1,9.4c-0.6-0.6-2.1-1.5-2.8-1.8c1.7-3.2,1.8-7.9,1.8-11.2v-6h8c-0.2-0.5-0.4-1-0.5-1.4l3.3-0.8
				c0.3,0.7,0.7,1.5,0.9,2.3h7.3v2.9H369v3.1c0,0.9,0,2-0.1,3.1c1.5-1.5,2.7-4,3.3-6.1L375.4,87.4z M377,93.2c0.7,1.3,1.6,2.9,2,3.9
				l-2.7,1.2c-0.4-1.1-1.2-2.8-1.9-4.1L377,93.2z M384.8,92.7H383v6.4c0,1.6-0.3,2.4-1.3,2.9s-2.3,0.5-4.1,0.5
				c-0.1-0.9-0.5-2.3-1-3.1c1,0.1,2.3,0.1,2.6,0.1c0.4,0,0.5-0.1,0.5-0.4v-6.4h-5.3v-2.9h5.3v-2.7h3.2v2.7h1.8L384.8,92.7
				L384.8,92.7z"/>
			<path class="st4" d="M404.1,102.6c-1.4-0.9-3.5-2-5.8-3.1c-2.3,1.7-5.4,2.6-9.6,3.1c-0.3-0.9-1.3-2.4-1.9-3.2
				c3.2-0.2,5.8-0.7,7.7-1.5c-1.8-0.7-3.6-1.4-5.2-1.9c0.5-0.7,1.1-1.6,1.6-2.6h-4v-3h5.6c0.5-1.1,0.9-2.1,1.3-3.1l3.8,0.7
				c-0.3,0.8-0.6,1.6-1,2.5h3c0.1-0.6,0.2-1.2,0.2-1.9l3.1,0.2v-1.8h-12.3V89h-3.3v-5.2h7.6c-0.2-0.6-0.4-1.2-0.6-1.8l3.7-0.8
				c0.4,0.8,0.7,1.8,1.1,2.6h7.3V89h-2.6c-0.1,0.4-0.1,0.8-0.2,1.2h3.1v3h-3.9c-0.5,1.4-1,2.6-1.8,3.6c2.2,0.9,4.2,1.9,5.7,2.8
				L404.1,102.6z M394.9,93.3c-0.2,0.4-0.4,0.8-0.7,1.2c1,0.4,2.1,0.7,3.1,1.1c0.5-0.7,1-1.4,1.3-2.3
				C398.6,93.3,394.9,93.3,394.9,93.3z"/>
			<path class="st4" d="M427.9,96.7c-1,0.7-2.2,1.4-3.3,1.9c1.2,0.6,2.7,1.1,4.4,1.3c-0.6,0.6-1.4,1.8-1.8,2.6
				c-4.7-0.9-7.3-3.1-8.9-6.9c-0.7,0.6-1.5,1.1-2.4,1.6v2l4-0.7c-0.2,0.7-0.3,1.9-0.3,2.5c-5.4,1.1-6.3,1.3-6.8,1.6
				c-0.2-0.7-0.7-1.8-1.1-2.3c0.5-0.3,1.1-0.9,1.2-1.9c-1,0.3-2.1,0.6-3.2,0.8c-0.4-0.7-1.1-1.7-1.7-2.2c2.1-0.3,4.1-0.7,5.8-1.4
				h-5.3v-2.4h8.3c-0.1-0.2-0.2-0.4-0.3-0.7h-2.6v-3.2h-1.2c-0.3,1.6-1.1,2.9-3.1,3.7c-0.3-0.6-1-1.6-1.6-2.1c1-0.4,1.5-0.9,1.7-1.6
				h-1.4V87h5.5v-0.8h-4.7v-4.4h2.7v1.9h2v-2.1h3v10.6l2.2-0.6h-1v-2.7h3.4v-2.1h-4v-2.7h4v-2.5h3.2v2.5h4v2.7h-4v2.2h3.5v2.7h-8.5
				c0.3,0.5,0.5,1.1,0.7,1.6h8.3v2.4h-2.2L427.9,96.7z M421.4,95.7c0.3,0.6,0.7,1.1,1.2,1.5c0.8-0.5,1.7-1,2.4-1.5H421.4z"/>
		</g>
	</g>
	<g class="st3">
		<path class="st4" d="M361.4,126.2h3.5v-9.3h-3v-2.4c1.8-0.3,2.9-0.8,4-1.5h2.9v13.2h2.9v3.2h-10.3L361.4,126.2L361.4,126.2z"/>
		<path class="st4" d="M377,129.1c-1.2,0-2.3-0.8-2.3-2.2c0-1.3,1.1-2.2,2.4-2.2c1.7,0,2.7,1.4,2.7,3.6c0,2.8-1.6,5-4.7,5.9
			l-0.8-2.1c1.9-0.7,2.9-1.8,2.9-3.1L377,129.1L377,129.1L377,129.1z"/>
		<path class="st4" d="M381.3,127.4l1.8-2.5c0.9,0.9,2.1,1.6,3.4,1.6c1.6,0,2.6-0.9,2.6-2.5s-1-2.5-2.4-2.5c-0.9,0-1.3,0.2-2.3,0.8
			l-1.7-1.1l0.4-8.1h9.2v3.2h-5.8l-0.2,2.8c0.6-0.2,1.1-0.3,1.7-0.3c2.8,0,5.1,1.6,5.1,5.2c0,3.7-2.8,5.8-5.9,5.8
			C384.4,129.6,382.6,128.6,381.3,127.4z"/>
		<path class="st4" d="M395.1,121.2c0-5.6,2.3-8.4,5.8-8.4s5.8,2.8,5.8,8.4s-2.3,8.6-5.8,8.6S395.1,126.7,395.1,121.2z M403,121.2
			c0-4.5-0.9-5.4-2.1-5.4s-2.1,0.9-2.1,5.4s0.9,5.5,2.1,5.5S403,125.7,403,121.2z"/>
		<path class="st4" d="M408.4,121.2c0-5.6,2.3-8.4,5.8-8.4s5.8,2.8,5.8,8.4s-2.3,8.6-5.8,8.6S408.4,126.7,408.4,121.2z M416.3,121.2
			c0-4.5-0.9-5.4-2.1-5.4s-2.1,0.9-2.1,5.4s0.9,5.5,2.1,5.5S416.3,125.7,416.3,121.2z"/>
	</g>
</g>
<g>
	<g class="st3">
		<path class="st4" d="M344,209.7c-0.2,0.3-0.3,0.7-0.5,1h6.4v14.1h-3.3v-0.9h-9.4v0.9H334v-14.1h5.8c0.1-0.3,0.2-0.6,0.3-1h-8.1
			v-2.9h4.7c-0.4-0.6-1-1.3-1.4-1.8l2.9-1.3c0.8,0.8,1.7,1.8,2.2,2.6l-1,0.5h4.6c0.6-0.9,1.2-2.1,1.5-3l3.7,0.7
			c-0.5,0.8-1.1,1.6-1.6,2.2h4.6v2.9H344z M346.6,213.4h-9.4v0.9h9.4V213.4z M337.2,217.6h9.4v-1h-9.4V217.6z M346.6,221.1v-1h-9.4
			v1H346.6z"/>
		<path class="st4" d="M374.2,220.2h-7.3v4.5h-3.3v-4.5h-9.8v-3.1h3.4v-4.9c-0.3,0.3-0.5,0.6-0.8,0.9c-0.6-0.6-2-1.6-2.7-2.1
			c1.9-1.6,3.6-4.4,4.4-7.2l3.3,0.8c-0.2,0.5-0.4,1-0.6,1.5h12.1v3.1h-6v2.2h5.5v3h-5.5v2.7h7.3V220.2z M359.3,209.2
			c-0.5,0.8-1,1.6-1.5,2.2h5.8v-2.2H359.3z M363.6,217.1v-2.7h-3.2v2.7H363.6z"/>
		<path class="st4" d="M382.9,204.9c-0.5,1.5-1.3,3-2,4.5v15.3h-3.1v-10.5c-0.3,0.4-0.6,0.8-0.9,1.1c-0.3-0.8-1.1-2.6-1.7-3.4
			c1.9-1.9,3.7-4.9,4.8-8L382.9,204.9z M392.6,204.5c0.6,2.4,2,5,4,6.4c-0.6,0.8-1.5,2.4-1.9,3.5c-0.2-0.2-0.4-0.4-0.6-0.6v0.3
			c-0.2,6.1-0.4,8.6-1.1,9.4c-0.5,0.7-1,0.9-1.7,1.1c-0.6,0.1-1.5,0.2-2.5,0.1c-0.1-0.9-0.4-2.1-0.8-2.9c0.7,0.1,1.2,0.1,1.6,0.1
			c0.3,0,0.5-0.1,0.7-0.3c0.3-0.4,0.5-1.9,0.6-5.7h-2.2c-0.6,4.3-2.1,7.2-5.3,8.9c-0.4-0.6-1.5-1.8-2.1-2.4c2.7-1.2,3.9-3.4,4.3-6.5
			h-1.7v-2.4c-0.3,0.3-0.5,0.5-0.8,0.8c-0.4-0.7-1.3-2.3-1.9-3c1.7-1.4,3.1-3.8,3.8-6.3l3.1,0.8c-0.8,2.6-2.1,5.2-3.7,7.1h8.8
			c-1.3-1.6-2.3-3.5-3-5.2h-1.7v-3.1H392.6z"/>
		<path class="st4" d="M400.8,214.3c-0.7-0.5-2.3-1.5-3.4-2.1l1.8-2.3c1,0.5,2.6,1.3,3.4,1.8L400.8,214.3z M403.1,217.4
			c-0.7,2.4-1.6,4.9-2.5,7.1l-2.9-1.6c0.8-1.7,1.9-4.5,2.8-7.1L403.1,217.4z M401.6,208.5c-0.7-0.6-2.3-1.5-3.4-2.2l1.8-2.3
			c1,0.5,2.7,1.4,3.5,1.9L401.6,208.5z M406.7,212.8c0,3.5-0.4,8.7-2.5,11.9c-0.5-0.5-1.7-1.4-2.3-1.7c1.9-2.9,2-7.1,2-10.1v-5.9
			h5.2v-3h3v0.7h5v1.8h-5v0.5h3.6l0.4-0.1l2,0.4c-0.2,1.3-0.7,2.6-1,3.5l-2.4-0.5c0.1-0.3,0.2-0.7,0.3-1.2h-3.5v0.6l2.6-0.2l0.1,1.5
			l-2.6,0.2c0.1,0.2,0.2,0.3,0.6,0.3h2c0.6,0,1.8,0,2.2-0.2c0.1,0.7,0.1,1.2,0.2,1.8c-0.5,0.2-1.4,0.2-2.2,0.2h-3.1
			c-1.7,0-2.3-0.6-2.5-1.6l-1.7,0.2l-0.1-2l1.7-0.1V209h-2V212.8z M416.3,224.4c-0.1-0.4-0.4-1-0.7-1.5c-0.3,1.3-1,1.7-2.2,1.7h-1.7
			c-2.2,0-2.6-0.7-2.6-2.7v-0.6c-0.3,1.2-0.7,2.4-1.6,3.2l-2-1.5c0.8-0.7,1.3-1.9,1.5-3.1l2.1,0.7v-0.4h1.8
			c-0.3-0.2-0.6-0.3-0.9-0.4l0.5-0.5h-3.1v-5.5h9.9v5.5h-3.9c0.4,0.2,0.8,0.5,1.1,0.7l-1.5,1.5c-0.3-0.3-0.7-0.6-1.2-0.9v1.2
			c0,0.5,0.1,0.5,0.5,0.5h1c0.4,0,0.5-0.1,0.5-1.1c0.3,0.2,0.9,0.5,1.4,0.7c-0.3-0.4-0.6-0.8-0.9-1.2l2-1c0.9,1.1,1.9,2.5,2.2,3.6
			L416.3,224.4z M409.8,215.9h1.2v-0.6h-1.2V215.9z M409.8,217.9h1.2v-0.6h-1.2V217.9z M414.6,215.3h-1.2v0.6h1.2V215.3z
			 M414.6,217.3h-1.2v0.6h1.2V217.3z"/>
		<path class="st4" d="M419.1,220.7c1.3-1.5,2.1-3.7,2.4-6.2l3,0.8c-0.4,2.7-1.1,5.4-2.6,7.2L419.1,220.7z M423.7,208.6h-3.8v-2.9
			h3.8v-1.9h3.2v1.9h2.7v2.9h-2.7v2.1h-3.2V208.6z M431.9,221.2c0.9,0,1-0.4,1.1-2.7c0.7,0.5,2.1,1,3,1.2c-0.4,3.6-1.3,4.6-3.8,4.6
			H429c-3.2,0-3.9-1-3.9-4V214h3.2v6.3c0,0.9,0.1,0.9,1.1,0.9H431.9z M428.9,210.4c1.6,1.1,3.6,2.7,4.6,4l-2.5,2
			c-0.8-1.2-2.7-3-4.4-4.2L428.9,210.4z M433.1,208.6h-2.9v-2.9h2.9v-1.9h3.2v1.9h3.5v2.9h-3.5v2.1h-3.2V208.6z M436.9,214
			c1.4,2,3.1,4.7,3.6,6.5l-3.1,1.5c-0.5-1.8-1.9-4.6-3.4-6.7L436.9,214z"/>
	</g>
	<g class="st3">
		<path class="st4" d="M358.4,251.9l1.8-2.5c1,0.9,2.1,1.6,3.4,1.6c1.5,0,2.5-0.6,2.5-1.9c0-1.4-0.7-2.2-4.2-2.2v-2.7
			c2.8,0,3.7-0.9,3.7-2.2c0-1.1-0.7-1.7-1.9-1.7c-1.1,0-1.9,0.5-2.9,1.4l-2-2.4c1.5-1.3,3.1-2,5.1-2c3.4,0,5.6,1.6,5.6,4.5
			c0,1.6-0.9,2.9-2.6,3.6v0.1c1.8,0.5,3.2,1.9,3.2,4c0,3.1-2.8,4.8-6,4.8C361.4,254.2,359.6,253.3,358.4,251.9z"/>
		<path class="st4" d="M375.1,253.7c-1.2,0-2.3-0.8-2.3-2.2c0-1.3,1.1-2.2,2.4-2.2c1.7,0,2.7,1.4,2.7,3.6c0,2.8-1.6,5-4.7,5.9
			l-0.8-2.1c1.9-0.7,2.9-1.8,2.9-3.1H375.1z"/>
		<path class="st4" d="M379.8,245.6c0-5.6,2.3-8.4,5.8-8.4c3.4,0,5.8,2.8,5.8,8.4c0,5.6-2.3,8.6-5.8,8.6
			C382.2,254.2,379.8,251.2,379.8,245.6z M387.7,245.6c0-4.5-0.9-5.4-2.1-5.4c-1.2,0-2.1,0.9-2.1,5.4c0,4.5,0.9,5.5,2.1,5.5
			C386.8,251.1,387.7,250.1,387.7,245.6z"/>
		<path class="st4" d="M393.2,245.6c0-5.6,2.3-8.4,5.8-8.4s5.8,2.8,5.8,8.4c0,5.6-2.3,8.6-5.8,8.6S393.2,251.2,393.2,245.6z
			 M401.1,245.6c0-4.5-0.9-5.4-2.1-5.4s-2.1,0.9-2.1,5.4c0,4.5,0.9,5.5,2.1,5.5S401.1,250.1,401.1,245.6z"/>
		<path class="st4" d="M406.6,245.6c0-5.6,2.3-8.4,5.8-8.4c3.4,0,5.8,2.8,5.8,8.4c0,5.6-2.3,8.6-5.8,8.6
			C408.9,254.2,406.6,251.2,406.6,245.6z M414.5,245.6c0-4.5-0.9-5.4-2.1-5.4c-1.2,0-2.1,0.9-2.1,5.4c0,4.5,0.9,5.5,2.1,5.5
			C413.5,251.1,414.5,250.1,414.5,245.6z"/>
	</g>
</g>
</svg>
