<?xml version="1.0" encoding="utf-8"?>
<!-- Generator: Adobe Illustrator 21.1.0, SVG Export Plug-In . SVG Version: 6.00 Build 0)  -->
<svg version="1.1" id="圖層_1" xmlns="http://www.w3.org/2000/svg" xmlns:xlink="http://www.w3.org/1999/xlink" x="0px" y="0px"
	 viewBox="0 0 471 278" style="enable-background:new 0 0 471 278;" xml:space="preserve">
<style type="text/css">
	.st0{fill:#0D9890;}
	.st1{opacity:0.65;fill:#0D9890;}
	.st2{fill:#FFFFFF;}
	.st3{opacity:0.69;}
</style>
<g>
	<path class="st0" d="M115.9,173.9h-15.7v-1.6h15.7V173.9z M115.1,160.7h-14.1V159h14.1V160.7z M114.3,167h-12.5v-1.6h12.5V167z"/>
	<path class="st0" d="M133.9,170.6h-6.1v3.7h-1.7v-3.7h-7.9V169h2.4v-4.6h5.5v-2.6H122c-1,1.2-1.9,2.2-2.8,3l-1.2-1.2
		c1.7-1.5,3.1-3.2,4.2-5.2l1.7,0.3c-0.2,0.5-0.4,1-0.8,1.5h10.2v1.5h-5.5v2.6h5.1v1.5h-5.1v3h6.1V170.6z M126.1,169v-3h-3.8v3H126.1
		z"/>
	<path class="st0" d="M138.4,170.3c-0.2,1.5-0.4,2.8-0.9,4.1l-1.4-0.6c0.4-1.2,0.7-2.5,0.9-3.9L138.4,170.3z M142.5,168.9l-1.3,0.6
		c-0.1-0.3-0.1-0.6-0.2-0.9c-1.8,0.4-3.2,0.7-4.4,0.9l-0.4-1.2c1-0.8,1.9-2.1,2.9-3.7c-0.9,0.2-1.7,0.3-2.5,0.3l-0.2-1.4
		c1-1.2,1.9-2.9,2.6-5l1.4,0.7c-0.6,1.7-1.3,3-2.2,4c0.5,0,1.1-0.1,1.7-0.3c0.2-0.3,0.5-1,1-2.1l1.5,0.7c-1.4,2.8-2.7,4.9-4,6.3
		c0.6-0.1,1.4-0.3,2.2-0.5c-0.1-0.2-0.2-0.6-0.3-1l1.2-0.5C142,167.2,142.3,168.2,142.5,168.9z M140.5,173.5l-1.4,0.3
		c-0.1-1.6-0.2-2.8-0.4-3.5l1.3-0.3C140.3,171.4,140.5,172.5,140.5,173.5z M142.3,172.1l-1.2,0.4c-0.1-0.8-0.3-1.6-0.5-2.5l1.1-0.3
		C142.1,170.6,142.2,171.4,142.3,172.1z M144.4,169.6c-0.2,1.6-0.5,3-1.1,4.3l-1.3-0.7c0.5-1.1,0.9-2.5,1.1-4.1L144.4,169.6z
		 M151.1,168.3h-8.3v-8.5h2.2c0.2-0.4,0.4-0.8,0.6-1.3l1.6,0.3c0,0.2-0.2,0.5-0.5,1h4.3V168.3z M149.5,166.9v-5.7h-5.2v5.7H149.5z
		 M149.4,165.5l-0.9,1c-0.4-0.5-0.8-0.8-1-1c-0.4,0.6-0.8,1-1.2,1.3l-0.9-0.8c0.4-0.3,0.8-0.8,1.2-1.3c-0.2-0.2-0.3-0.3-0.4-0.4
		c-0.2,0.3-0.5,0.6-0.9,1l-0.8-0.9c0.2-0.2,0.5-0.5,0.8-0.9c-0.2-0.1-0.4-0.3-0.7-0.5l0.8-1c0.1,0.1,0.3,0.2,0.6,0.4
		c0.1-0.3,0.3-0.6,0.5-1l1.1,0.6l-0.6,1.1c0.2,0.2,0.4,0.3,0.4,0.4c0.3-0.4,0.6-0.9,0.8-1.5l1,0.6c-0.3,0.7-0.6,1.2-0.9,1.8
		L149.4,165.5z M149.9,171.8c-0.1,0.8-0.2,1.3-0.3,1.6s-0.3,0.5-0.6,0.7s-0.8,0.2-1.6,0.2c-0.5,0-0.9,0-1.3,0s-0.6-0.2-0.9-0.4
		c-0.2-0.2-0.4-0.5-0.4-0.9V169h1.5v3.3c0,0.2,0.1,0.3,0.2,0.4s0.5,0.1,1,0.1c0.3,0,0.5,0,0.6-0.1s0.2-0.3,0.2-0.5s0.1-0.6,0.1-0.9
		L149.9,171.8z M148.9,170.7l-1.3,0.6c-0.3-0.8-0.5-1.5-0.9-2.1l1.3-0.5C148.3,169.1,148.6,169.8,148.9,170.7z M152.1,172.6
		l-1.3,0.8c-0.3-1.2-0.7-2.3-1.3-3.6l1.3-0.8C151.5,170.7,151.9,171.8,152.1,172.6z"/>
	<path class="st0" d="M158.4,158.7c-0.1,0.6-0.4,1.4-0.7,2.3l-0.4,1.4v11.9h-1.5v-8.5c-0.3,0.5-0.6,1-0.9,1.5l-0.8-1.7
		c1.3-2.1,2.3-4.5,2.9-7.2L158.4,158.7z M168.8,171.8h-6.5l0.7,0.9c-0.9,0.6-2.3,1.2-4.2,1.7l-0.8-1.3c1.7-0.5,2.9-0.9,3.7-1.3h-2.5
		V165h9.5V171.8z M169.8,160.2h-3.5v0.8h3.1v3.3h-10.7V161h3.2v-0.8h-3.3v-1.3h11.3V160.2z M161.9,163.1v-0.9h-1.6v0.9H161.9z
		 M167.3,166.9v-0.7H161v0.7H167.3z M167.3,168.8V168H161v0.8H167.3z M167.3,170.7v-0.8H161v0.8H167.3z M164.9,161v-0.8h-1.5v0.8
		H164.9z M164.9,163.1v-0.9h-1.5v0.9H164.9z M170,173.2l-0.8,1.2c-1.2-0.5-2.6-1-4.2-1.3l0.9-1.2C167.4,172.3,168.7,172.7,170,173.2
		z M167.9,163.1v-0.9h-1.5v0.9H167.9z"/>
</g>
<path class="st1" d="M182,269.4H90c-3.3,0-6-2.7-6-6v-75c0-3.3,2.7-6,6-6h92c3.3,0,6,2.7,6,6v75C188,266.7,185.3,269.4,182,269.4z"
	/>
<g>
	<g>
		<path class="st2" d="M106.9,224.4H96.2v-2.3h4V209l-4.1,1.1v-2.4l6.8-1.8v16.2h4V224.4z"/>
		<path class="st2" d="M110.4,221.6c1,0.6,2.1,0.9,3.3,0.9c1.6,0,2.8-0.6,3.7-1.8s1.3-2.9,1.3-5.1c0,0,0,0-0.1,0
			c-0.8,1.4-2.1,2.1-3.9,2.1c-1.5,0-2.8-0.5-3.8-1.6s-1.5-2.4-1.5-4c0-1.8,0.6-3.3,1.7-4.5s2.6-1.7,4.4-1.7c1.9,0,3.3,0.7,4.4,2.2
			s1.6,3.5,1.6,6.2c0,3.3-0.7,5.8-2,7.6s-3.2,2.8-5.6,2.8c-1.3,0-2.4-0.2-3.4-0.6V221.6z M112.2,211.8c0,1.1,0.3,2,0.9,2.7
			s1.4,1,2.4,1c0.9,0,1.6-0.3,2.2-0.9s0.9-1.4,0.9-2.2c0-1.2-0.3-2.2-0.9-3s-1.4-1.2-2.3-1.2c-0.9,0-1.7,0.4-2.2,1.1
			S112.2,210.8,112.2,211.8z"/>
		<path class="st2" d="M127.1,221.4l-2,6.3h-2.1l1.4-6.3H127.1z"/>
		<path class="st2" d="M133.7,214.9c-2.1-1-3.2-2.4-3.2-4.3c0-1.4,0.5-2.5,1.6-3.3s2.4-1.3,4-1.3c1.5,0,2.7,0.4,3.7,1.2
			s1.5,1.8,1.5,3.2c0,2-1.1,3.5-3.4,4.6v0c2.6,0.9,3.9,2.5,3.9,4.8c0,1.6-0.6,2.8-1.7,3.7s-2.7,1.3-4.6,1.3c-1.6,0-3-0.4-4-1.3
			s-1.6-2-1.6-3.5C129.9,217.6,131.2,216,133.7,214.9L133.7,214.9z M135.7,216.1c-2.1,0.8-3.2,2.1-3.2,3.7c0,0.8,0.3,1.5,0.9,2
			s1.4,0.8,2.4,0.8c0.9,0,1.7-0.3,2.3-0.8s0.9-1.2,0.9-2C139.1,218.2,138,216.9,135.7,216.1z M138.6,210.6c0-0.8-0.2-1.4-0.7-1.8
			s-1.1-0.7-1.9-0.7c-0.8,0-1.4,0.2-1.9,0.7s-0.8,1.1-0.8,1.7c0,1.4,0.9,2.5,2.7,3.2C137.7,213,138.6,212,138.6,210.6z"/>
		<path class="st2" d="M144,215.7c0-3.2,0.5-5.6,1.6-7.3s2.7-2.5,4.7-2.5c3.9,0,5.9,3.1,5.9,9.3c0,3-0.5,5.4-1.6,7s-2.6,2.5-4.7,2.5
			c-2,0-3.5-0.8-4.5-2.3S144,218.6,144,215.7z M146.8,215.6c0,4.6,1.1,6.9,3.4,6.9c2.2,0,3.3-2.4,3.3-7.1c0-4.8-1.1-7.3-3.2-7.3
			C148,208.2,146.8,210.6,146.8,215.6z"/>
		<path class="st2" d="M158.3,215.7c0-3.2,0.5-5.6,1.6-7.3s2.7-2.5,4.7-2.5c3.9,0,5.9,3.1,5.9,9.3c0,3-0.5,5.4-1.6,7
			s-2.6,2.5-4.7,2.5c-2,0-3.5-0.8-4.5-2.3S158.3,218.6,158.3,215.7z M161.1,215.6c0,4.6,1.1,6.9,3.4,6.9c2.2,0,3.3-2.4,3.3-7.1
			c0-4.8-1.1-7.3-3.2-7.3C162.3,208.2,161.1,210.6,161.1,215.6z"/>
	</g>
</g>
<g>
	<g>
		<path class="st0" d="M290.2,159.7c-0.1,0.5-0.3,1.3-0.5,2.2l-0.4,1.3v12.1h-1.5v-8.6c-0.4,0.6-0.7,1.1-0.9,1.5l-0.7-1.9
			c1.2-1.9,2.1-4.2,2.7-6.9L290.2,159.7z M302.1,174l-0.6,1.4c-2-0.2-3.8-0.6-5.5-1.2c-1.4,0.6-3.2,1-5.6,1.3l-0.6-1.3
			c1.8-0.1,3.3-0.4,4.5-0.7c-0.7-0.4-1.2-0.7-1.4-0.9c-0.8,0.5-1.4,0.8-1.9,1l-0.8-1.1c0.6-0.3,1.2-0.5,1.6-0.8
			c-0.2-0.2-0.4-0.3-0.5-0.4l1.1-0.8c0.1,0.1,0.4,0.3,0.6,0.5c0.4-0.3,0.8-0.6,1-0.9c-0.5-0.2-0.7-0.6-0.7-1.1v-1.3h1.4v1.1
			c0,0.3,0.1,0.4,0.4,0.4l1.8-0.1c0.1,0,0.2,0,0.3-0.1c0.1-0.1,0.2-0.3,0.3-0.7l1.2,0.6c-0.1,0.6-0.3,0.9-0.6,1.1
			c-0.3,0.2-1.1,0.3-2.3,0.3c-0.1,0.1-0.2,0.3-0.4,0.5h4.4v1.1c-0.6,0.6-1.3,1.1-2,1.6C298.9,173.7,300.3,173.9,302.1,174z
			 M301.8,161.1h-5.1c-0.1,0.2-0.1,0.5-0.3,0.7h3.8v4.4h1.4v2.3h-1.3c0.4,0.4,0.7,1,1,1.6l-1.1,0.7c-0.5-1-1.1-1.8-1.7-2.5l1-0.7
			c0.1,0.1,0.3,0.3,0.5,0.6v-0.9h-8.4v1.2c0.2-0.4,0.4-0.6,0.4-0.7l1.1,0.5c-0.4,0.8-1,1.6-1.7,2.4l-1-0.8c0.4-0.4,0.8-0.9,1.2-1.4
			h-1.5v-2.3h1.4v-4.4h3.1c0.1-0.3,0.2-0.5,0.3-0.7h-4.5v-1.2h11.3V161.1z M298.7,163.3v-0.6h-5.5v0.6H298.7z M298.7,164.7v-0.6
			h-5.5v0.6H298.7z M298.7,166.1v-0.6h-5.5v0.6H298.7z M297.8,171.8h-3.6c0.6,0.4,1.2,0.7,1.9,1C296.5,172.6,297,172.3,297.8,171.8z
			 M297.2,168l-0.5,0.9c-0.6-0.3-1.1-0.5-1.4-0.6l0.5-0.9C296.2,167.5,296.7,167.7,297.2,168z"/>
		<path class="st0" d="M320,170.4l-1.3,0.8c-0.3-0.3-0.6-0.7-1.1-1.2c-4,0.3-8.3,0.5-13,0.5l-0.3-1.4c2.8,0,5.1,0,7-0.1V168h-5.5
			v-5.2h5.5v-0.9h-7.1v-1.3h7.1v-0.9h1.5v0.9h7v1.3h-7v0.9h5.6v5.2h-1.1C318.3,168.8,319.2,169.6,320,170.4z M307.5,171.7
			c-0.5,1.3-1.2,2.4-1.9,3.2l-1.4-0.9c0.8-0.9,1.4-1.8,1.8-3L307.5,171.7z M311.3,164.8V164h-4v0.8H311.3z M311.3,166.8v-0.9h-4v0.9
			H311.3z M316.6,172.7c-0.1,0.9-0.2,1.5-0.5,1.9c-0.3,0.4-0.7,0.6-1.3,0.6h-5.1c-0.4,0-0.7-0.2-0.9-0.4s-0.3-0.6-0.3-0.9v-2.5h1.6
			v2c0,0.3,0.1,0.4,0.4,0.4l3.8,0c0.5,0,0.7-0.5,0.7-1.4L316.6,172.7z M314.2,172.3l-1.4,0.7c-0.5-0.7-1-1.2-1.4-1.6l1.4-0.8
			C313.4,171.2,313.9,171.7,314.2,172.3z M316.8,164.8V164h-4v0.8H316.8z M316.8,166.8v-0.9h-4v0.9H316.8z M316.8,168h-4v1.1
			c1.4,0,2.5-0.1,3.3-0.2c-0.2-0.2-0.3-0.3-0.5-0.4L316.8,168z M320,174.1l-1.4,0.7c-0.3-0.8-1-1.9-2.1-3.3l1.4-0.6
			C318.6,171.9,319.3,173,320,174.1z"/>
		<path class="st0" d="M336.5,173.8c0,0.5-0.1,0.8-0.4,1.1c-0.3,0.3-0.7,0.4-1.3,0.4c-0.6,0-1.2,0-1.7,0c-0.5,0-0.9,0-1.4,0
			l-0.6-1.6c1.1,0.1,2,0.1,2.6,0.1c0.5,0,0.8,0,0.9-0.1c0.1-0.1,0.2-0.2,0.2-0.4V170h-9c-0.3,2.1-1.2,3.9-2.6,5.4l-1.2-1.2
			c0.7-0.7,1.3-1.6,1.7-2.7c0.4-1.1,0.6-2.7,0.6-4.8V160h12.1V173.8z M334.9,164.1v-2.6H326v2.6H334.9z M334.9,168.5v-2.8H326v2.8
			H334.9z"/>
		<path class="st0" d="M347.1,169l-1,1.3c-0.6-1.1-1.1-1.8-1.5-2.3v7.3h-1.5v-7c-0.6,1.2-1.3,2.4-2,3.4l-0.9-1.6
			c1.2-1.3,2.1-2.9,2.9-4.6h-2.7V164h2.8v-2.3l-2.1,0.2l-0.7-1.5c2-0.2,3.9-0.5,5.6-1l0.8,1.4c-0.7,0.2-1.4,0.4-2.1,0.6v2.6h2.3v1.5
			h-2.3v0.3C345.7,167,346.5,168.1,347.1,169z M355.9,174.9h-9.8v-1.5h1.5V160h7.1v13.4h1.1V174.9z M353.2,164.3v-2.8h-3.9v2.8
			H353.2z M353.2,168.7v-3h-3.9v3H353.2z M353.2,173.4v-3.2h-3.9v3.2H353.2z"/>
	</g>
	<path class="st0" d="M373,269.4H267c-3.3,0-6-2.7-6-6v-75c0-3.3,2.7-6,6-6h106c3.3,0,6,2.7,6,6v75C379,266.7,376.3,269.4,373,269.4
		z"/>
	<g>
		<path class="st2" d="M298.5,227.9h-2.3v4.5h-2.6v-4.5h-8.3v-1.8l7.9-11.9h3v11.6h2.3V227.9z M293.6,225.8v-7.1c0-0.5,0-1.1,0-1.8
			h0c-0.2,0.5-0.4,1-0.7,1.4l-5,7.5H293.6z"/>
		<path class="st2" d="M311.9,232.4h-11.3v-2.3l5.3-5.2c1.2-1.1,2-2.1,2.6-3s0.8-1.7,0.8-2.7c0-2-1.1-3-3.2-3c-1.6,0-3.1,0.7-4.6,2
			v-2.6c1.5-1.1,3.2-1.6,5.1-1.6c1.7,0,3,0.4,4,1.3s1.5,2.1,1.5,3.6c0,1.1-0.3,2.2-0.9,3.3s-1.7,2.4-3.3,3.9l-4,3.8v0.1h8.1V232.4z"
			/>
		<path class="st2" d="M318.6,222.9c-2.1-1-3.2-2.4-3.2-4.3c0-1.4,0.5-2.5,1.6-3.3s2.4-1.3,4-1.3c1.5,0,2.7,0.4,3.7,1.2
			s1.5,1.8,1.5,3.2c0,2-1.1,3.5-3.4,4.6v0c2.6,0.9,3.9,2.5,3.9,4.8c0,1.6-0.6,2.8-1.7,3.7s-2.7,1.3-4.6,1.3c-1.6,0-3-0.4-4-1.3
			s-1.6-2-1.6-3.5C314.8,225.6,316.1,224,318.6,222.9L318.6,222.9z M320.6,224.1c-2.1,0.8-3.2,2.1-3.2,3.7c0,0.8,0.3,1.5,0.9,2
			s1.4,0.8,2.4,0.8c0.9,0,1.7-0.3,2.3-0.8s0.9-1.2,0.9-2C324,226.2,322.9,224.9,320.6,224.1z M323.5,218.6c0-0.8-0.2-1.4-0.7-1.8
			s-1.1-0.7-1.9-0.7c-0.8,0-1.4,0.2-1.9,0.7s-0.8,1.1-0.8,1.7c0,1.4,0.9,2.5,2.7,3.2C322.6,221,323.5,220,323.5,218.6z"/>
		<path class="st2" d="M338.7,214.3l-8.8,21.2h-2.5l8.7-21.2H338.7z"/>
		<path class="st2" d="M354,231.8c0,0.5-0.1,0.8-0.4,1.1c-0.3,0.3-0.7,0.4-1.3,0.4c-0.6,0-1.2,0-1.7,0c-0.5,0-0.9,0-1.4,0l-0.6-1.6
			c1.1,0.1,2,0.1,2.6,0.1c0.5,0,0.8,0,0.9-0.1c0.1-0.1,0.2-0.2,0.2-0.4V228h-9c-0.3,2.1-1.2,3.9-2.6,5.4l-1.2-1.2
			c0.7-0.7,1.3-1.6,1.7-2.7c0.4-1.1,0.6-2.7,0.6-4.8V218H354V231.8z M352.3,222.1v-2.6h-8.8v2.6H352.3z M352.3,226.5v-2.8h-8.8v2.8
			H352.3z"/>
	</g>
	<path class="st0" d="M236.4,223.6l-9-9c-2-2-5.4-0.6-5.4,2.3v18c0,2.8,3.4,4.3,5.4,2.3l9-9C237.7,226.9,237.7,224.8,236.4,223.6z"
		/>
</g>
<g class="st3">
	<g>
		<path class="st0" d="M41.1,30.3l-0.9,0.8c-0.3-0.6-0.5-1-0.6-1.3v8.2h-1.4v-7.4c-0.3,1.3-0.7,2.4-1.2,3.2l-0.7-1.8
			c0.7-1.3,1.2-2.8,1.6-4.5h-1.4v-1.4h1.7v-2.9h1.4v2.9h1.1v1.4h-1.1v0.3C40.3,28.8,40.8,29.6,41.1,30.3z M51.4,35.2
			c-0.3,2-0.9,2.9-1.8,2.9c-0.6,0-1.4-0.6-2.2-1.8c-1.4,0.9-2.5,1.4-3.3,1.7l-0.8-1.3c1.5-0.6,2.7-1.2,3.4-1.7
			c-0.3-0.7-0.6-1.5-0.8-2.5h-2.4l0,0.4c1,0.7,1.8,1.3,2.1,1.6l-0.9,1.2c-0.3-0.3-0.8-0.7-1.4-1.2c-0.4,1.5-1,2.7-1.9,3.6l-1.2-0.8
			c1.2-1.1,1.8-2.7,1.9-4.8h-1.4v-1.4h5c-0.2-1.9-0.4-4.6-0.5-8h1.4c0,3.1,0.2,5.7,0.5,8h1c0-0.2-0.1-0.3-0.3-0.5l1.6-0.3
			c0.1,0.2,0.3,0.5,0.5,0.8h1.5v1.4h-3.9c0.1,0.5,0.2,1,0.5,1.6c0.4-0.4,0.8-0.9,1.2-1.4l1.3,0.7c-0.6,0.8-1.2,1.5-1.8,2.1
			c0.5,0.7,0.8,1,1,1c0.3,0,0.5-0.7,0.6-2.1L51.4,35.2z M45.2,30.5l-1.1,0.3c0-0.4-0.1-0.7-0.2-0.9c-0.9,0.2-1.8,0.3-2.6,0.4
			l-0.4-1.2c0.3-0.4,0.8-1,1.4-1.8c-0.5,0-0.9,0.1-1.2,0.1L41,26.2c0.6-0.8,1.1-1.8,1.4-3l1.3,0.4c-0.5,1.1-0.9,1.9-1.2,2.4
			c0.2,0,0.5,0,0.8-0.1c0.1-0.2,0.3-0.6,0.6-1.1l1.1,0.6c-0.7,1.3-1.5,2.5-2.4,3.5c0.4,0,0.8-0.1,1.2-0.1c0-0.2-0.1-0.5-0.2-0.7
			l1-0.4C44.9,28.9,45.1,29.8,45.2,30.5z M51.2,30.4l-1,0.3L50,29.8c-1,0.1-1.9,0.2-2.6,0.3L47,29c0.3-0.3,0.8-0.9,1.4-1.7
			c-0.4,0.1-0.9,0.1-1.3,0.2l-0.2-1.2c0.6-0.8,1.1-1.8,1.5-3l1.3,0.5c-0.3,0.7-0.8,1.5-1.4,2.5c0.3,0,0.6-0.1,0.9-0.1
			c0.3-0.5,0.5-0.8,0.6-1.2l1.2,0.5c-0.6,1.1-1.4,2.3-2.4,3.5c0.2,0,0.6-0.1,1.1-0.1c0-0.2-0.1-0.4-0.2-0.6l1-0.3
			C50.9,28.7,51.1,29.6,51.2,30.4z"/>
		<path class="st0" d="M68.3,32.8l-0.7,1.4c-0.2,0-0.4-0.1-0.7-0.2v4h-1.5v-0.8H63V38h-1.5v-5.2h2.8c-1.2-0.7-2-1.5-2.5-2.2h-2
			c-0.7,0.9-1.7,1.6-2.8,2.2h3V38h-1.4v-0.8h-2.6V38h-1.4v-4c-0.2,0.1-0.4,0.1-0.6,0.2l-0.8-1.3c1.8-0.6,3.3-1.4,4.5-2.3h-4.2v-1.3
			h5.5c0.2-0.3,0.5-0.7,0.7-1.1l1.6,0.2c-0.1,0.3-0.3,0.6-0.5,0.9h3.6c-0.3-0.2-0.6-0.4-0.9-0.6l1.2-0.7c0.5,0.2,0.9,0.5,1.3,0.9
			l-0.7,0.4H68v1.3h-4.2C64.9,31.7,66.4,32.4,68.3,32.8z M59.9,27.9h-5.4v-4.4h5.4V27.9z M58.4,26.6v-1.8h-2.5v1.8H58.4z M58.6,35.9
			v-1.8h-2.6v1.8H58.6z M67.1,27.9h-5.6v-4.4h5.6V27.9z M65.7,26.6v-1.8H63v1.8H65.7z M65.5,35.9v-1.8H63v1.8H65.5z"/>
		<path class="st0" d="M85,25.1h-5.9c-0.1,0.4-0.3,0.9-0.5,1.3h5.2v6.4h-4v3.8c0,0.3-0.1,0.6-0.3,0.8c-0.2,0.2-0.4,0.4-0.7,0.4
			c-0.2,0.1-0.7,0.1-1.4,0.1c-0.3,0-0.6,0-0.9,0l-0.5-1.4c1.1,0,1.8,0,2-0.1c0.2-0.1,0.2-0.2,0.2-0.5v-3.2h-4.1v-6.4h2.8
			c0.2-0.4,0.4-0.8,0.5-1.3H73v5.4c0,3.2-0.5,5.7-1.6,7.6L70,37.2c1-1.7,1.4-4.1,1.4-7v-6.5H85L85,25.1z M77,33.9
			c-0.8,1.3-1.8,2.4-3.2,3.5l-1.2-1c1.5-1.2,2.5-2.2,3.1-3.3L77,33.9z M82.3,29v-1.2h-6.5V29H82.3z M82.3,31.5v-1.2h-6.5v1.2H82.3z
			 M85.2,36.5l-1.2,1c-0.8-1.2-1.7-2.3-3-3.4l1.2-0.9C83.3,34.2,84.3,35.3,85.2,36.5z"/>
		<path class="st0" d="M91.1,23.4c-0.1,0.6-0.3,1.3-0.6,2.2L90,26.8V38h-1.4v-8c-0.2,0.5-0.5,0.9-0.9,1.4l-0.8-1.6
			c1.2-1.9,2.1-4.2,2.7-6.7L91.1,23.4z M100.9,35.7h-6.1l0.7,0.9c-0.8,0.5-2.1,1.1-3.9,1.6l-0.7-1.2c1.5-0.4,2.7-0.8,3.5-1.2H92
			v-6.4h8.9V35.7z M101.8,24.8h-3.3v0.7h2.9v3.1h-10v-3.1h3v-0.7h-3.1v-1.2h10.6V24.8z M94.3,27.5v-0.9h-1.5v0.9H94.3z M99.4,31
			v-0.7h-5.9V31H99.4z M99.4,32.8V32h-5.9v0.8H99.4z M99.4,34.6v-0.8h-5.9v0.8H99.4z M97.1,25.5v-0.7h-1.4v0.7H97.1z M97.1,27.5
			v-0.9h-1.4v0.9H97.1z M101.9,37l-0.7,1.1c-1.1-0.5-2.4-0.9-3.9-1.3l0.8-1.1C99.5,36.1,100.8,36.5,101.9,37z M100,27.5v-0.9h-1.4
			v0.9H100z"/>
	</g>
	<g>
		<path class="st0" d="M197.4,37.6h-14.7V36h14.7V37.6z M196.7,25.2h-13.2v-1.5h13.2V25.2z M195.9,31.2h-11.7v-1.5h11.7V31.2z"/>
		<path class="st0" d="M214.3,34.5h-5.7V38H207v-3.5h-7.4V33h2.2v-4.3h5.1v-2.5h-3.8c-0.9,1.1-1.8,2.1-2.6,2.8l-1.1-1.1
			c1.6-1.4,2.9-3,3.9-4.8l1.5,0.3c-0.2,0.5-0.4,0.9-0.7,1.4h9.5v1.4h-5.2v2.5h4.8v1.4h-4.8V33h5.7V34.5z M207,33v-2.9h-3.6V33H207z"
			/>
		<path class="st0" d="M219.5,32.4c-0.5,2.4-1.1,4.3-1.8,5.9l-1.3-1c0.8-1.7,1.3-3.6,1.8-5.6L219.5,32.4z M219.8,29.5l-1,1.1
			c-0.6-0.8-1.4-1.5-2.3-2.1l1-1.1C218.2,27.9,219,28.6,219.8,29.5z M219.9,25.3l-1,1c-0.7-0.9-1.4-1.6-2.1-2.1l1-1.1
			C218.6,23.9,219.4,24.6,219.9,25.3z M231.1,25.3c-0.1,0.9-0.4,1.8-0.8,2.8l-1.4-0.3c0.2-0.7,0.4-1.2,0.4-1.3h-4.1v0.6l3.3-0.1
			l0,0.9l-3.4,0.1v0.2c0,0.2,0.1,0.3,0.4,0.3h4.8v1h-5.2c-0.9,0-1.3-0.4-1.3-1.1V28l-1.8,0v-0.9l1.8,0v-0.7h-2.2v4.7
			c0,2.8-0.5,5.2-1.6,7l-1.3-0.9c1-1.6,1.4-3.8,1.4-6.7v-5.2h4v-2h1.4v0.5h4.8v1h-4.8v0.5H231.1z M223.5,35.1c-0.3,1-0.8,2-1.4,3
			l-1-0.8c0.6-1,1-1.9,1.2-2.6L223.5,35.1z M230.3,34.2h-8v-4.1h8V34.2z M225.5,31.6V31h-1.8v0.6H225.5z M225.5,33.2v-0.6h-1.8v0.6
			H225.5z M229,36.2c0,0.5-0.2,0.8-0.3,1.1s-0.4,0.4-0.7,0.5c-0.3,0.1-0.8,0.1-1.8,0.1c-1,0-1.7-0.1-1.9-0.3
			c-0.3-0.2-0.4-0.5-0.4-0.9v-2h1.4v1.7c0,0.2,0.1,0.3,0.3,0.3l1.5,0c0.2,0,0.3-0.1,0.4-0.2c0.1-0.1,0.1-0.4,0.2-0.9L229,36.2z
			 M227.5,35.5l-1,0.6c-0.3-0.4-0.6-0.8-0.9-1.1l1-0.7C227,34.8,227.3,35.2,227.5,35.5z M228.9,31.6V31h-2v0.6H228.9z M228.9,33.2
			v-0.6h-2v0.6H228.9z M231.3,37.3l-1.2,0.6c-0.4-0.9-0.8-1.8-1.5-2.9l1.3-0.6C230.5,35.4,231,36.3,231.3,37.3z"/>
		<path class="st0" d="M240.3,26.4h-1.9v1.8h-1.5v-1.8h-3.5V25h3.5v-1.7h1.5V25h1.9V26.4z M237,30.8c-0.7,2.4-1.5,4.3-2.4,5.7
			l-1.2-0.9c0.9-1.4,1.6-3.2,2.2-5.3L237,30.8z M244.6,34.4c0,1-0.1,1.7-0.2,2.2c-0.1,0.5-0.4,0.8-0.7,1c-0.3,0.2-1.2,0.3-2.7,0.3
			c-0.7,0-1.3,0-1.9-0.1c-0.6,0-1-0.2-1.2-0.4c-0.2-0.2-0.4-0.6-0.4-1v-6.6h1.6V36c0,0.2,0.1,0.3,0.2,0.4c0.1,0.1,0.9,0.1,2.3,0.1
			c0.6,0,1,0,1,0s0.1-0.1,0.2-0.2c0.1-0.1,0.2-0.4,0.2-1c0-0.6,0.1-1.1,0.1-1.5L244.6,34.4z M243.9,30.9l-1.1,1.1
			c-1-1.2-2.2-2.3-3.4-3.2l1.1-1C241.8,28.7,242.9,29.8,243.9,30.9z M248.1,26.4h-3.5v1.8H243v-1.8h-1.9V25h1.9v-1.7h1.5V25h3.5
			V26.4z M248.2,35.8l-1.3,0.8c-0.5-1.6-1.3-3.2-2.4-5l1.2-0.9C246.8,32.7,247.7,34.4,248.2,35.8z"/>
		<path class="st0" d="M265,25.1h-5.9c-0.1,0.4-0.3,0.9-0.5,1.3h5.2v6.4h-4v3.8c0,0.3-0.1,0.6-0.3,0.8c-0.2,0.2-0.4,0.4-0.7,0.4
			c-0.2,0.1-0.7,0.1-1.4,0.1c-0.3,0-0.6,0-0.9,0l-0.5-1.4c1.1,0,1.8,0,2-0.1c0.2-0.1,0.2-0.2,0.2-0.5v-3.2h-4.1v-6.4h2.8
			c0.2-0.4,0.4-0.8,0.5-1.3h-4.6v5.4c0,3.2-0.5,5.7-1.6,7.6l-1.3-0.9c1-1.7,1.4-4.1,1.4-7v-6.5h13.5L265,25.1z M256.9,33.9
			c-0.8,1.3-1.8,2.4-3.2,3.5l-1.2-1c1.5-1.2,2.5-2.2,3.1-3.3L256.9,33.9z M262.2,29v-1.2h-6.5V29H262.2z M262.2,31.5v-1.2h-6.5v1.2
			H262.2z M265.1,36.5l-1.2,1c-0.8-1.2-1.7-2.3-3-3.4l1.2-0.9C263.3,34.2,264.3,35.3,265.1,36.5z"/>
		<path class="st0" d="M271,23.4c-0.1,0.6-0.3,1.3-0.6,2.2l-0.4,1.3V38h-1.4v-8c-0.2,0.5-0.5,0.9-0.9,1.4l-0.8-1.6
			c1.2-1.9,2.1-4.2,2.7-6.7L271,23.4z M280.8,35.7h-6.1l0.7,0.9c-0.8,0.5-2.1,1.1-3.9,1.6l-0.7-1.2c1.5-0.4,2.7-0.8,3.5-1.2h-2.3
			v-6.4h8.9V35.7z M281.8,24.8h-3.3v0.7h2.9v3.1h-10v-3.1h3v-0.7h-3.1v-1.2h10.6V24.8z M274.3,27.5v-0.9h-1.5v0.9H274.3z M279.3,31
			v-0.7h-5.9V31H279.3z M279.3,32.8V32h-5.9v0.8H279.3z M279.3,34.6v-0.8h-5.9v0.8H279.3z M277.1,25.5v-0.7h-1.4v0.7H277.1z
			 M277.1,27.5v-0.9h-1.4v0.9H277.1z M281.9,37l-0.7,1.1c-1.1-0.5-2.4-0.9-3.9-1.3l0.8-1.1C279.5,36.1,280.7,36.5,281.9,37z
			 M279.9,27.5v-0.9h-1.4v0.9H279.9z"/>
	</g>
	<g>
		<path class="st0" d="M376.7,36.3l-0.5,1.4c-0.7,0-1.6,0-2.4,0c-2.9,0-4.9-0.1-5.8-0.2c-0.9-0.1-1.8-0.4-2.5-0.8
			c-0.7-0.4-1.3-1-1.9-1.9c-0.2,1.3-0.4,2.3-0.7,3.2l-1.3-0.9c0.6-1.6,0.9-3.8,0.8-6.6h1.4l0,2.1c0,0,0.1,0.2,0.2,0.5
			s0.3,0.6,0.6,0.9v-4.3h-2.8v-1.4h2.8v-1.9h-2.4v-1.4h2.4v-1.8h1.4v1.8h2.2v1.4H366v1.9h2.5v1.4H366v1.9h2.2v1.4H366v2.6
			c1,0.6,2.3,0.9,4,0.9C372.5,36.4,374.7,36.4,376.7,36.3z M376,23.6c0,2.7-0.1,4.4-0.4,4.9c-0.3,0.6-0.9,0.8-1.8,0.8
			c-0.3,0-0.6,0-1.1,0l-0.5-1.4c0.2,0,0.5,0,0.8,0c0.6,0,1,0,1.1-0.1s0.2-0.3,0.3-0.8c0.1-0.4,0.1-1.2,0.1-2.1h-2.1
			c-0.1,2-1,3.7-2.7,4.9l-1-1.1c1.4-1,2.2-2.2,2.2-3.8h-2v-1.3H376z M375.9,35.3h-6.4v-5h6.4V35.3z M374.3,33.9v-2.2H371v2.2H374.3z
			"/>
		<path class="st0" d="M382.8,23.5c-0.1,0.5-0.3,1.2-0.6,2l-0.4,1.2v11.2h-1.5v-8c-0.2,0.4-0.5,0.9-1,1.5l-0.8-1.5
			c1.2-1.7,2.1-4,2.9-6.8L382.8,23.5z M393.4,37.7h-10.8v-1.3h1.1v-9.4h2.9c0.1-0.5,0.3-0.9,0.3-1.2h-4v-1.3h4.3
			c0.2-0.7,0.3-1.1,0.3-1.3l1.6,0.2c0,0.3-0.1,0.7-0.3,1.1h4.2v1.3h-4.6c-0.1,0.3-0.2,0.7-0.3,1.2h3.9v9.4h1.2V37.7z M390.7,29.3
			v-1.1h-5.4v1.1H390.7z M390.7,31.6v-1.2h-5.5v1.2H390.7z M390.7,34v-1.2h-5.5V34H390.7z M390.7,36.4v-1.2h-5.5v1.2H390.7z"/>
		<path class="st0" d="M410.2,30.6h-3.5V38h-1.5v-7.4h-4.2c-0.1,3-1.6,5.5-4.5,7.5l-1.1-1.2c1.3-0.8,2.3-1.7,2.9-2.7
			c0.6-1,1-2.2,1.1-3.6h-3.9v-1.5h3.9c0-0.7,0.1-1.4,0.1-2c0-0.4,0-0.7,0-1.1c-1.4,0.4-2.4,0.6-3,0.8l-0.7-1.4
			c2.9-0.6,5.1-1.3,6.8-2.3l1.1,1.1c-0.9,0.5-1.8,0.9-2.7,1.3c0,0.5,0,1,0,1.5c0,0.6,0,1.3,0,2.1h4.1v-5.8h1.5v5.8h3.5V30.6z"/>
		<path class="st0" d="M418.8,25.7c-1.5,2.6-2.9,4.6-4.3,6c0.9-0.1,1.7-0.3,2.4-0.6c0-0.2-0.1-0.5-0.3-0.9l1.1-0.5
			c0.4,0.7,0.7,1.7,1,2.9l-1.2,0.5c-0.1-0.4-0.1-0.7-0.2-0.8c-1.9,0.5-3.4,0.8-4.5,0.9l-0.4-1.3c1-0.7,2-1.9,3.1-3.5
			c-0.7,0.2-1.6,0.3-2.7,0.5l-0.2-1.3c1.1-1.5,2-3.1,2.6-4.7l1.4,0.4c-0.6,1.5-1.4,2.8-2.2,3.9c0.6-0.1,1.3-0.2,2-0.4
			c0.3-0.5,0.6-1.1,1-1.9L418.8,25.7z M414.4,34.1c-0.1,1.3-0.4,2.6-0.8,3.9l-1.3-0.6c0.4-1.4,0.7-2.6,0.7-3.7L414.4,34.1z
			 M416.2,37.1l-1.3,0.2c0-0.2,0-0.5,0-0.8c0-0.7-0.1-1.6-0.2-2.6l1.2-0.2C416.1,34.7,416.2,35.8,416.2,37.1z M418,35.8l-1.1,0.4
			c-0.1-0.9-0.3-1.7-0.5-2.4l1.1-0.2C417.8,34.3,417.9,35,418,35.8z M427.2,36.8l-1,1.2c-1.1-0.7-1.9-1.5-2.6-2.2
			c-0.9,0.9-1.9,1.6-2.9,2.2l-1.1-1.2c1.2-0.6,2.3-1.4,3.1-2.2c-0.8-1.3-1.3-2.9-1.6-4.6c-0.4,3.5-1.2,6.2-2.4,8l-1.2-0.9
			c1.6-2.6,2.4-6.6,2.3-12.1h-1.1v-1.4h7.5c-0.3,1.7-0.5,3.2-0.9,4.6h1.5c-0.2,2.7-1,4.8-2.1,6.5C425.4,35.5,426.2,36.2,427.2,36.8z
			 M424.5,25.1h-3.1c0,1,0,2-0.1,3.2h2.5C424.1,27.2,424.3,26.2,424.5,25.1z M425.2,29.7h-2.6c0.2,1.4,0.6,2.6,1.2,3.8
			C424.5,32.4,424.9,31.2,425.2,29.7z"/>
	</g>
	<path class="st1" d="M304,124.3h-138c-3.3,0-6-2.7-6-6V48.8c0-3.3,2.7-6,6-6h138c3.3,0,6,2.7,6,6v69.5
		C310,121.6,307.3,124.3,304,124.3z"/>
	<path class="st1" d="M115.6,124.3H32c-3.3,0-6-2.7-6-6V48.8c0-3.3,2.7-6,6-6h83.6c3.3,0,6,2.7,6,6v69.5
		C121.6,121.6,118.9,124.3,115.6,124.3z"/>
	<g>
		<path class="st2" d="M45.7,83.5c-2-0.9-3-2.2-3-4c0-1.3,0.5-2.3,1.5-3.1c1-0.8,2.2-1.2,3.7-1.2c1.4,0,2.5,0.4,3.5,1.1
			s1.4,1.7,1.4,3c0,1.9-1.1,3.3-3.2,4.3v0c2.5,0.9,3.7,2.4,3.7,4.5c0,1.5-0.5,2.6-1.6,3.5s-2.5,1.2-4.3,1.2c-1.5,0-2.8-0.4-3.8-1.2
			s-1.5-1.9-1.5-3.3C42.1,86.1,43.3,84.5,45.7,83.5L45.7,83.5z M47.6,84.7c-2,0.8-3,1.9-3,3.4c0,0.8,0.3,1.4,0.9,1.9
			s1.3,0.7,2.2,0.7c0.9,0,1.6-0.2,2.2-0.7c0.6-0.5,0.9-1.1,0.9-1.9C50.8,86.6,49.7,85.4,47.6,84.7z M50.3,79.5
			c0-0.7-0.2-1.3-0.7-1.7c-0.5-0.4-1.1-0.6-1.8-0.6c-0.7,0-1.3,0.2-1.8,0.7c-0.5,0.4-0.7,1-0.7,1.6c0,1.3,0.8,2.3,2.5,3
			C49.4,81.8,50.3,80.8,50.3,79.5z"/>
		<path class="st2" d="M58.7,89.6l-1.8,5.9h-1.9l1.3-5.9H58.7z"/>
		<path class="st2" d="M62.1,89.8c0.9,0.6,2,0.8,3.1,0.8c1.5,0,2.6-0.6,3.4-1.7s1.2-2.7,1.2-4.7c0,0,0,0-0.1,0c-0.7,1.3-2,2-3.7,2
			c-1.4,0-2.6-0.5-3.5-1.5c-0.9-1-1.4-2.3-1.4-3.8c0-1.7,0.5-3.1,1.6-4.2c1-1.1,2.4-1.6,4.1-1.6c1.8,0,3.1,0.7,4.1,2
			s1.5,3.3,1.5,5.8c0,3-0.6,5.4-1.8,7.2s-3,2.6-5.3,2.6c-1.2,0-2.3-0.2-3.2-0.6V89.8z M63.8,80.7c0,1.1,0.3,1.9,0.8,2.5
			s1.3,0.9,2.2,0.9c0.8,0,1.5-0.3,2.1-0.9c0.6-0.6,0.8-1.3,0.8-2.1c0-1.1-0.3-2-0.8-2.8s-1.3-1.2-2.2-1.2c-0.9,0-1.6,0.3-2.1,1
			C64,78.9,63.8,79.7,63.8,80.7z"/>
		<path class="st2" d="M74.5,84.3c0-3,0.5-5.3,1.5-6.8c1-1.5,2.5-2.3,4.4-2.3c3.7,0,5.5,2.9,5.5,8.7c0,2.8-0.5,5-1.5,6.6
			c-1,1.5-2.5,2.3-4.4,2.3c-1.9,0-3.3-0.7-4.2-2.2C75,89.1,74.5,87,74.5,84.3z M77.1,84.2c0,4.3,1.1,6.5,3.2,6.5
			c2.1,0,3.1-2.2,3.1-6.6c0-4.5-1-6.8-3-6.8C78.2,77.2,77.1,79.5,77.1,84.2z"/>
		<path class="st2" d="M87.9,84.3c0-3,0.5-5.3,1.5-6.8c1-1.5,2.5-2.3,4.4-2.3c3.7,0,5.5,2.9,5.5,8.7c0,2.8-0.5,5-1.5,6.6
			c-1,1.5-2.5,2.3-4.4,2.3c-1.9,0-3.3-0.7-4.2-2.2C88.4,89.1,87.9,87,87.9,84.3z M90.5,84.2c0,4.3,1.1,6.5,3.2,6.5
			c2.1,0,3.1-2.2,3.1-6.6c0-4.5-1-6.8-3-6.8C91.6,77.2,90.5,79.5,90.5,84.2z"/>
	</g>
	<g>
		<path class="st2" d="M189.6,76.5h-10.6v-2.2l4.9-4.9c1.1-1.1,1.9-2,2.4-2.8c0.5-0.8,0.8-1.6,0.8-2.6c0-1.9-1-2.8-3-2.8
			c-1.5,0-2.9,0.6-4.3,1.9v-2.5c1.4-1,3-1.5,4.8-1.5c1.6,0,2.8,0.4,3.7,1.2c0.9,0.8,1.4,2,1.4,3.4c0,1-0.3,2.1-0.9,3.1
			c-0.6,1-1.6,2.2-3.1,3.7l-3.8,3.6v0.1h7.6V76.5z"/>
		<path class="st2" d="M195.5,73.7l-1.8,5.9h-1.9l1.3-5.9H195.5z"/>
		<path class="st2" d="M198.9,73.6c1.2,0.7,2.4,1.1,3.6,1.1c1.1,0,2-0.3,2.7-0.9s1-1.4,1-2.4c0-2.1-1.4-3.2-4.1-3.2
			c-0.6,0-1.5,0.1-2.7,0.2v-8.9h8.6v2.2h-6.3v4.4c0.6,0,1.1-0.1,1.4-0.1c1.7,0,3.1,0.5,4.1,1.4s1.5,2.2,1.5,3.8
			c0,1.7-0.6,3.1-1.7,4.1c-1.1,1-2.6,1.5-4.5,1.5c-1.6,0-2.9-0.2-3.7-0.7V73.6z"/>
		<path class="st2" d="M211.3,68.3c0-3,0.5-5.3,1.5-6.8s2.5-2.3,4.4-2.3c3.7,0,5.5,2.9,5.5,8.7c0,2.8-0.5,5-1.5,6.6
			s-2.5,2.3-4.4,2.3c-1.9,0-3.3-0.7-4.2-2.2C211.8,73.2,211.3,71.1,211.3,68.3z M214,68.2c0,4.3,1.1,6.5,3.2,6.5
			c2.1,0,3.1-2.2,3.1-6.6c0-4.5-1-6.8-3-6.8C215,61.3,214,63.6,214,68.2z"/>
		<path class="st2" d="M224.7,68.3c0-3,0.5-5.3,1.5-6.8s2.5-2.3,4.4-2.3c3.7,0,5.5,2.9,5.5,8.7c0,2.8-0.5,5-1.5,6.6
			c-1,1.5-2.5,2.3-4.4,2.3c-1.9,0-3.3-0.7-4.2-2.2C225.2,73.2,224.7,71.1,224.7,68.3z M227.4,68.2c0,4.3,1.1,6.5,3.2,6.5
			c2.1,0,3.1-2.2,3.1-6.6c0-4.5-1-6.8-3-6.8C228.4,61.3,227.4,63.6,227.4,68.2z"/>
	</g>
	<g>
		<path class="st2" d="M206,99.7h-11.3v-1.9H206V99.7z M206,104.8h-11.3V103H206V104.8z"/>
		<path class="st2" d="M226.7,92.4l-6.5,16h-2.7l6.3-14.8h-8.3v-2.2h11.3V92.4z"/>
		<path class="st2" d="M232,105.6l-1.8,5.9h-1.9l1.3-5.9H232z"/>
		<path class="st2" d="M235.4,105.5c1.2,0.7,2.4,1.1,3.6,1.1c1.1,0,2-0.3,2.7-0.9c0.7-0.6,1-1.4,1-2.4c0-2.1-1.4-3.2-4.1-3.2
			c-0.6,0-1.5,0.1-2.7,0.2v-8.9h8.6v2.2h-6.3V98c0.6,0,1.1-0.1,1.4-0.1c1.7,0,3.1,0.5,4.1,1.4c1,0.9,1.5,2.2,1.5,3.8
			c0,1.7-0.6,3.1-1.7,4.1c-1.1,1-2.6,1.5-4.5,1.5c-1.6,0-2.9-0.2-3.7-0.7V105.5z"/>
		<path class="st2" d="M247.8,100.2c0-3,0.5-5.3,1.5-6.8c1-1.5,2.5-2.3,4.4-2.3c3.7,0,5.5,2.9,5.5,8.7c0,2.8-0.5,5-1.5,6.6
			c-1,1.5-2.5,2.3-4.4,2.3c-1.9,0-3.3-0.7-4.2-2.2S247.8,102.9,247.8,100.2z M250.5,100.1c0,4.3,1.1,6.5,3.2,6.5
			c2.1,0,3.1-2.2,3.1-6.6c0-4.5-1-6.8-3-6.8C251.5,93.1,250.5,95.5,250.5,100.1z"/>
		<path class="st2" d="M261.2,100.2c0-3,0.5-5.3,1.5-6.8c1-1.5,2.5-2.3,4.4-2.3c3.7,0,5.5,2.9,5.5,8.7c0,2.8-0.5,5-1.5,6.6
			c-1,1.5-2.5,2.3-4.4,2.3c-1.9,0-3.3-0.7-4.2-2.2S261.2,102.9,261.2,100.2z M263.9,100.1c0,4.3,1.1,6.5,3.2,6.5
			c2.1,0,3.1-2.2,3.1-6.6c0-4.5-1-6.8-3-6.8C264.9,93.1,263.9,95.5,263.9,100.1z"/>
	</g>
	<g>
		<path class="st2" d="M257,64.4l-4.1,6.1l4,6.1h-3l-2.2-3.7c-0.2-0.4-0.4-0.7-0.5-1h-0.1c-0.1,0.2-0.2,0.5-0.5,1l-2.2,3.7h-3l4.1-6
			l-3.9-6.2h3l2.1,3.9c0.1,0.2,0.3,0.6,0.5,1h0c0.2-0.4,0.4-0.8,0.5-1l2.3-3.9H257z"/>
		<path class="st2" d="M264.5,73.4c1.2,0.9,2.5,1.3,4,1.3c1.1,0,2-0.3,2.6-0.8c0.7-0.5,1-1.3,1-2.2c0-2-1.5-3-4.4-3h-1.4v-2.1h1.4
			c2.6,0,3.9-0.9,3.9-2.8c0-1.7-1-2.6-3-2.6c-1.2,0-2.3,0.4-3.4,1.2v-2.3c1.1-0.6,2.4-1,4-1c1.5,0,2.7,0.4,3.6,1.1s1.4,1.7,1.4,3
			c0,2.2-1.1,3.7-3.4,4.3v0c1.2,0.1,2.2,0.5,2.9,1.3c0.7,0.7,1.1,1.7,1.1,2.7c0,1.6-0.6,2.8-1.7,3.7s-2.6,1.4-4.5,1.4
			c-1.7,0-3-0.3-4-0.9V73.4z"/>
		<path class="st2" d="M292.1,73.9h-5.7v3.5h-1.6v-3.5h-7.4v-1.5h2.2v-4.3h5.1v-2.5H281c-0.9,1.1-1.8,2.1-2.6,2.8l-1.1-1.1
			c1.6-1.4,2.9-3,3.9-4.8l1.5,0.3c-0.2,0.5-0.4,0.9-0.7,1.4h9.5v1.4h-5.2v2.5h4.8v1.4h-4.8v2.9h5.7V73.9z M284.8,72.4v-2.9h-3.6v2.9
			H284.8z"/>
	</g>
	<polygon class="st0" points="152.6,80.6 143.8,80.6 143.8,71.8 137.9,71.8 137.9,80.6 129.1,80.6 129.1,86.5 137.9,86.5 
		137.9,95.2 143.8,95.2 143.8,86.5 152.6,86.5 	"/>
	<path class="st1" d="M439,124.3h-83.6c-3.3,0-6-2.7-6-6V48.8c0-3.3,2.7-6,6-6H439c3.3,0,6,2.7,6,6v69.5
		C445,121.6,442.3,124.3,439,124.3z"/>
	<g>
		<path class="st2" d="M366,89.3c1.2,0.9,2.5,1.3,4,1.3c1.1,0,2-0.3,2.6-0.8c0.7-0.5,1-1.3,1-2.2c0-2-1.5-3-4.4-3h-1.4v-2.1h1.4
			c2.6,0,3.9-0.9,3.9-2.8c0-1.7-1-2.6-3-2.6c-1.2,0-2.3,0.4-3.4,1.2v-2.3c1.1-0.6,2.4-1,4-1c1.5,0,2.7,0.4,3.6,1.1
			c0.9,0.7,1.4,1.7,1.4,3c0,2.2-1.1,3.7-3.4,4.3v0c1.2,0.1,2.2,0.5,2.9,1.3c0.7,0.7,1.1,1.7,1.1,2.7c0,1.6-0.6,2.8-1.7,3.7
			c-1.1,0.9-2.6,1.4-4.5,1.4c-1.7,0-3-0.3-4-0.9V89.3z"/>
		<path class="st2" d="M382,89.6l-1.8,5.9h-1.9l1.3-5.9H382z"/>
		<path class="st2" d="M396.1,88.2H394v4.2h-2.4v-4.2h-7.8v-1.7l7.4-11.1h2.8v10.9h2.1V88.2z M391.6,86.3v-6.7c0-0.5,0-1.1,0-1.7h0
			c-0.2,0.5-0.4,0.9-0.6,1.3l-4.7,7.1H391.6z"/>
		<path class="st2" d="M397.8,84.3c0-3,0.5-5.3,1.5-6.8c1-1.5,2.5-2.3,4.4-2.3c3.7,0,5.5,2.9,5.5,8.7c0,2.8-0.5,5-1.5,6.6
			c-1,1.5-2.5,2.3-4.4,2.3c-1.9,0-3.3-0.7-4.2-2.2C398.3,89.1,397.8,87,397.8,84.3z M400.5,84.2c0,4.3,1.1,6.5,3.2,6.5
			c2.1,0,3.1-2.2,3.1-6.6c0-4.5-1-6.8-3-6.8C401.5,77.2,400.5,79.5,400.5,84.2z"/>
		<path class="st2" d="M411.2,84.3c0-3,0.5-5.3,1.5-6.8c1-1.5,2.5-2.3,4.4-2.3c3.7,0,5.5,2.9,5.5,8.7c0,2.8-0.5,5-1.5,6.6
			c-1,1.5-2.5,2.3-4.4,2.3c-1.9,0-3.3-0.7-4.2-2.2C411.7,89.1,411.2,87,411.2,84.3z M413.9,84.2c0,4.3,1.1,6.5,3.2,6.5
			c2.1,0,3.1-2.2,3.1-6.6c0-4.5-1-6.8-3-6.8C414.9,77.2,413.9,79.5,413.9,84.2z"/>
	</g>
	<polygon class="st0" points="318.4,80.6 327.2,80.6 327.2,71.8 333.1,71.8 333.1,80.6 341.9,80.6 341.9,86.5 333.1,86.5 
		333.1,95.2 327.2,95.2 327.2,86.5 318.4,86.5 	"/>
</g>
<rect x="12" y="137" class="st0" width="447" height="3"/>
<g>
	<path class="st2" d="M106.4,256.5c-2-2.2-3-5-3-8.3c0-3.2,1-6,3-8.4h1.8c-2,2.4-2.9,5.3-2.9,8.4c0,3.1,1,5.9,2.9,8.3H106.4z"/>
	<path class="st2" d="M109.9,251.1c0.9,0.6,1.9,0.9,2.9,0.9c0.9,0,1.6-0.2,2.1-0.7s0.8-1.1,0.8-2c0-1.7-1.1-2.5-3.3-2.5
		c-0.5,0-1.2,0-2.2,0.1v-7.1h6.9v1.8h-5.1v3.5c0.5,0,0.9,0,1.2,0c1.4,0,2.5,0.4,3.3,1.1s1.2,1.7,1.2,3c0,1.4-0.5,2.5-1.4,3.3
		s-2.1,1.2-3.6,1.2c-1.3,0-2.3-0.2-3-0.6V251.1z"/>
	<path class="st2" d="M120.6,251.1c0.9,0.6,1.9,0.9,2.9,0.9c0.9,0,1.6-0.2,2.1-0.7s0.8-1.1,0.8-2c0-1.7-1.1-2.5-3.3-2.5
		c-0.5,0-1.2,0-2.2,0.1v-7.1h6.9v1.8h-5.1v3.5c0.5,0,0.9,0,1.2,0c1.4,0,2.5,0.4,3.3,1.1s1.2,1.7,1.2,3c0,1.4-0.5,2.5-1.4,3.3
		s-2.1,1.2-3.6,1.2c-1.3,0-2.3-0.2-3-0.6V251.1z"/>
	<path class="st2" d="M130.5,246.9c0-2.4,0.4-4.2,1.2-5.4s2-1.9,3.6-1.9c3,0,4.4,2.3,4.4,7c0,2.3-0.4,4-1.2,5.3s-2,1.8-3.5,1.8
		c-1.5,0-2.6-0.6-3.4-1.7S130.5,249.1,130.5,246.9z M132.6,246.8c0,3.5,0.8,5.2,2.5,5.2c1.7,0,2.5-1.8,2.5-5.3
		c0-3.6-0.8-5.4-2.4-5.4C133.5,241.2,132.6,243.1,132.6,246.8z"/>
	<path class="st2" d="M148.6,239.8l-6.6,15.9h-1.9l6.5-15.9H148.6z"/>
	<path class="st2" d="M163.9,252.8c0,0.5-0.1,0.8-0.4,1.1c-0.3,0.3-0.7,0.4-1.3,0.4c-0.6,0-1.2,0-1.7,0c-0.5,0-0.9,0-1.4,0l-0.6-1.6
		c1.1,0.1,2,0.1,2.6,0.1c0.5,0,0.8,0,0.9-0.1c0.1-0.1,0.2-0.2,0.2-0.4V249h-9c-0.3,2.1-1.2,3.9-2.6,5.4l-1.2-1.2
		c0.7-0.7,1.3-1.6,1.7-2.7c0.4-1.1,0.6-2.7,0.6-4.8V239h12.1V252.8z M162.3,243.1v-2.6h-8.8v2.6H162.3z M162.3,247.5v-2.8h-8.8v2.8
		H162.3z"/>
	<path class="st2" d="M166.6,256.5c2-2.4,2.9-5.2,2.9-8.3c0-3.1-1-5.9-3-8.4h1.8c2,2.4,3,5.2,3,8.4c0,3.3-1,6-3,8.3H166.6z"/>
</g>
<path class="st0" d="M132.4,151.4l9-9c2-2,0.6-5.4-2.3-5.4h-18c-2.8,0-4.3,3.4-2.3,5.4l9,9C129.2,152.7,131.2,152.7,132.4,151.4z"/>
<rect x="12" y="123" class="st0" width="3" height="17"/>
<rect x="456" y="123" class="st0" width="3" height="17"/>
</svg>
