<?xml version="1.0" encoding="utf-8"?>
<!-- Generator: Adobe Illustrator 22.1.0, SVG Export Plug-In . SVG Version: 6.00 Build 0)  -->
<svg version="1.1" id="圖層_1" xmlns="http://www.w3.org/2000/svg" xmlns:xlink="http://www.w3.org/1999/xlink" x="0px" y="0px"
	 viewBox="0 0 471 310" style="enable-background:new 0 0 471 310;" xml:space="preserve">
<style type="text/css">
	.st0{opacity:0.65;fill:#0D9890;enable-background:new    ;}
	.st1{enable-background:new    ;}
	.st2{fill:#0D9890;}
	.st3{fill:#FFFFFF;}
	.st4{fill:#12928A;}
</style>
<g>
	<g class="st1">
		<path class="st2" d="M42.5,120.9h-6.5c0,0.7-0.1,1.3-0.1,1.8h5.4c-0.1,1.5-0.2,2.7-0.3,3.7c-0.1,1-0.2,1.6-0.4,1.8
			c-0.1,0.2-0.3,0.4-0.6,0.5c-0.3,0.1-0.7,0.2-1.4,0.2c-0.4,0-0.9,0-1.4-0.1l-0.3-1.1c0.6,0,1.2,0.1,1.7,0.1c0.5,0,0.8-0.1,0.9-0.2
			s0.2-0.4,0.3-1s0.2-1.6,0.2-2.9h-4.3c-0.3,2.1-1.5,3.8-3.6,5.2l-0.7-1c0.7-0.4,1.3-0.9,1.9-1.6c0.6-0.6,0.9-1.4,1.1-2.2
			c0.2-0.8,0.3-1.9,0.3-3.4h-3.1v-1.1h4.9c-0.3-0.5-0.6-1-0.9-1.5l1.2-0.4c0.4,0.7,0.8,1.4,1,1.9h4.6V120.9z"/>
		<path class="st2" d="M55,125.9h-4.9v3H49v-3h-4.9v-1H49v-0.8h1.1v0.8H55V125.9z M48.3,126.9c-1,0.8-2.2,1.4-3.6,1.9l-0.6-0.9
			c1.2-0.4,2.3-0.9,3.3-1.6L48.3,126.9z M54.8,121.6h-3c-0.3,0.5-0.7,0.9-1,1.1c1.3,0.3,2.5,0.7,3.6,1.1l-0.5,0.8
			c-1.1-0.5-2.4-0.9-4-1.3c-1.3,0.7-3.1,1.1-5.3,1.2l-0.3-1c1.6,0,3-0.2,4.2-0.6c-0.8-0.2-1.7-0.3-2.7-0.5c0.3-0.3,0.6-0.6,1-1h-2.5
			v-0.9h3.3c0.2-0.3,0.4-0.5,0.6-0.8l1,0.3c-0.1,0.1-0.2,0.3-0.4,0.5h2.3l0.3-0.5l1.1,0.2c0,0.1-0.1,0.2-0.2,0.3h2.4V121.6z
			 M54.5,120.3h-1.1v-0.7h-7.9v0.7h-1.1v-1.6H49c-0.1-0.2-0.2-0.4-0.3-0.5l1-0.3l0.5,0.8h4.3V120.3z M50.5,121.6h-2.4
			c-0.2,0.2-0.3,0.3-0.4,0.5c0.8,0.2,1.5,0.3,1.9,0.4C50.1,122.1,50.4,121.8,50.5,121.6z M55,127.9l-0.6,0.9
			c-1.2-0.7-2.4-1.2-3.7-1.6l0.6-0.9C52.8,126.7,54,127.3,55,127.9z"/>
		<path class="st2" d="M67.5,119.4h-4.3c-0.1,0.3-0.2,0.6-0.4,1h3.8v4.7h-3v2.8c0,0.2-0.1,0.4-0.2,0.6c-0.1,0.2-0.3,0.3-0.5,0.3
			c-0.2,0.1-0.5,0.1-1,0.1c-0.2,0-0.4,0-0.7,0l-0.3-1c0.9,0,1.3,0,1.4-0.1c0.1,0,0.2-0.2,0.2-0.3v-2.4h-3v-4.7h2.1
			c0.1-0.3,0.3-0.6,0.4-1h-3.4v4c0,2.4-0.4,4.2-1.2,5.6l-1-0.7c0.7-1.3,1.1-3,1.1-5.2v-4.8h10L67.5,119.4z M61.6,125.9
			c-0.6,0.9-1.3,1.8-2.4,2.6l-0.9-0.7c1.1-0.9,1.9-1.7,2.3-2.4L61.6,125.9z M65.5,122.2v-0.9h-4.8v0.9H65.5z M65.5,124.1v-0.9h-4.8
			v0.9H65.5z M67.6,127.8l-0.9,0.7c-0.6-0.9-1.3-1.7-2.2-2.5l0.9-0.6C66.3,126.1,67,126.9,67.6,127.8z"/>
		<path class="st2" d="M72,118.1c-0.1,0.4-0.2,1-0.5,1.6l-0.3,0.9v8.3h-1.1V123c-0.2,0.3-0.4,0.7-0.6,1l-0.6-1.2
			c0.9-1.4,1.6-3.1,2-5L72,118.1z M79.2,127.2h-4.5l0.5,0.6c-0.6,0.4-1.6,0.8-2.9,1.2l-0.5-0.9c1.1-0.3,2-0.6,2.6-0.9h-1.7v-4.8h6.6
			V127.2z M79.9,119.1h-2.4v0.5h2.1v2.3h-7.4v-2.3h2.2v-0.5h-2.3v-0.9h7.8V119.1z M74.4,121.1v-0.6h-1.1v0.6H74.4z M78.1,123.8v-0.5
			h-4.4v0.5H78.1z M78.1,125.1v-0.6h-4.4v0.6H78.1z M78.1,126.4v-0.6h-4.4v0.6H78.1z M76.5,119.6v-0.5h-1v0.5H76.5z M76.5,121.1
			v-0.6h-1v0.6H76.5z M80,128.2l-0.5,0.8c-0.8-0.4-1.8-0.7-2.9-0.9l0.6-0.8C78.2,127.5,79.2,127.8,80,128.2z M78.6,121.1v-0.6h-1.1
			v0.6H78.6z"/>
	</g>
	<path class="st0" d="M90.5,192.8H28c-2.3,0-4.2-1.9-4.2-4.2v-52.1c0-2.3,1.9-4.2,4.2-4.2h62.5c2.3,0,4.2,1.9,4.2,4.2v52.1
		C94.6,191,92.8,192.8,90.5,192.8z"/>
	<g class="st1">
		<path class="st3" d="M41.3,169.2h-7.4v-1.6h2.8v-9.1l-2.8,0.8v-1.7l4.7-1.2v11.3h2.7V169.2z"/>
		<path class="st3" d="M50.9,169.2h-7.8v-1.6l3.7-3.6c0.8-0.8,1.4-1.5,1.8-2.1c0.4-0.6,0.6-1.2,0.6-1.9c0-1.4-0.7-2.1-2.2-2.1
			c-1.1,0-2.2,0.5-3.2,1.4v-1.8c1-0.7,2.2-1.1,3.5-1.1c1.2,0,2.1,0.3,2.8,0.9c0.7,0.6,1,1.5,1,2.5c0,0.8-0.2,1.5-0.7,2.3
			c-0.4,0.8-1.2,1.7-2.3,2.7l-2.8,2.7v0h5.6V169.2z"/>
		<path class="st3" d="M55.3,167.2l-1.4,4.4h-1.4l1-4.4H55.3z"/>
		<path class="st3" d="M57.1,163.2c0-2.2,0.4-3.9,1.1-5c0.8-1.1,1.9-1.7,3.3-1.7c2.7,0,4.1,2.2,4.1,6.5c0,2.1-0.4,3.7-1.1,4.9
			c-0.7,1.1-1.8,1.7-3.3,1.7c-1.4,0-2.4-0.5-3.1-1.6C57.4,166.8,57.1,165.2,57.1,163.2z M59,163.1c0,3.2,0.8,4.8,2.3,4.8
			c1.5,0,2.3-1.6,2.3-4.9c0-3.4-0.8-5-2.3-5C59.8,158,59,159.7,59,163.1z"/>
		<path class="st3" d="M67,163.2c0-2.2,0.4-3.9,1.1-5c0.8-1.1,1.9-1.7,3.3-1.7c2.7,0,4.1,2.2,4.1,6.5c0,2.1-0.4,3.7-1.1,4.9
			c-0.7,1.1-1.8,1.7-3.3,1.7c-1.4,0-2.4-0.5-3.1-1.6C67.4,166.8,67,165.2,67,163.2z M69,163.1c0,3.2,0.8,4.8,2.3,4.8
			c1.5,0,2.3-1.6,2.3-4.9c0-3.4-0.8-5-2.3-5C69.8,158,69,159.7,69,163.1z"/>
		<path class="st3" d="M76.9,163.2c0-2.2,0.4-3.9,1.1-5c0.8-1.1,1.9-1.7,3.3-1.7c2.7,0,4.1,2.2,4.1,6.5c0,2.1-0.4,3.7-1.1,4.9
			c-0.7,1.1-1.8,1.7-3.3,1.7c-1.4,0-2.4-0.5-3.1-1.6C77.3,166.8,76.9,165.2,76.9,163.2z M78.9,163.1c0,3.2,0.8,4.8,2.3,4.8
			c1.5,0,2.3-1.6,2.3-4.9c0-3.4-0.8-5-2.3-5C79.7,158,78.9,159.7,78.9,163.1z"/>
	</g>
</g>
<g>
	<g class="st1">
		<path class="st2" d="M170.4,111.9c0.2-0.6,0.4-1.4,0.6-2.3h-1.1v6.1c0,1-0.2,1.6-0.8,1.9c-0.7,0.3-1.6,0.4-2.8,0.4
			c-0.1-0.6-0.4-1.5-0.6-2.1c0.8,0,1.6,0,1.9,0c0.3,0,0.3-0.1,0.3-0.3v-6.1h-2.7v-1.9h3.9c-0.9-0.7-2.1-1.4-3.1-1.9l1.1-1.4
			c0.5,0.2,1.1,0.5,1.7,0.8c0.4-0.4,0.8-0.9,1.2-1.5h-4.2V102h5.5l0.4-0.1l1.2,0.9V102h9.1v1.8h-3.4c-0.1,0.4-0.3,0.8-0.4,1.2h3.2
			v9.5h-8V105h2.6c0.1-0.4,0.1-0.8,0.2-1.2h-3.4V103c-0.7,1.1-1.6,2.3-2.6,3.3c0.4,0.3,0.8,0.6,1.1,0.8l-0.5,0.7h0.9l0.3-0.1
			l1.3,0.3c-0.4,1.5-0.9,3.2-1.3,4.2L170.4,111.9z M176.9,115.6c-1,1-2.7,2-4.1,2.5c-0.3-0.4-1-1-1.4-1.4c1.4-0.5,3-1.4,3.8-2.2
			L176.9,115.6z M179.3,106.5h-4v1.1h4V106.5z M179.3,109.1h-4v1.2h4V109.1z M179.3,111.8h-4v1.2h4V111.8z M179.3,114.6
			c1,0.6,2.4,1.6,3.1,2.3l-1.7,1.2c-0.6-0.7-1.9-1.7-3-2.4L179.3,114.6z"/>
		<path class="st2" d="M186.8,114.1c-0.5,1.5-1.3,3.1-2.1,4c-0.4-0.3-1.1-0.8-1.6-1c0.8-0.8,1.5-2.1,1.9-3.4L186.8,114.1z
			 M189.6,113.6h-5.5v-11.6h5.5V113.6z M187.7,103.6h-1.8v1.7h1.8V103.6z M187.7,106.9h-1.8v1.7h1.8V106.9z M187.7,110.1h-1.8v1.7
			h1.8V110.1z M188.6,113.6c0.6,0.9,1.3,2.1,1.5,2.9l-1.7,0.8c-0.3-0.8-0.9-2.1-1.5-3L188.6,113.6z M200,115.2h-0.8v1
			c0,0.9-0.2,1.4-0.8,1.6c-0.6,0.3-1.4,0.3-2.6,0.3c-0.1-0.5-0.3-1.2-0.6-1.7c0.7,0,1.5,0,1.7,0c0.2,0,0.3-0.1,0.3-0.3v-0.9h-4.6
			v2.9h-1.9v-2.9h-1v-1.5h1v-4.5h3.2v-0.7h-4.1V107h2.3v-0.7h-1.5v-1.4h1.5v-0.7h-1.9v-1.5h1.9v-1.4h1.9v1.4h1.8v-1.4h1.9v1.4h1.9
			v1.5h-1.9v0.7h1.7v1.4h-1.7v0.7h2.3v1.5h-4.2v0.7h3.3v4.5h0.8V115.2z M192.6,110.7v0.8h1.4v-0.8H192.6z M192.6,113.7h1.4v-0.9
			h-1.4V113.7z M194,104.8h1.8v-0.7H194V104.8z M194,107h1.8v-0.7H194V107z M195.9,110.7v0.8h1.4v-0.8H195.9z M197.3,113.7v-0.9
			h-1.4v0.9H197.3z"/>
		<path class="st2" d="M206.4,101.9c-0.3,1.1-0.7,2.2-1.2,3.3v12.9h-2V109c-0.4,0.6-0.8,1.1-1.1,1.5c-0.2-0.5-0.7-1.7-1-2.3
			c1.4-1.7,2.7-4.3,3.5-7L206.4,101.9z M218.1,111.2h-1.6c0.3,0.3,0.6,0.7,0.8,0.9l-1.2,0.7c-0.2-0.3-0.6-0.8-1-1.3
			c-0.2,0.8-0.6,1-1.6,1h-1.6c-0.2,0.2-0.3,0.4-0.5,0.5h3.7l0.4-0.1l1.3,0.7c-0.6,0.9-1.4,1.6-2.5,2.2c1.2,0.3,2.5,0.4,3.8,0.5
			c-0.4,0.4-0.8,1.1-1,1.6c-1.9-0.2-3.6-0.5-5.1-1.1c-1.5,0.5-3.3,0.9-5.2,1.2c-0.2-0.5-0.6-1.1-1-1.5c1.5-0.1,2.8-0.4,4-0.6
			c-0.4-0.2-0.7-0.4-1-0.7c-0.5,0.3-1,0.5-1.5,0.8c-0.2-0.4-0.8-1-1.2-1.2c0.5-0.2,1-0.4,1.5-0.7c-0.2-0.3-0.5-0.5-0.6-0.8l1.5-0.5
			c0.1,0.2,0.3,0.3,0.4,0.5c0.5-0.4,0.9-0.7,1.2-1.1c-0.3-0.2-0.5-0.5-0.5-1c-0.4,0.5-0.9,1.1-1.4,1.4l-1.2-0.9
			c0.3-0.2,0.6-0.4,0.8-0.7H206v-2.6h1.6v-4.5h3c0.1-0.2,0.1-0.4,0.1-0.6h-4.2V102h11.1v1.5H213l-0.3,0.6h3.9v4.5h1.5V111.2z
			 M215.3,110.1c0.3,0.3,0.6,0.5,0.8,0.8v-1.1h-3.5c0.4,0.3,0.8,0.6,1,0.9l-1.2,0.7c-0.3-0.4-0.9-0.9-1.4-1.3l0.5-0.3h-3.8v1.2
			c0.3-0.3,0.5-0.6,0.7-0.9l0.8,0.4v-0.4h1.7v0.8c0,0.4,0.1,0.4,0.6,0.4h1.6c0.4,0,0.5-0.1,0.5-0.6c0.2,0.1,0.5,0.2,0.8,0.3
			c-0.1-0.1-0.3-0.3-0.4-0.4L215.3,110.1z M209.6,105.2v0.5h5v-0.5H209.6z M214.6,106.6h-5v0.6h5V106.6z M209.6,108.6h5V108h-5
			V108.6z M211.9,115.3c0.7-0.3,1.3-0.6,1.8-0.9l-3.7,0C210.6,114.8,211.2,115.1,211.9,115.3z"/>
		<path class="st2" d="M219.4,116.5c0.7-0.8,1.3-2.1,1.7-3.2l1.9,0.8c-0.4,1.2-1,2.6-1.7,3.5L219.4,116.5z M226.4,103.8h-6.5v-1.7
			h6.5v-0.9h2.2v0.9h6.7v1.7h-6.7v0.8h5.5v5.3h-1.8c1.2,0.7,2.4,1.6,3.2,2.2l-1.5,1.2c-0.2-0.3-0.5-0.5-0.8-0.8
			c-1.7,0-3.5,0.1-5.2,0.1c0.8,0.5,1.7,1.2,2.2,1.7l-1.5,1.2c-0.5-0.6-1.7-1.6-2.7-2.2l0.9-0.7c-2.6,0-5,0.1-6.9,0.1l-0.1-1.8
			c1.7,0,4,0,6.5,0v-1H221v-5.3h5.5V103.8z M223,106.7h3.4v-0.8H223V106.7z M226.4,108.7v-0.8H223v0.8H226.4z M229.8,116.1
			c0.8,0,1-0.2,1-1.5c0.5,0.3,1.3,0.6,1.9,0.7c-0.3,2.1-0.8,2.6-2.7,2.6h-3.5c-2.5,0-3.2-0.5-3.2-2.3v-2.1h2.1v2
			c0,0.5,0.2,0.6,1.2,0.6H229.8z M228.6,105.8v0.8h3.4v-0.8H228.6z M228.6,108.7h3.4v-0.8h-3.4V108.7z M230.9,110.9
			c-0.3-0.2-0.6-0.3-0.8-0.5l0.8-0.5h-2.2v1L230.9,110.9z M233.9,113.4c0.8,1.1,1.6,2.5,1.9,3.5l-2,0.6c-0.2-0.9-1-2.4-1.7-3.5
			L233.9,113.4z"/>
		<path class="st2" d="M242.5,101.9c-0.4,1.2-0.8,2.3-1.4,3.5v12.7h-2v-9c-0.4,0.5-0.7,1-1.1,1.5c-0.2-0.5-0.7-1.7-1-2.3
			c1.4-1.7,2.8-4.3,3.6-7L242.5,101.9z M250.6,115.4c1.4,0.5,2.9,1.1,3.8,1.5l-1.8,1.2c-0.9-0.5-2.4-1.2-3.9-1.7l1.2-1h-3.5l1.2,0.8
			c-1.2,0.8-3,1.5-4.6,1.8c-0.3-0.4-0.7-1.1-1.1-1.5c1.3-0.3,2.8-0.7,3.8-1.2H243v-6.7h10.2v6.7H250.6z M250.3,103.6v0.8h3.1v3.7
			h-10.6v-3.7h3v-0.8h-3.3v-1.5h11.5v1.5H250.3z M244.6,106.9h1.1v-1.2h-1.1V106.9z M245,110.6h6.1v-0.6H245V110.6z M245,112.4h6.1
			v-0.6H245V112.4z M245,114.2h6.1v-0.7H245V114.2z M248.6,103.6h-1.2v0.8h1.2V103.6z M247.4,106.9h1.2v-1.2h-1.2V106.9z
			 M250.3,105.6v1.2h1.2v-1.2H250.3z"/>
	</g>
	<path class="st2" d="M267.3,209.5H152.1c-2.6,0-4.7-2.7-4.7-6v-75c0-3.3,2.1-6,4.7-6h115.2c2.6,0,4.7,2.7,4.7,6v75
		C271.9,206.8,269.8,209.5,267.3,209.5z"/>
	<g class="st1">
		<path class="st3" d="M180.2,172.7c1,0.6,2.1,0.9,3.3,0.9c1.6,0,2.8-0.6,3.7-1.8s1.3-2.9,1.3-5.1c0,0,0,0-0.1,0
			c-0.8,1.4-2.1,2.1-3.9,2.1c-1.5,0-2.8-0.5-3.8-1.6s-1.5-2.4-1.5-4c0-1.8,0.6-3.3,1.7-4.5s2.6-1.7,4.4-1.7c1.9,0,3.3,0.7,4.4,2.2
			s1.6,3.5,1.6,6.2c0,3.3-0.7,5.8-2,7.6s-3.2,2.8-5.6,2.8c-1.3,0-2.4-0.2-3.4-0.6V172.7z M181.9,162.9c0,1.1,0.3,2,0.9,2.7
			s1.4,1,2.4,1c0.9,0,1.6-0.3,2.2-0.9s0.9-1.4,0.9-2.2c0-1.2-0.3-2.2-0.9-3s-1.4-1.2-2.3-1.2c-0.9,0-1.7,0.4-2.2,1.1
			S181.9,161.9,181.9,162.9z"/>
		<path class="st3" d="M196.9,172.5l-2,6.3h-2.1l1.4-6.3H196.9z"/>
		<path class="st3" d="M199.5,166.8c0-3.2,0.5-5.6,1.6-7.3s2.7-2.5,4.7-2.5c3.9,0,5.9,3.1,5.9,9.3c0,3-0.5,5.4-1.6,7
			s-2.6,2.5-4.7,2.5c-2,0-3.5-0.8-4.5-2.3S199.5,169.7,199.5,166.8z M202.3,166.7c0,4.6,1.1,6.9,3.4,6.9c2.2,0,3.3-2.4,3.3-7.1
			c0-4.8-1.1-7.3-3.2-7.3C203.4,159.3,202.3,161.7,202.3,166.7z"/>
		<path class="st3" d="M213.8,166.8c0-3.2,0.5-5.6,1.6-7.3s2.7-2.5,4.7-2.5c3.9,0,5.9,3.1,5.9,9.3c0,3-0.5,5.4-1.6,7
			s-2.6,2.5-4.7,2.5c-2,0-3.5-0.8-4.5-2.3S213.8,169.7,213.8,166.8z M216.6,166.7c0,4.6,1.1,6.9,3.4,6.9c2.2,0,3.3-2.4,3.3-7.1
			c0-4.8-1.1-7.3-3.2-7.3C217.7,159.3,216.6,161.7,216.6,166.7z"/>
		<path class="st3" d="M228.1,166.8c0-3.2,0.5-5.6,1.6-7.3s2.7-2.5,4.7-2.5c3.9,0,5.9,3.1,5.9,9.3c0,3-0.5,5.4-1.6,7
			s-2.6,2.5-4.7,2.5c-2,0-3.5-0.8-4.5-2.3S228.1,169.7,228.1,166.8z M230.9,166.7c0,4.6,1.1,6.9,3.4,6.9c2.2,0,3.3-2.4,3.3-7.1
			c0-4.8-1.1-7.3-3.2-7.3C232,159.3,230.9,161.7,230.9,166.7z"/>
	</g>
</g>
<path class="st2" d="M128.4,152.7l-9-9c-2-2-5.4-0.6-5.4,2.3v18c0,2.8,3.4,4.3,5.4,2.3l9-9C129.7,156,129.7,153.9,128.4,152.7z"/>
<g>
	<circle class="st4" cx="299.9" cy="150" r="14.9"/>
	<g class="st1">
		<path class="st3" d="M306.1,155.5c0.9-0.1,1.7-0.2,2.4-0.3c-0.3,0.7-0.7,1.9-0.7,2.6c-1.5,0.1-4.5,0.2-6.6,0.2
			c-2.4,0-3.8-0.2-5.1-0.9c-0.7-0.4-1.4-1-1.7-1c-0.4,0-1,1.2-1.3,2.2l-1.7-2.5c0.7-0.8,1.5-1.5,2.2-1.8c0.4-0.8,0.7-1.7,0.9-2.6
			h-2.3c0.4-1,0.8-2.3,1.2-3.6h-1.6v-2.3h4.5c-0.3,1.2-0.7,2.5-1.1,3.7h0.8l0.4-0.1l0.6,0.2v-1.2h3.9v-1.6h-3.5v-2.3h2
			c-0.3-0.6-0.7-1.4-1-2l2.1-0.9c0.5,0.8,1.1,1.8,1.5,2.5l-0.8,0.3h2.1c0.5-0.9,1-2,1.3-2.8l2.6,0.8c-0.4,0.7-0.9,1.4-1.3,2.1h1.7
			v2.3h-3.9v1.6h4.6v2.3h-3.8c1.3,1.1,2.8,2.3,3.6,3.1L306.1,155.5z M293.6,145.4c-0.2-0.8-0.7-2.1-1-3l2.3-0.7
			c0.4,0.9,0.8,2.1,1.1,2.9L293.6,145.4z M297.1,150.6c-0.4,1.4-0.8,2.8-1.4,3.9c0.2,0.1,0.4,0.2,0.6,0.4c1.2,0.7,2.9,0.8,4.9,0.8
			c1.2,0,3.1-0.1,4.8-0.2c-0.8-0.9-2.2-2.2-3.5-3.4c-0.8,1.3-2.1,2.5-4.2,3.4c-0.4-0.5-1.2-1.4-1.8-1.9c2.4-0.8,3.4-1.9,3.9-3H297.1
			z"/>
	</g>
</g>
<g class="st1">
	<path class="st4" d="M340.1,170.6c0,0,0,0.8,0,1.1c-0.2,6.9-0.4,9.5-1,10.3c-0.4,0.6-0.8,0.9-1.4,1c-0.5,0.1-1.2,0.1-1.9,0.1
		c0-0.7-0.3-1.7-0.6-2.4c-0.4,1-0.8,1.9-1.4,2.7c-0.4-0.6-1.2-1.4-1.8-1.8c1.6-2.2,2.1-5.2,2.2-8.7h-1.7v-2.3h1.8c0-0.9,0-1.9,0-2.8
		h2.4c0,1,0,1.9,0,2.8L340.1,170.6L340.1,170.6z M336.5,173c-0.1,2.8-0.5,5.5-1.3,7.7c0.5,0,0.9,0.1,1.2,0.1c0.2,0,0.4-0.1,0.6-0.3
		c0.3-0.5,0.5-2.4,0.7-7.4h-1.2V173z M347.2,169.6v13.3h-2.5v-1H343v1.1h-2.4v-13.5L347.2,169.6L347.2,169.6z M344.7,179.6v-7.7H343
		v7.7H344.7z"/>
	<path class="st4" d="M358.4,178.8c0.2,1,0.3,2.2,0.3,3l-1.6,0.2c0-0.8,0-1.9-0.2-2.8c-0.2,1.3-0.4,2.6-1.1,3.4l-1.6-0.9
		c0.1-0.1,0.1-0.2,0.2-0.3h-2.7v1.3h-2V179c-0.1,0.1-0.1,0.2-0.2,0.3c-0.2-0.6-0.8-1.8-1.3-2.3c1.1-1.6,1.7-4,2-6.6h-1.5v-2.2h6.4
		v2.2h-2.6c-0.2,1.1-0.3,2.1-0.6,3.2h2.8v7.4c0.3-0.8,0.5-1.8,0.6-2.7l1.7,0.4v0.3L358.4,178.8z M352.6,175.6h-0.9v3.8h0.9V175.6z
		 M364,175.9c0,0,0,0.6,0,0.8c-0.1,3.8-0.3,5.4-0.8,5.9c-0.4,0.5-0.7,0.6-1.2,0.7c-0.4,0.1-1.1,0.1-1.8,0.1c0-0.6-0.3-1.5-0.6-2
		c0.5,0,1,0.1,1.3,0.1c0.2,0,0.3,0,0.5-0.2c0.1-0.1,0.2-0.4,0.3-1l-0.6,0.2c-0.1-0.5-0.4-1.3-0.8-1.9l1.2-0.4
		c0.1,0.2,0.2,0.4,0.3,0.6c0-0.3,0-0.6,0-0.9h-6.3v-9.6h8.2v2H361v0.6h2.1v1.8H361v0.6h2.1v1.8H361v0.7L364,175.9L364,175.9z
		 M357.7,170.4v0.6h1.3v-0.6H357.7z M358.9,172.7h-1.3v0.6h1.3V172.7z M357.7,175.9h1.3v-0.7h-1.3V175.9z M360,178.6
		c0.3,0.8,0.5,1.8,0.6,2.5l-1.5,0.4c0-0.7-0.3-1.7-0.5-2.5L360,178.6z"/>
	<path class="st4" d="M378.1,181.2c-1.5,1.5-3.2,2.2-5.3,2.2c-2.1,0-3.8-0.7-5.3-2.2s-2.2-3.2-2.2-5.3s0.7-3.8,2.2-5.3
		s3.2-2.2,5.3-2.2c2.1,0,3.8,0.7,5.3,2.2s2.2,3.2,2.2,5.3C380.3,178,379.6,179.8,378.1,181.2z M373.7,173c0.3,0.2,0.4,0.6,0.4,1.1
		c0,0.6-0.3,1.3-0.8,2c-0.5,0.6-1.4,1.5-2.8,2.5c-0.4,0.3-0.6,0.7-0.6,1.2c0,0.2,0.1,0.4,0.2,0.5s0.3,0.2,0.5,0.2h4.6
		c0.2,0,0.4-0.1,0.5-0.2c0.1-0.1,0.2-0.3,0.2-0.5s-0.1-0.4-0.2-0.5s-0.3-0.2-0.5-0.2h-3l0,0l0,0c1.4-1.2,2.4-2.2,2.9-2.9
		s0.7-1.5,0.7-2.3c0-0.9-0.3-1.5-0.8-1.9c-0.5-0.5-1.3-0.7-2.3-0.7c-0.7,0-1.4,0.1-2,0.3c-0.2,0.1-0.4,0.2-0.6,0.4
		c-0.1,0.2-0.2,0.4-0.2,0.7c0,0.2,0.1,0.3,0.2,0.4s0.3,0.1,0.5,0.1c0.6-0.3,1.2-0.4,1.8-0.4C373,172.7,373.4,172.8,373.7,173z"/>
	<path class="st4" d="M399.2,181c0.5,0,0.6-0.3,0.7-2c0.5,0.4,1.5,0.8,2.2,0.9c-0.2,2.5-0.9,3.2-2.6,3.2h-1.9
		c-2.2,0-2.7-0.7-2.7-2.7v-2.6c-0.9,2.4-2.8,4.3-6.9,5.5c-0.2-0.6-0.8-1.5-1.3-2c3.2-0.8,4.7-2,5.6-3.5h-4v-3.5l-0.3,0.2
		c-0.4-0.6-1.1-1.4-1.7-1.8c2.2-1.4,3.7-3.3,4.6-5l2.6,0.5c-0.1,0.2-0.2,0.4-0.3,0.6h2.9l0.4-0.1l1.7,1.1c-0.4,0.6-0.9,1.4-1.5,2.1
		h4.2v5.9h-3.4v2.6c0,0.6,0.1,0.6,0.6,0.6H399.2z M392.8,175.7c0.1-0.5,0.2-1.1,0.2-1.7h-2.5v1.7H392.8z M391.6,170.7
		c-0.3,0.4-0.6,0.8-1,1.2h2.9c0.3-0.4,0.6-0.8,0.9-1.2H391.6z M398.1,174h-2.6c-0.1,0.6-0.1,1.1-0.2,1.7h2.8L398.1,174L398.1,174z"
		/>
	<path class="st4" d="M415.1,180.9c1.2,0.4,2.3,0.9,3,1.2l-1.7,1.4c-1.1-0.6-2.9-1.4-4.6-2l0.6-0.6h-3.8l1.3,0.6
		c-1.4,0.8-3.5,1.6-5.2,2c-0.4-0.5-1.2-1.3-1.7-1.7c1.3-0.2,2.8-0.5,3.9-0.9h-1.7v-4.7c-0.3,0.1-0.7,0.1-1.1,0.2
		c-0.2-0.5-0.8-1.4-1.1-1.8c1.9-0.2,3-0.5,3.7-0.9h-2.5c0.2-0.9,0.4-2.2,0.5-3.3h3.1v-0.5h-3.6v-1.3h3.6V168h2.2v0.6h1.4V168h2.3
		v0.6h3.4v3.2h-3.4v0.6h4.5c0,0,0,0.4,0,0.6c-0.1,1.1-0.2,1.7-0.5,2.1c-0.3,0.3-0.7,0.4-1,0.5h-0.2v5.6h-1.4V180.9z M406.5,172.2
		h1.2c0-0.2,0-0.4,0.1-0.6h-1.2L406.5,172.2z M407.5,175.7v0.5h6.5v-0.5H407.5z M407.5,177.4v0.5h6.5v-0.5H407.5z M407.5,179.1v0.5
		h6.5v-0.5H407.5z M409.5,173.5c-0.1,0.3-0.3,0.6-0.6,0.9h2.4v-0.9H409.5z M411.3,171.6h-1.4c0,0.2,0,0.4,0,0.6h1.5v-0.6H411.3z
		 M409.9,170.2h1.4v-0.5h-1.4V170.2z M413.6,169.7v0.5h1.3v-0.5H413.6z M413.6,173.5v0.9h1.2c-0.1-0.2-0.1-0.4-0.2-0.5
		c0.3,0,0.6,0.1,0.8,0c0.1,0,0.2,0,0.3-0.1c0-0.1,0.1-0.2,0.1-0.3L413.6,173.5L413.6,173.5z"/>
	<path class="st4" d="M432.9,180.8c0.8-0.1,1.6-0.2,2.2-0.3c-0.3,0.6-0.7,1.8-0.7,2.4c-1.4,0.1-4.2,0.2-6.2,0.2
		c-2.2,0-3.6-0.2-4.7-0.8c-0.7-0.4-1.3-0.9-1.6-0.9c-0.4,0-0.9,1.2-1.3,2.1l-1.6-2.3c0.7-0.8,1.4-1.4,2.1-1.6
		c0.3-0.7,0.6-1.6,0.9-2.5h-2.2c0.3-0.9,0.8-2.2,1.1-3.4h-1.5v-2.1h4.3c-0.3,1.1-0.7,2.3-1.1,3.5h0.7l0.3-0.1l0.6,0.2V174h3.7v-1.5
		h-3.3v-2.2h1.9c-0.3-0.6-0.6-1.3-1-1.8l2-0.8c0.4,0.7,1.1,1.7,1.4,2.3l-0.7,0.3h1.9c0.5-0.8,0.9-1.8,1.2-2.7l2.4,0.7
		c-0.4,0.7-0.8,1.4-1.2,2h1.6v2.2h-3.7v1.5h4.3v2.2h-3.5c1.2,1,2.6,2.1,3.4,2.9L432.9,180.8z M421.2,171.3c-0.2-0.7-0.7-1.9-1-2.8
		l2.2-0.6c0.3,0.9,0.8,2,1,2.7L421.2,171.3z M424.5,176.2c-0.3,1.3-0.8,2.6-1.3,3.7c0.2,0.1,0.3,0.2,0.5,0.3
		c1.1,0.7,2.7,0.8,4.6,0.8c1.2,0,2.9-0.1,4.5-0.2c-0.7-0.8-2.1-2-3.3-3.1c-0.7,1.2-1.9,2.3-3.9,3.2c-0.3-0.5-1.1-1.3-1.7-1.8
		c2.2-0.8,3.2-1.8,3.6-2.8L424.5,176.2L424.5,176.2z"/>
</g>
<g class="st1">
	<path class="st4" d="M340.1,38.1c0,0,0,0.8,0,1.1c-0.2,6.9-0.4,9.5-1,10.3c-0.4,0.6-0.8,0.9-1.4,1c-0.5,0.1-1.2,0.1-1.9,0.1
		c0-0.7-0.3-1.7-0.6-2.4c-0.4,1-0.8,1.9-1.4,2.7c-0.4-0.6-1.2-1.4-1.8-1.8c1.6-2.2,2.1-5.2,2.2-8.7h-1.7v-2.3h1.8c0-0.9,0-1.9,0-2.8
		h2.4c0,1,0,1.9,0,2.8C336.7,38.1,340.1,38.1,340.1,38.1z M336.5,40.5c-0.1,2.8-0.5,5.5-1.3,7.7c0.5,0,0.9,0.1,1.2,0.1
		c0.2,0,0.4-0.1,0.6-0.3c0.3-0.5,0.5-2.4,0.7-7.4L336.5,40.5L336.5,40.5z M347.2,37.1v13.3h-2.5v-1H343v1.1h-2.4V37.1H347.2z
		 M344.7,47.1v-7.7H343v7.7H344.7z"/>
	<path class="st4" d="M358.4,46.3c0.2,1,0.3,2.2,0.3,3l-1.6,0.2c0-0.8,0-1.9-0.2-2.8c-0.2,1.3-0.4,2.6-1.1,3.4l-1.6-0.9
		c0.1-0.1,0.1-0.2,0.2-0.3h-2.7v1.3h-2v-3.7c-0.1,0.1-0.1,0.2-0.2,0.3c-0.2-0.6-0.8-1.8-1.3-2.3c1.1-1.6,1.7-4,2-6.6h-1.5v-2.2h6.4
		v2.2h-2.6c-0.2,1.1-0.3,2.1-0.6,3.2h2.8v7.4c0.3-0.8,0.5-1.8,0.6-2.7l1.7,0.4v0.3L358.4,46.3z M352.6,43.1h-0.9v3.8h0.9V43.1z
		 M364,43.4c0,0,0,0.6,0,0.8c-0.1,3.8-0.3,5.4-0.8,5.9c-0.4,0.5-0.7,0.6-1.2,0.7c-0.4,0.1-1.1,0.1-1.8,0.1c0-0.6-0.3-1.5-0.6-2
		c0.5,0,1,0.1,1.3,0.1c0.2,0,0.3,0,0.5-0.2c0.1-0.1,0.2-0.4,0.3-1l-0.6,0.2c-0.1-0.5-0.4-1.3-0.8-1.9l1.2-0.4
		c0.1,0.2,0.2,0.4,0.3,0.6c0-0.3,0-0.6,0-0.9h-6.3v-9.6h8.2v2H361v0.6h2.1v1.8H361v0.6h2.1v1.8H361v0.7h3V43.4z M357.7,37.9v0.6h1.3
		v-0.6H357.7z M358.9,40.2h-1.3v0.6h1.3V40.2z M357.7,43.4h1.3v-0.7h-1.3V43.4z M360,46.1c0.3,0.8,0.5,1.8,0.6,2.5l-1.5,0.4
		c0-0.7-0.3-1.7-0.5-2.5L360,46.1z"/>
	<path class="st4" d="M378.1,48.7c-1.5,1.5-3.2,2.2-5.3,2.2c-2.1,0-3.8-0.7-5.3-2.2s-2.2-3.2-2.2-5.3s0.7-3.8,2.2-5.3
		s3.2-2.2,5.3-2.2c2.1,0,3.8,0.7,5.3,2.2s2.2,3.2,2.2,5.3C380.3,45.5,379.6,47.2,378.1,48.7z M369.7,41.7L369.7,41.7
		c0,0.2,0.1,0.4,0.3,0.5c0.2,0.1,0.3,0.1,0.5-0.1l1.7-1.3l0,0l0,0v6.3c0,0.3,0.1,0.5,0.3,0.6s0.4,0.2,0.6,0.2s0.5-0.1,0.6-0.3
		s0.3-0.4,0.3-0.6v-7.3c0-0.3-0.1-0.5-0.3-0.6c-0.2-0.2-0.4-0.2-0.6-0.2c-0.6,0-1.1,0.2-1.6,0.5l-1,0.8
		C369.9,40.6,369.7,41,369.7,41.7z"/>
	<path class="st4" d="M399.2,48.5c0.5,0,0.6-0.3,0.7-2c0.5,0.4,1.5,0.8,2.2,0.9c-0.2,2.5-0.9,3.2-2.6,3.2h-1.9
		c-2.2,0-2.7-0.7-2.7-2.7v-2.6c-0.9,2.4-2.8,4.3-6.9,5.5c-0.2-0.6-0.8-1.5-1.3-2c3.2-0.8,4.7-2,5.6-3.5h-4v-3.5L388,42
		c-0.4-0.6-1.1-1.4-1.7-1.8c2.2-1.4,3.7-3.3,4.6-5l2.6,0.5c-0.1,0.2-0.2,0.4-0.3,0.6h2.9l0.4-0.1l1.7,1.1c-0.4,0.6-0.9,1.4-1.5,2.1
		h4.2v5.9h-3.4v2.6c0,0.6,0.1,0.6,0.6,0.6H399.2z M392.8,43.2c0.1-0.5,0.2-1.1,0.2-1.7h-2.5v1.7H392.8z M391.6,38.2
		c-0.3,0.4-0.6,0.8-1,1.2h2.9c0.3-0.4,0.6-0.8,0.9-1.2H391.6z M398.1,41.5h-2.6c-0.1,0.6-0.1,1.1-0.2,1.7h2.8L398.1,41.5L398.1,41.5
		z"/>
	<path class="st4" d="M415.1,48.4c1.2,0.4,2.3,0.9,3,1.2l-1.7,1.4c-1.1-0.6-2.9-1.4-4.6-2l0.6-0.6h-3.8l1.3,0.6
		c-1.4,0.8-3.5,1.6-5.2,2c-0.4-0.5-1.2-1.3-1.7-1.7c1.3-0.2,2.8-0.5,3.9-0.9h-1.7v-4.7c-0.3,0.1-0.7,0.1-1.1,0.2
		c-0.2-0.5-0.8-1.4-1.1-1.8c1.9-0.2,3-0.5,3.7-0.9h-2.5c0.2-0.9,0.4-2.2,0.5-3.3h3.1v-0.5h-3.6v-1.3h3.6v-0.6h2.2v0.6h1.4v-0.6h2.3
		v0.6h3.4v3.2h-3.4v0.6h4.5c0,0,0,0.4,0,0.6c-0.1,1.1-0.2,1.7-0.5,2.1c-0.3,0.3-0.7,0.4-1,0.5h-0.2v5.6h-1.4V48.4z M406.5,39.6h1.2
		c0-0.2,0-0.4,0.1-0.6h-1.2L406.5,39.6z M407.5,43.2v0.5h6.5v-0.5H407.5z M407.5,44.9v0.5h6.5v-0.5H407.5z M407.5,46.6v0.5h6.5v-0.5
		H407.5z M409.5,41c-0.1,0.3-0.3,0.6-0.6,0.9h2.4V41H409.5z M411.3,39.1h-1.4c0,0.2,0,0.4,0,0.6h1.5v-0.6H411.3z M409.9,37.7h1.4
		v-0.5h-1.4V37.7z M413.6,37.2v0.5h1.3v-0.5H413.6z M413.6,41v0.9h1.2c-0.1-0.2-0.1-0.4-0.2-0.5c0.3,0,0.6,0.1,0.8,0
		c0.1,0,0.2,0,0.3-0.1c0-0.1,0.1-0.2,0.1-0.3C415.8,41,413.6,41,413.6,41z"/>
	<path class="st4" d="M432.9,48.3c0.8-0.1,1.6-0.2,2.2-0.3c-0.3,0.6-0.7,1.8-0.7,2.4c-1.4,0.1-4.2,0.2-6.2,0.2
		c-2.2,0-3.6-0.2-4.7-0.8c-0.7-0.4-1.3-0.9-1.6-0.9c-0.4,0-0.9,1.2-1.3,2.1l-1.6-2.3c0.7-0.8,1.4-1.4,2.1-1.6
		c0.3-0.7,0.6-1.6,0.9-2.5h-2.2c0.3-0.9,0.8-2.2,1.1-3.4h-1.5v-2.1h4.3c-0.3,1.1-0.7,2.3-1.1,3.5h0.7l0.3-0.1l0.6,0.2v-1.1h3.7v-1.5
		h-3.3v-2.2h1.9c-0.3-0.6-0.6-1.3-1-1.8l2-0.8c0.4,0.7,1.1,1.7,1.4,2.3l-0.7,0.3h1.9c0.5-0.8,0.9-1.8,1.2-2.7l2.4,0.7
		c-0.4,0.7-0.8,1.4-1.2,2h1.6v2.2h-3.7v1.5h4.3v2.2h-3.5c1.2,1,2.6,2.1,3.4,2.9L432.9,48.3z M421.2,38.8c-0.2-0.7-0.7-1.9-1-2.8
		l2.2-0.6c0.3,0.9,0.8,2,1,2.7L421.2,38.8z M424.5,43.7c-0.3,1.3-0.8,2.6-1.3,3.7c0.2,0.1,0.3,0.2,0.5,0.3c1.1,0.7,2.7,0.8,4.6,0.8
		c1.2,0,2.9-0.1,4.5-0.2c-0.7-0.8-2.1-2-3.3-3.1c-0.7,1.2-1.9,2.3-3.9,3.2c-0.3-0.5-1.1-1.3-1.7-1.8c2.2-0.8,3.2-1.8,3.6-2.8h-3
		V43.7z"/>
</g>
<path class="st0" d="M440.1,151.3H331.7c-3.9,0-7.1-2.7-7.1-6v-75c0-3.3,3.2-6,7.1-6h108.4c3.9,0,7.1,2.7,7.1,6v75
	C447.2,148.6,444,151.3,440.1,151.3z"/>
<path class="st0" d="M440,274.8H331.9c-4,0-7.2-2.7-7.2-6v-75c0-3.3,3.2-6,7.2-6H440c4,0,7.2,2.7,7.2,6v75
	C447.2,272.1,443.9,274.8,440,274.8z"/>
<g class="st1">
	<path class="st3" d="M352.2,215.8v3.5h-20.5v-3.5H352.2z"/>
	<path class="st3" d="M374,223.7h-7.3v4.5h-3.3v-4.5h-9.8v-3.1h3.4v-4.9c-0.3,0.3-0.5,0.6-0.8,0.9c-0.6-0.6-2-1.6-2.7-2.1
		c1.9-1.6,3.6-4.4,4.4-7.2l3.3,0.8c-0.2,0.5-0.4,1-0.6,1.5h12.1v3.1h-6v2.2h5.5v3h-5.5v2.7h7.3V223.7z M359.1,212.7
		c-0.5,0.8-1,1.6-1.5,2.2h5.8v-2.2H359.1z M363.5,220.6v-2.7h-3.2v2.7H363.5z"/>
	<path class="st3" d="M382.8,208.4c-0.5,1.5-1.3,3-2,4.5v15.3h-3.1v-10.5c-0.3,0.4-0.6,0.8-0.9,1.1c-0.3-0.8-1.1-2.6-1.7-3.4
		c1.9-1.9,3.7-4.9,4.8-8L382.8,208.4z M392.5,207.9c0.6,2.4,2,5,4,6.4c-0.6,0.8-1.5,2.4-1.9,3.5c-0.2-0.2-0.4-0.4-0.6-0.6v0.3
		c-0.2,6.1-0.4,8.6-1.1,9.4c-0.5,0.7-1,0.9-1.7,1.1c-0.6,0.1-1.5,0.2-2.5,0.1c-0.1-0.9-0.4-2.1-0.8-2.9c0.7,0.1,1.2,0.1,1.6,0.1
		c0.3,0,0.5-0.1,0.7-0.3c0.3-0.4,0.5-1.9,0.6-5.7h-2.2c-0.6,4.3-2.1,7.2-5.3,8.9c-0.4-0.6-1.5-1.8-2.1-2.4c2.7-1.2,3.9-3.4,4.3-6.5
		h-1.7v-2.4c-0.3,0.3-0.5,0.5-0.8,0.8c-0.4-0.7-1.3-2.3-1.9-3c1.7-1.4,3.1-3.8,3.8-6.3l3.1,0.8c-0.8,2.6-2.1,5.2-3.7,7.1h8.8
		c-1.3-1.6-2.3-3.5-3-5.2h-1.7V208h4.1V207.9z"/>
	<path class="st3" d="M400.6,217.8c-0.7-0.5-2.3-1.5-3.4-2.1l1.8-2.3c1,0.5,2.6,1.3,3.4,1.8L400.6,217.8z M403,220.9
		c-0.7,2.4-1.6,4.9-2.5,7.1l-2.9-1.6c0.8-1.7,1.9-4.5,2.8-7.1L403,220.9z M401.5,212c-0.7-0.6-2.3-1.5-3.4-2.2l1.8-2.3
		c1,0.5,2.7,1.4,3.5,1.9L401.5,212z M406.6,216.3c0,3.5-0.4,8.7-2.5,11.9c-0.5-0.5-1.7-1.4-2.3-1.7c1.9-2.9,2-7.1,2-10.1v-5.9h5.2
		v-3h3v0.7h5v1.8h-5v0.5h3.6l0.4-0.1l2,0.4c-0.2,1.3-0.7,2.6-1,3.5l-2.4-0.5c0.1-0.3,0.2-0.7,0.3-1.2h-3.5v0.6l2.6-0.2l0.1,1.5
		l-2.6,0.2c0.1,0.2,0.2,0.3,0.6,0.3h2c0.6,0,1.8,0,2.2-0.2c0.1,0.7,0.1,1.2,0.2,1.8c-0.5,0.2-1.4,0.2-2.2,0.2h-3.1
		c-1.7,0-2.3-0.6-2.5-1.6l-1.7,0.2l-0.1-2l1.7-0.1v-0.8h-2L406.6,216.3L406.6,216.3z M416.2,227.9c-0.1-0.4-0.4-1-0.7-1.5
		c-0.3,1.3-1,1.7-2.2,1.7h-1.7c-2.2,0-2.6-0.7-2.6-2.7v-0.6c-0.3,1.2-0.7,2.4-1.6,3.2l-2-1.5c0.8-0.7,1.3-1.9,1.5-3.1l2.1,0.7v-0.4
		h1.8c-0.3-0.2-0.6-0.3-0.9-0.4l0.5-0.5h-3.1v-5.5h9.9v5.5h-3.9c0.4,0.2,0.8,0.5,1.1,0.7l-1.5,1.5c-0.3-0.3-0.7-0.6-1.2-0.9v1.2
		c0,0.5,0.1,0.5,0.5,0.5h1c0.4,0,0.5-0.1,0.5-1.1c0.3,0.2,0.9,0.5,1.4,0.7c-0.3-0.4-0.6-0.8-0.9-1.2l2-1c0.9,1.1,1.9,2.5,2.2,3.6
		L416.2,227.9z M409.6,219.4h1.2v-0.6h-1.2V219.4z M409.6,221.4h1.2v-0.6h-1.2V221.4z M414.4,218.8h-1.2v0.6h1.2V218.8z
		 M414.4,220.7h-1.2v0.6h1.2V220.7z"/>
	<path class="st3" d="M419,224.2c1.3-1.5,2.1-3.7,2.4-6.2l3,0.8c-0.4,2.7-1.1,5.4-2.6,7.2L419,224.2z M423.5,212h-3.8v-2.9h3.8v-1.9
		h3.2v1.9h2.7v2.9h-2.7v2.1h-3.2V212z M431.8,224.7c0.9,0,1-0.4,1.1-2.7c0.7,0.5,2.1,1,3,1.2c-0.4,3.6-1.3,4.6-3.8,4.6H429
		c-3.2,0-3.9-1-3.9-4v-6.3h3.2v6.3c0,0.9,0.1,0.9,1.1,0.9H431.8z M428.8,213.9c1.6,1.1,3.6,2.7,4.6,4l-2.5,2c-0.8-1.2-2.7-3-4.4-4.2
		L428.8,213.9z M432.9,212H430v-2.9h2.9v-1.9h3.2v1.9h3.5v2.9h-3.5v2.1h-3.2V212z M436.8,217.4c1.4,2,3.1,4.7,3.6,6.5l-3.1,1.5
		c-0.5-1.8-1.9-4.6-3.4-6.7L436.8,217.4z"/>
</g>
<g>
	<g>
		<g class="st1">
			<path class="st3" d="M350.3,97.7c1.3-0.2,2.7-0.4,4-0.6l0.2,2.7c-3.8,0.7-8,1.4-11.1,2l-0.7-2.9c1.3-0.2,2.9-0.4,4.6-0.7v-2.5
				h-3.9V93h3.9v-1.7h3V93h3.7v2.7h-3.7V97.7z M342.9,82.8h11.6v2.7h-2.7c1,1.4,2.2,3.1,2.6,4.3l-2.4,1.6c-0.1-0.3-0.2-0.6-0.4-0.9
				c-5.6,0.4-6.6,0.5-7.4,0.8c-0.2-0.6-0.7-2-1-2.9c0.4-0.1,0.7-0.4,1-0.9c0.2-0.3,0.6-1,1-2h-2.4L342.9,82.8L342.9,82.8z
				 M350.2,87.9c-0.4-0.5-0.7-1.1-1-1.5l1.5-0.9h-2c-0.5,0.9-1,1.8-1.6,2.6L350.2,87.9z M358,97.1h-2.9V83.7h2.9V97.1z M362.4,81.7
				v17c0,1.6-0.3,2.4-1.2,2.9c-0.9,0.5-2.2,0.6-4,0.6c-0.1-0.8-0.6-2.2-1.1-3c1.1,0,2.3,0,2.7,0c0.4,0,0.5-0.1,0.5-0.5v-17H362.4z"
				/>
			<path class="st3" d="M375.4,87.4c-0.4,1.1-0.9,2.3-1.5,3.4v11.5h-3V95c-0.3,0.3-0.5,0.5-0.8,0.8c-0.2-0.7-0.7-1.9-1.1-2.7
				c-0.2,3.2-0.7,6.9-2.1,9.4c-0.6-0.6-2.1-1.5-2.8-1.8c1.7-3.2,1.8-7.9,1.8-11.2v-6h8c-0.2-0.5-0.4-1-0.5-1.4l3.3-0.8
				c0.3,0.7,0.7,1.5,0.9,2.3h7.3v2.9H369v3.1c0,0.9,0,2-0.1,3.1c1.5-1.5,2.7-4,3.3-6.1L375.4,87.4z M377,93.2c0.7,1.3,1.6,2.9,2,3.9
				l-2.7,1.2c-0.4-1.1-1.2-2.8-1.9-4.1L377,93.2z M384.8,92.6H383V99c0,1.6-0.3,2.4-1.3,2.9s-2.3,0.5-4.1,0.5
				c-0.1-0.9-0.5-2.3-1-3.1c1,0.1,2.3,0.1,2.6,0.1c0.4,0,0.5-0.1,0.5-0.4v-6.4h-5.3v-2.9h5.3V87h3.2v2.7h1.8L384.8,92.6L384.8,92.6z
				"/>
			<path class="st3" d="M404.1,102.5c-1.4-0.9-3.5-2-5.8-3.1c-2.3,1.7-5.4,2.6-9.6,3.1c-0.3-0.9-1.3-2.4-1.9-3.2
				c3.2-0.2,5.8-0.7,7.7-1.5c-1.8-0.7-3.6-1.4-5.2-1.9c0.5-0.7,1.1-1.6,1.6-2.6h-4v-3h5.6c0.5-1.1,0.9-2.1,1.3-3.1l3.8,0.7
				c-0.3,0.8-0.6,1.6-1,2.5h3c0.1-0.6,0.2-1.2,0.2-1.9l3.1,0.2v-1.8h-12.3V89h-3.3v-5.2h7.6c-0.2-0.6-0.4-1.2-0.6-1.8l3.7-0.8
				c0.4,0.8,0.7,1.8,1.1,2.6h7.3V89h-2.6c-0.1,0.4-0.1,0.8-0.2,1.2h3.1v3h-3.9c-0.5,1.4-1,2.6-1.8,3.6c2.2,0.9,4.2,1.9,5.7,2.8
				L404.1,102.5z M394.9,93.3c-0.2,0.4-0.4,0.8-0.7,1.2c1,0.4,2.1,0.7,3.1,1.1c0.5-0.7,1-1.4,1.3-2.3
				C398.6,93.3,394.9,93.3,394.9,93.3z"/>
			<path class="st3" d="M427.9,96.7c-1,0.7-2.2,1.4-3.3,1.9c1.2,0.6,2.7,1.1,4.4,1.3c-0.6,0.6-1.4,1.8-1.8,2.6
				c-4.7-0.9-7.3-3.1-8.9-6.9c-0.7,0.6-1.5,1.1-2.4,1.6v2l4-0.7c-0.2,0.7-0.3,1.9-0.3,2.5c-5.4,1.1-6.3,1.3-6.8,1.6
				c-0.2-0.7-0.7-1.8-1.1-2.3c0.5-0.3,1.1-0.9,1.2-1.9c-1,0.3-2.1,0.6-3.2,0.8c-0.4-0.7-1.1-1.7-1.7-2.2c2.1-0.3,4.1-0.7,5.8-1.4
				h-5.3v-2.4h8.3c-0.1-0.2-0.2-0.4-0.3-0.7h-2.6v-3.2h-1.2c-0.3,1.6-1.1,2.9-3.1,3.7c-0.3-0.6-1-1.6-1.6-2.1c1-0.4,1.5-0.9,1.7-1.6
				h-1.4V87h5.5v-0.8h-4.7v-4.4h2.7v1.9h2v-2.1h3v10.6l2.2-0.6h-1v-2.7h3.4v-2.2h-4V84h4v-2.5h3.2V84h4v2.7h-4v2.2h3.5v2.7h-8.5
				c0.3,0.5,0.5,1.1,0.7,1.6h8.3v2.4h-2.2L427.9,96.7z M421.4,95.6c0.3,0.6,0.7,1.1,1.2,1.5c0.8-0.5,1.7-1,2.4-1.5H421.4z"/>
		</g>
	</g>
	<g class="st1">
		<path class="st3" d="M361.4,126.2h3.5v-9.3h-3v-2.4c1.8-0.3,2.9-0.8,4-1.5h2.9v13.2h2.9v3.2h-10.3V126.2z"/>
		<path class="st3" d="M377,129.2c-1.2,0-2.3-0.8-2.3-2.2c0-1.3,1.1-2.2,2.4-2.2c1.7,0,2.7,1.4,2.7,3.6c0,2.8-1.6,5-4.7,5.9
			l-0.8-2.1c1.9-0.7,2.9-1.8,2.9-3.1H377V129.2z"/>
		<path class="st3" d="M381.3,127.4l1.8-2.5c0.9,0.9,2.1,1.6,3.4,1.6c1.6,0,2.6-0.9,2.6-2.5s-1-2.5-2.4-2.5c-0.9,0-1.3,0.2-2.3,0.8
			l-1.7-1.1l0.4-8.1h9.2v3.2h-5.8l-0.2,2.8c0.6-0.2,1.1-0.3,1.7-0.3c2.8,0,5.1,1.6,5.1,5.2c0,3.7-2.8,5.8-5.9,5.8
			C384.4,129.7,382.6,128.7,381.3,127.4z"/>
		<path class="st3" d="M395.1,121.1c0-5.6,2.3-8.4,5.8-8.4s5.8,2.8,5.8,8.4s-2.3,8.6-5.8,8.6S395.1,126.7,395.1,121.1z M403,121.1
			c0-4.5-0.9-5.4-2.1-5.4s-2.1,0.9-2.1,5.4s0.9,5.5,2.1,5.5S403,125.6,403,121.1z"/>
		<path class="st3" d="M408.4,121.1c0-5.6,2.3-8.4,5.8-8.4s5.8,2.8,5.8,8.4s-2.3,8.6-5.8,8.6S408.4,126.7,408.4,121.1z M416.3,121.1
			c0-4.5-0.9-5.4-2.1-5.4s-2.1,0.9-2.1,5.4s0.9,5.5,2.1,5.5S416.3,125.6,416.3,121.1z"/>
	</g>
</g>
<g class="st1">
	<path class="st3" d="M360.4,255.4l1.8-2.5c1,0.9,2.1,1.6,3.4,1.6c1.5,0,2.5-0.6,2.5-1.9c0-1.4-0.7-2.2-4.2-2.2v-2.7
		c2.8,0,3.7-0.9,3.7-2.2c0-1.1-0.7-1.7-1.9-1.7c-1.1,0-1.9,0.5-2.9,1.4l-2-2.4c1.5-1.3,3.1-2,5.1-2c3.4,0,5.6,1.6,5.6,4.5
		c0,1.6-0.9,2.9-2.6,3.6v0.1c1.8,0.5,3.2,1.9,3.2,4c0,3.1-2.8,4.8-6,4.8C363.4,257.7,361.6,256.8,360.4,255.4z"/>
	<path class="st3" d="M377.1,257.2c-1.2,0-2.3-0.8-2.3-2.2c0-1.3,1.1-2.2,2.4-2.2c1.7,0,2.7,1.4,2.7,3.6c0,2.8-1.6,5-4.7,5.9
		l-0.8-2.1c1.9-0.7,2.9-1.8,2.9-3.1H377.1z"/>
	<path class="st3" d="M381.8,249.1c0-5.6,2.3-8.4,5.8-8.4s5.8,2.8,5.8,8.4c0,5.6-2.3,8.6-5.8,8.6S381.8,254.8,381.8,249.1z
		 M389.7,249.1c0-4.5-0.9-5.4-2.1-5.4s-2.1,0.9-2.1,5.4c0,4.5,0.9,5.5,2.1,5.5S389.7,253.6,389.7,249.1z"/>
	<path class="st3" d="M395.2,249.1c0-5.6,2.3-8.4,5.8-8.4s5.8,2.8,5.8,8.4c0,5.6-2.3,8.6-5.8,8.6S395.2,254.8,395.2,249.1z
		 M403.1,249.1c0-4.5-0.9-5.4-2.1-5.4s-2.1,0.9-2.1,5.4c0,4.5,0.9,5.5,2.1,5.5S403.1,253.6,403.1,249.1z"/>
	<path class="st3" d="M408.6,249.1c0-5.6,2.3-8.4,5.8-8.4s5.8,2.8,5.8,8.4c0,5.6-2.3,8.6-5.8,8.6S408.6,254.8,408.6,249.1z
		 M416.4,249.1c0-4.5-0.9-5.4-2.1-5.4s-2.1,0.9-2.1,5.4c0,4.5,0.9,5.5,2.1,5.5S416.4,253.6,416.4,249.1z"/>
</g>
</svg>
