<?xml version="1.0" encoding="utf-8"?>
<!-- Generator: Adobe Illustrator 21.1.0, SVG Export Plug-In . SVG Version: 6.00 Build 0)  -->
<svg version="1.1" id="圖層_1" xmlns="http://www.w3.org/2000/svg" xmlns:xlink="http://www.w3.org/1999/xlink" x="0px" y="0px"
	 viewBox="0 0 471 310" style="enable-background:new 0 0 471 310;" xml:space="preserve">
<style type="text/css">
	.st0{fill:#0D9890;}
	.st1{font-family:'MicrosoftJhengHeiBold';}
	.st2{font-size:18px;}
	.st3{opacity:0.65;fill:#0D9890;}
	.st4{fill:#FFFFFF;}
	.st5{font-size:24px;}
</style>
<text transform="matrix(1 0 0 1 22 31.4199)" class="st0 st1 st2">機器原價</text>
<text transform="matrix(1 0 0 1 178 31.4199)" class="st0 st1 st2">三年濾芯原價</text>
<text transform="matrix(1 0 0 1 369 31.4199)" class="st0 st1 st2">超值升級</text>
<text transform="matrix(1 0 0 1 113 187.4199)" class="st0 st1 st2">三年總價</text>
<path class="st3" d="M309,124.4H161c-3.3,0-6-2.7-6-6v-75c0-3.3,2.7-6,6-6h148c3.3,0,6,2.7,6,6v75C315,121.7,312.3,124.4,309,124.4z
	"/>
<path class="st3" d="M108,124.4H18c-3.3,0-6-2.7-6-6v-75c0-3.3,2.7-6,6-6h90c3.3,0,6,2.7,6,6v75C114,121.7,111.3,124.4,108,124.4z"
	/>
<path class="st3" d="M196,283.4h-92c-3.3,0-6-2.7-6-6v-75c0-3.3,2.7-6,6-6h92c3.3,0,6,2.7,6,6v75C202,280.7,199.3,283.4,196,283.4z"
	/>
<text transform="matrix(1 0 0 1 28 90.4199)" class="st4 st1 st5">8,900</text>
<text transform="matrix(1 0 0 1 174 73.4199)" class="st4 st1 st5">2,500</text>
<text transform="matrix(1 0 0 1 189 107.4199)" class="st4 st1 st5">= 7,500</text>
<text transform="matrix(1 0 0 1 246 73.4199)"><tspan x="0" y="0" class="st4 st1 st5">x 3</tspan><tspan x="33" y="0" class="st4 st1 st2">年</tspan></text>
<g>
	<text transform="matrix(1 0 0 1 108 238.4199)" class="st4 st1 st5">19,800</text>
</g>
<polygon class="st0" points="147,77.8 137.6,77.8 137.6,68.4 131.4,68.4 131.4,77.8 122,77.8 122,84 131.4,84 131.4,93.4 
	137.6,93.4 137.6,84 147,84 "/>
<g>
	<g>
		<rect x="54" y="227.9" class="st0" width="25" height="8.3"/>
		<rect x="54" y="244.6" class="st0" width="25" height="8.3"/>
	</g>
</g>
<g>
	<text transform="matrix(1 0 0 1 299 188.4199)" class="st0 st1 st2">優惠月租</text>
	<path class="st0" d="M387,283.4H281c-3.3,0-6-2.7-6-6v-75c0-3.3,2.7-6,6-6h106c3.3,0,6,2.7,6,6v75C393,280.7,390.3,283.4,387,283.4
		z"/>
	<text transform="matrix(1 0 0 1 299 246.4199)"><tspan x="0" y="0" class="st4 st1 st5">428/</tspan><tspan x="53.5" y="0" class="st4 st1 st2">月</tspan></text>
	<path class="st0" d="M250.4,237.6l-9-9c-2-2-5.4-0.6-5.4,2.3v18c0,2.8,3.4,4.3,5.4,2.3l9-9C251.7,240.9,251.7,238.8,250.4,237.6z"
		/>
</g>
<path class="st3" d="M453,124.4h-90c-3.3,0-6-2.7-6-6v-75c0-3.3,2.7-6,6-6h90c3.3,0,6,2.7,6,6v75C459,121.7,456.3,124.4,453,124.4z"
	/>
<text transform="matrix(1 0 0 1 373.0005 90.4199)" class="st4 st1 st5">3,400</text>
<polygon class="st0" points="324,77.8 333.4,77.8 333.4,68.4 339.6,68.4 339.6,77.8 349,77.8 349,84 339.6,84 339.6,93.4 
	333.4,93.4 333.4,84 324,84 "/>
<rect x="12" y="152" class="st0" width="447" height="8"/>
<text transform="matrix(1 0 0 1 116 267.4199)" class="st4 st1 st2">(550/月)</text>
</svg>
