<?xml version="1.0" standalone="no"?>
<!DOCTYPE svg PUBLIC "-//W3C//DTD SVG 20010904//EN"
 "http://www.w3.org/TR/2001/REC-SVG-20010904/DTD/svg10.dtd">
<svg version="1.0" xmlns="http://www.w3.org/2000/svg"
 width="700.000000pt" height="700.000000pt" viewBox="0 0 700.000000 700.000000"
 preserveAspectRatio="xMidYMid meet">
<metadata>
Created by potrace 1.11, written by Peter Selinger 2001-2013
</metadata>
<g transform="translate(0.000000,700.000000) scale(0.100000,-0.100000)"
fill="#000000" stroke="none">
<path d="M0 3500 l0 -3500 760 0 760 0 0 25 c0 52 -72 556 -96 675 -49 235
-137 460 -236 600 -188 267 -309 522 -391 830 -92 341 -112 763 -51 1070 50
252 189 550 366 787 148 197 330 376 476 470 55 36 202 110 262 133 19 7 67
44 105 81 77 73 128 96 188 85 46 -9 109 -55 138 -103 34 -54 34 -198 1 -296
-28 -79 -96 -185 -126 -197 -12 -4 -68 -22 -126 -40 -270 -82 -401 -180 -530
-396 -48 -81 -63 -94 -107 -94 -54 -1 -119 -33 -143 -72 -40 -66 -25 -121 72
-264 50 -74 52 -79 56 -158 3 -57 -2 -116 -16 -191 -62 -329 -58 -771 9 -1083
43 -198 159 -515 239 -656 54 -93 140 -200 183 -227 47 -28 93 -25 128 10 49
50 40 77 -62 188 -74 79 -117 154 -175 300 -75 190 -122 340 -143 461 -50 277
-52 551 -6 942 37 316 26 410 -61 512 -48 57 -48 58 18 72 54 12 126 97 193
230 32 62 102 134 174 176 141 83 303 131 667 195 l202 36 96 -26 c395 -102
861 -111 1287 -25 141 29 329 82 476 135 l121 44 89 -38 c259 -114 528 -305
647 -460 57 -74 72 -105 112 -228 18 -57 47 -123 64 -147 31 -46 97 -86 141
-86 13 0 30 -4 38 -9 15 -10 11 -20 -80 -190 l-34 -64 -7 -251 c-9 -343 -33
-473 -150 -801 -68 -191 -89 -239 -149 -342 -76 -131 -73 -126 -160 -254 -36
-54 -89 -209 -89 -263 0 -36 58 -96 93 -96 46 0 73 34 107 135 17 52 41 109
54 127 184 274 281 474 371 763 84 271 97 353 104 655 l7 265 58 111 c42 79
60 125 63 161 11 105 -36 170 -146 203 -72 21 -111 52 -111 88 0 35 -46 158
-84 226 -53 94 -122 173 -231 265 -116 97 -231 176 -365 251 -52 30 -96 55
-98 56 -1 1 14 18 34 38 31 31 35 41 30 69 -18 90 -17 136 7 254 39 190 84
248 214 273 160 32 377 -69 519 -239 99 -118 291 -444 350 -593 14 -34 45
-146 70 -248 24 -102 56 -220 70 -264 107 -340 120 -794 39 -1396 -74 -542
-123 -815 -217 -1205 -69 -289 -109 -501 -148 -795 -11 -85 -22 -165 -24 -178
l-3 -22 553 0 554 0 0 3500 0 3500 -3500 0 -3500 0 0 -3500z m4571 2975 c100
-17 369 -107 493 -164 205 -94 344 -216 414 -361 62 -128 62 -122 -6 -225 -98
-148 -266 -294 -416 -360 -30 -13 -127 -49 -217 -81 -90 -31 -255 -96 -367
-145 -296 -129 -421 -176 -567 -214 -200 -52 -340 -68 -535 -62 -201 5 -251
20 -355 104 -116 93 -127 96 -375 103 -247 7 -275 14 -347 93 -54 58 -92 135
-147 294 -24 70 -58 162 -74 203 -17 41 -33 95 -37 120 -6 44 -4 47 57 119
205 242 429 357 833 427 110 19 277 48 370 64 126 22 239 34 440 45 149 9 333
24 410 34 174 23 317 25 426 6z m-2547 -968 c93 -256 137 -348 202 -413 85
-84 127 -96 379 -104 244 -7 263 -13 372 -106 120 -102 194 -120 452 -111 393
15 562 57 1036 265 138 60 329 137 425 172 96 34 202 76 235 93 152 76 321
220 400 340 33 50 40 56 49 40 17 -31 10 -220 -13 -323 -35 -154 -70 -252 -89
-245 -8 3 -49 11 -89 17 -151 22 -316 -32 -410 -135 -92 -101 -152 -267 -156
-432 l-2 -89 -115 -49 c-623 -263 -1263 -322 -1845 -171 -179 46 -316 88 -362
110 -30 15 -38 24 -36 44 16 202 16 206 -5 276 -49 159 -195 274 -347 274 -29
0 -60 3 -69 6 -20 8 -46 67 -85 187 -40 126 -55 229 -49 339 5 84 33 208 47
208 3 0 37 -87 75 -193z"/>
<path d="M4040 6363 c-91 -5 -288 -33 -410 -58 -235 -48 -462 -116 -869 -257
-304 -106 -326 -120 -355 -220 -23 -76 -23 -242 -1 -305 49 -146 192 -248 487
-347 177 -60 278 -77 489 -83 310 -9 684 54 1044 177 267 91 462 209 655 396
123 120 125 122 124 165 -3 129 -180 315 -399 420 -209 100 -425 132 -765 112z"/>
<path d="M5060 3723 c-8 -3 -39 -21 -69 -41 -59 -38 -86 -87 -123 -216 -44
-159 -9 -382 76 -474 71 -79 184 -81 258 -5 52 53 83 130 109 263 52 278 -29
481 -191 479 -25 0 -52 -3 -60 -6z"/>
<path d="M3495 3668 c-24 -24 -192 -218 -374 -432 -366 -431 -348 -401 -312
-509 23 -71 62 -128 109 -161 49 -33 73 -42 229 -81 150 -38 191 -61 272 -152
l51 -57 0 -138 0 -138 -114 0 c-174 0 -268 -20 -416 -90 -239 -113 -448 -142
-620 -85 -109 36 -242 150 -337 289 -57 82 -88 98 -139 71 -39 -21 -59 -63
-50 -106 15 -75 189 -270 321 -359 94 -63 176 -95 286 -110 132 -18 303 6 482
68 l84 30 53 -70 c58 -76 120 -123 245 -185 109 -55 184 -75 278 -75 122 1
308 43 402 90 89 44 249 144 281 174 l32 30 63 -20 c108 -33 210 -45 337 -39
181 8 279 48 435 177 109 90 257 267 257 308 0 27 -52 92 -78 99 -44 11 -74
-9 -124 -82 -63 -92 -158 -189 -232 -236 -197 -128 -368 -118 -766 45 -153 62
-220 76 -372 76 l-108 0 0 138 0 138 51 57 c28 32 71 71 95 88 41 28 71 37
269 83 129 30 214 109 250 232 29 100 46 74 -316 500 -381 448 -405 474 -449
474 -23 0 -42 -11 -75 -42z m508 -1877 c37 -12 67 -26 67 -29 0 -16 -251 -133
-325 -153 -96 -25 -231 -28 -290 -6 -99 36 -223 105 -263 145 -24 24 -41 46
-38 49 14 14 101 18 430 18 339 -1 353 -2 419 -24z"/>
<path d="M2180 3673 c-8 -3 -39 -21 -69 -41 -46 -30 -58 -45 -88 -110 -68
-149 -79 -252 -42 -394 33 -132 71 -193 141 -229 97 -50 204 3 262 131 14 30
35 107 47 170 52 278 -29 481 -191 479 -25 0 -52 -3 -60 -6z"/>
</g>
</svg>
