<?xml version="1.0" encoding="utf-8"?>
<!-- Generator: Adobe Illustrator 21.1.0, SVG Export Plug-In . SVG Version: 6.00 Build 0)  -->
<svg version="1.1" id="圖層_1" xmlns="http://www.w3.org/2000/svg" xmlns:xlink="http://www.w3.org/1999/xlink" x="0px" y="0px"
	 viewBox="0 0 367 84" style="enable-background:new 0 0 367 84;" xml:space="preserve">
<style type="text/css">
	.st0{opacity:0.8;fill:#12928A;}
	.st1{fill:#FFFFFF;}
	.st2{opacity:0.8;fill:#91BBB6;}
	.st3{fill:#12928A;}
</style>
<g>
	<g>
		<g>
			<g>
				<g>
					<g>
						<path class="st0" d="M96.7,48H57.3c-3.3,0-6-2.7-6-6v-5.6c0-3.3,2.7-6,6-6h39.4c3.3,0,6,2.7,6,6V42C102.7,45.3,100,48,96.7,48
							z"/>
						<g>
							<g>
								<path class="st1" d="M75.4,42.8c0,0.9-0.2,1.3-0.7,1.5c-0.6,0.3-1.3,0.3-2.4,0.3c-0.1-0.4-0.4-1.2-0.6-1.6
									c0.7,0.1,1.5,0,1.8,0c0.2,0,0.3-0.1,0.3-0.3v-1.2h-4.2c-0.3,1.2-0.8,2.3-1.8,3.1c-0.2-0.3-0.8-0.9-1.2-1.1
									c1.5-1.3,1.7-3.2,1.7-4.8v-3.6h7.1V42.8z M73.8,40.1v-1h-3.9c0,0.3,0,0.7-0.1,1H73.8z M69.9,36.6v1h3.9v-1H69.9z"/>
								<path class="st1" d="M86.8,38c-0.1,1.4-0.3,2.7-0.7,3.9c0.3,0.7,0.7,1.3,1.2,1.7c-0.3,0.2-0.8,0.8-1,1.1
									c-0.3-0.4-0.6-0.8-0.9-1.3c-0.3,0.5-0.7,1-1.1,1.3c-0.1-0.2-0.4-0.5-0.6-0.7c0,0.1-0.1,0.2-0.1,0.3
									c-0.2,0.2-0.4,0.3-0.6,0.3c-0.2,0-0.5,0-0.9,0c0-0.3-0.1-0.7-0.2-1c-0.2,0.4-0.5,0.8-1,1c-0.1-0.3-0.5-0.7-0.8-0.9
									c0.3-0.2,0.6-0.5,0.7-0.8L80,43.2c0-0.4-0.2-1-0.3-1.5l0.9-0.3c0.1,0.4,0.2,0.9,0.3,1.3c0.2-0.5,0.3-1.1,0.4-1.8h-0.6l0,0.2
									l-0.9,0.3c0-0.1,0-0.2,0-0.4c-1.5,0.2-1.9,0.3-2.1,0.4c-0.1-0.2-0.3-0.8-0.4-1.1c0.3-0.1,0.4-0.3,0.7-0.7
									c0.1-0.1,0.3-0.4,0.5-0.8c-0.6,0.1-0.8,0.1-0.9,0.2c-0.1-0.2-0.3-0.8-0.4-1.1c0.2-0.1,0.3-0.3,0.5-0.6
									c0.2-0.3,0.6-1.5,0.8-2.6l1.1,0.4c-0.2,0.8-0.6,1.7-1,2.5l0.4,0c0.2-0.5,0.4-1,0.6-1.4l0.9,0.5v-1.1h1
									c0-0.3,0.1-0.6,0.1-0.8l1.4,0.1c-0.1,0.3-0.1,0.5-0.2,0.8h1v2.8c0.5-1,0.7-2.3,0.8-3.6l1.2,0.2c-0.1,0.6-0.2,1.2-0.3,1.8
									h1.5V38H86.8z M78.7,41.9c-0.1,1-0.2,2-0.4,2.7c-0.2-0.1-0.8-0.3-1-0.4c0.3-0.6,0.3-1.6,0.4-2.5L78.7,41.9z M79.7,41.7
									c0.1,0.7,0.2,1.7,0.2,2.3l-1,0.2c0-0.6,0-1.6-0.1-2.4L79.7,41.7z M79.6,39.9c0-0.2-0.1-0.4-0.1-0.6
									c-0.1,0.2-0.3,0.5-0.4,0.7L79.6,39.9z M80.2,38.9c0.2,0.5,0.3,1.2,0.4,1.8v-0.9h1.1c-0.1-0.2-0.1-0.4-0.2-0.6l0.9-0.2h-1.9
									v-2c-0.3,0.7-0.6,1.3-1,2L80.2,38.9z M81.8,36.5v0.3h0.9v-0.3H81.8z M81.8,38.1h0.9v-0.3h-0.9V38.1z M82.3,42.4
									c-0.1,0.4-0.2,0.8-0.4,1.1c0.2,0,0.3,0,0.4,0c0.1,0,0.2,0,0.2-0.1c0.1-0.1,0.1-0.4,0.2-1H82.3z M84,41.3c0,0,0,0.3,0,0.4
									c0,0.6-0.1,1.1-0.1,1.5c0.4-0.4,0.8-0.9,1-1.5c-0.2-0.6-0.3-1.3-0.4-1.9c-0.1,0.1-0.1,0.2-0.2,0.3c-0.1-0.2-0.3-0.7-0.5-1
									h-0.9c0.1,0.2,0.2,0.5,0.3,0.7H84V41h-1.5c0,0.1,0,0.3,0,0.4H84z M85.3,38c0,0.1-0.1,0.3-0.1,0.4c0.1,0.5,0.2,1,0.3,1.5
									c0.1-0.6,0.2-1.2,0.3-1.9H85.3z"/>
							</g>
						</g>
					</g>
					<g>
						<path class="st2" d="M96.7,72.3H57.3c-3.3,0-6-2.7-6-6v-5.6c0-3.3,2.7-6,6-6h39.4c3.3,0,6,2.7,6,6v5.6
							C102.7,69.6,100,72.3,96.7,72.3z"/>
						<g>
							<g>
								<path class="st1" d="M72.9,61.6c-0.3-0.4-0.8-0.6-1.2-0.6c-1,0-1.9,0.8-2,3.2c0.5-0.6,1.1-0.9,1.7-0.9
									c1.3,0,2.1,0.8,2.1,2.4c0,1.5-1,2.5-2.2,2.5c-1.5,0-2.6-1.3-2.6-3.8c0-3,1.3-4.1,2.8-4.1c0.8,0,1.4,0.3,1.8,0.8L72.9,61.6z
									 M72.7,65.7c0-1-0.4-1.7-1.4-1.7c-0.5,0-1.1,0.3-1.6,1c0.1,1.6,0.7,2.5,1.7,2.5C72.1,67.5,72.7,66.8,72.7,65.7z"/>
								<path class="st1" d="M74.6,64.2c0-2.7,0.9-4,2.4-4c1.5,0,2.4,1.3,2.4,4c0,2.7-0.9,4-2.4,4C75.5,68.2,74.6,66.9,74.6,64.2z
									 M78.4,64.2c0-2.2-0.6-3.2-1.5-3.2c-0.9,0-1.5,0.9-1.5,3.2c0,2.3,0.6,3.2,1.5,3.2C77.8,67.4,78.4,66.5,78.4,64.2z"/>
								<path class="st1" d="M80.4,64.2c0-2.7,0.9-4,2.4-4c1.5,0,2.4,1.3,2.4,4c0,2.7-0.9,4-2.4,4C81.3,68.2,80.4,66.9,80.4,64.2z
									 M84.2,64.2c0-2.2-0.6-3.2-1.5-3.2c-0.9,0-1.5,0.9-1.5,3.2c0,2.3,0.6,3.2,1.5,3.2C83.6,67.4,84.2,66.5,84.2,64.2z"/>
							</g>
						</g>
					</g>
					<g>
						<path class="st0" d="M153.7,48h-39.4c-3.3,0-6-2.7-6-6v-5.6c0-3.3,2.7-6,6-6h39.4c3.3,0,6,2.7,6,6V42
							C159.7,45.3,157,48,153.7,48z"/>
						<g>
							<g>
								<path class="st1" d="M131.6,40.3c-0.6,0.4-1.3,0.8-2,1.1h3.8v1.3h-3.9v0.5c0,0.7-0.2,1-0.7,1.2c-0.5,0.2-1.2,0.2-2.1,0.2
									c-0.1-0.4-0.3-1-0.5-1.3c0.6,0,1.4,0,1.5,0c0.2,0,0.3,0,0.3-0.2v-0.4h-3.9v-1.3h3.9v-0.5c0.2-0.1,0.3-0.1,0.5-0.2H126v-0.8
									c-0.4,0.2-0.9,0.4-1.3,0.6c-0.2-0.3-0.6-0.9-0.9-1.1c1-0.3,2-0.7,2.7-1.3h-2.4v-1.3h3.9v-0.4c-1,0.1-2,0.1-2.9,0.1
									c0-0.3-0.2-0.9-0.3-1.2c2.4,0,5-0.2,6.5-0.6l1.2,1.1c-0.9,0.2-1.9,0.4-3,0.5v0.6h4V38h-2.1c0.9,0.5,1.8,1.1,2.4,1.6l-1,1
									c-0.7-0.6-2.1-1.6-3.3-2.3v0.9H128v-0.9c-0.4,0.4-0.9,0.8-1.4,1.1h3.8l0.3-0.1L131.6,40.3z"/>
								<path class="st1" d="M143.9,38c-0.1,1.4-0.3,2.7-0.7,3.9c0.3,0.7,0.7,1.3,1.2,1.7c-0.3,0.2-0.8,0.8-1,1.1
									c-0.3-0.4-0.6-0.8-0.9-1.3c-0.3,0.5-0.7,1-1.1,1.3c-0.1-0.2-0.4-0.5-0.6-0.7c0,0.1-0.1,0.2-0.1,0.3
									c-0.2,0.2-0.4,0.3-0.6,0.3c-0.2,0-0.5,0-0.9,0c0-0.3-0.1-0.7-0.2-1c-0.2,0.4-0.5,0.8-1,1c-0.1-0.3-0.5-0.7-0.8-0.9
									c0.3-0.2,0.6-0.5,0.7-0.8l-0.8,0.2c0-0.4-0.2-1-0.3-1.5l0.9-0.3c0.1,0.4,0.2,0.9,0.3,1.3c0.2-0.5,0.3-1.1,0.4-1.8h-0.6
									l0,0.2l-0.9,0.3c0-0.1,0-0.2,0-0.4c-1.5,0.2-1.9,0.3-2.1,0.4c-0.1-0.2-0.3-0.8-0.4-1.1c0.3-0.1,0.4-0.3,0.7-0.7
									c0.1-0.1,0.3-0.4,0.5-0.8c-0.6,0.1-0.8,0.1-0.9,0.2c-0.1-0.2-0.3-0.8-0.4-1.1c0.2-0.1,0.3-0.3,0.5-0.6
									c0.2-0.3,0.6-1.5,0.8-2.6l1.1,0.4c-0.2,0.8-0.6,1.7-1,2.5l0.4,0c0.2-0.5,0.4-1,0.6-1.4l0.9,0.5v-1.1h1
									c0-0.3,0.1-0.6,0.1-0.8l1.4,0.1c-0.1,0.3-0.1,0.5-0.2,0.8h1v2.8c0.5-1,0.7-2.3,0.8-3.6l1.2,0.2c-0.1,0.6-0.2,1.2-0.3,1.8
									h1.5V38H143.9z M135.7,41.9c-0.1,1-0.2,2-0.4,2.7c-0.2-0.1-0.8-0.3-1-0.4c0.3-0.6,0.3-1.6,0.4-2.5L135.7,41.9z M136.7,41.7
									c0.1,0.7,0.2,1.7,0.2,2.3l-1,0.2c0-0.6,0-1.6-0.1-2.4L136.7,41.7z M136.6,39.9c0-0.2-0.1-0.4-0.1-0.6
									c-0.1,0.2-0.3,0.5-0.4,0.7L136.6,39.9z M137.3,38.9c0.2,0.5,0.3,1.2,0.4,1.8v-0.9h1.1c-0.1-0.2-0.1-0.4-0.2-0.6l0.9-0.2
									h-1.9v-2c-0.3,0.7-0.6,1.3-1,2L137.3,38.9z M138.8,36.5v0.3h0.9v-0.3H138.8z M138.8,38.1h0.9v-0.3h-0.9V38.1z M139.4,42.4
									c-0.1,0.4-0.2,0.8-0.4,1.1c0.2,0,0.3,0,0.4,0c0.1,0,0.2,0,0.2-0.1c0.1-0.1,0.1-0.4,0.2-1H139.4z M141,41.3c0,0,0,0.3,0,0.4
									c0,0.6-0.1,1.1-0.1,1.5c0.4-0.4,0.8-0.9,1-1.5c-0.2-0.6-0.3-1.3-0.4-1.9c-0.1,0.1-0.1,0.2-0.2,0.3c-0.1-0.2-0.3-0.7-0.5-1
									h-0.9c0.1,0.2,0.2,0.5,0.3,0.7h0.9V41h-1.5c0,0.1,0,0.3,0,0.4H141z M142.3,38c0,0.1-0.1,0.3-0.1,0.4c0.1,0.5,0.2,1,0.3,1.5
									c0.1-0.6,0.2-1.2,0.3-1.9H142.3z"/>
							</g>
						</g>
					</g>
					<g>
						<path class="st0" d="M210.8,48h-39.4c-3.3,0-6-2.7-6-6v-5.6c0-3.3,2.7-6,6-6h39.4c3.3,0,6,2.7,6,6V42
							C216.8,45.3,214.1,48,210.8,48z"/>
						<g>
							<g>
								<path class="st1" d="M185.4,41.9h-4v2.7h-1.6v-2.7h-3.9v-1.5h3.9v-1h-3.3v-1.5h3.3v-3.2h1.6v3.2h3.5v1.5h-3.5v1h4V41.9z
									 M177.6,37.7c-0.1-0.6-0.6-1.6-1-2.3l1.4-0.5c0.4,0.7,0.9,1.6,1.1,2.2L177.6,37.7z M184.8,35.3c-0.4,0.9-0.9,1.7-1.2,2.3
									l-1.4-0.5c0.3-0.6,0.8-1.6,1-2.3L184.8,35.3z"/>
								<path class="st1" d="M196,42.5h-3.5v2.1h-1.6v-2.1h-4.7V41h1.6v-2.4c-0.1,0.1-0.3,0.3-0.4,0.4c-0.3-0.3-0.9-0.8-1.3-1
									c0.9-0.8,1.7-2.1,2.1-3.4l1.6,0.4c-0.1,0.2-0.2,0.5-0.3,0.7h5.8v1.5h-2.9v1.1h2.6v1.4h-2.6V41h3.5V42.5z M188.8,37.2
									c-0.2,0.4-0.5,0.7-0.7,1.1h2.8v-1.1H188.8z M190.9,41v-1.3h-1.5V41H190.9z"/>
								<path class="st1" d="M206.1,38c-0.1,1.4-0.3,2.7-0.7,3.9c0.3,0.7,0.7,1.3,1.2,1.7c-0.3,0.2-0.8,0.8-1,1.1
									c-0.3-0.4-0.6-0.8-0.9-1.3c-0.3,0.5-0.7,1-1.1,1.3c-0.1-0.2-0.4-0.5-0.6-0.7c0,0.1-0.1,0.2-0.1,0.3
									c-0.2,0.2-0.4,0.3-0.6,0.3c-0.2,0-0.5,0-0.9,0c0-0.3-0.1-0.7-0.2-1c-0.2,0.4-0.5,0.8-1,1c-0.1-0.3-0.5-0.7-0.8-0.9
									c0.3-0.2,0.6-0.5,0.7-0.8l-0.8,0.2c0-0.4-0.2-1-0.3-1.5l0.9-0.3c0.1,0.4,0.2,0.9,0.3,1.3c0.2-0.5,0.3-1.1,0.4-1.8H200l0,0.2
									l-0.9,0.3c0-0.1,0-0.2,0-0.4c-1.5,0.2-1.9,0.3-2.1,0.4c-0.1-0.2-0.3-0.8-0.4-1.1c0.3-0.1,0.5-0.3,0.7-0.7
									c0.1-0.1,0.3-0.4,0.5-0.8c-0.6,0.1-0.8,0.1-0.9,0.2c-0.1-0.2-0.3-0.8-0.4-1.1c0.2-0.1,0.3-0.3,0.5-0.6
									c0.2-0.3,0.6-1.5,0.8-2.6l1.1,0.4c-0.2,0.8-0.6,1.7-1,2.5l0.4,0c0.2-0.5,0.4-1,0.6-1.4l0.9,0.5v-1.1h1
									c0-0.3,0.1-0.6,0.1-0.8l1.4,0.1c-0.1,0.3-0.1,0.5-0.2,0.8h1v2.8c0.5-1,0.7-2.3,0.8-3.6l1.2,0.2c-0.1,0.6-0.2,1.2-0.3,1.8
									h1.5V38H206.1z M198,41.9c-0.1,1-0.2,2-0.4,2.7c-0.2-0.1-0.8-0.3-1-0.4c0.3-0.6,0.3-1.6,0.4-2.5L198,41.9z M199,41.7
									c0.1,0.7,0.2,1.7,0.2,2.3l-1,0.2c0-0.6,0-1.6-0.1-2.4L199,41.7z M198.9,39.9c0-0.2-0.1-0.4-0.1-0.6
									c-0.1,0.2-0.3,0.5-0.4,0.7L198.9,39.9z M199.6,38.9c0.2,0.5,0.3,1.2,0.4,1.8v-0.9h1.1c-0.1-0.2-0.1-0.4-0.2-0.6l0.9-0.2H200
									v-2c-0.3,0.7-0.6,1.3-1,2L199.6,38.9z M201.1,36.5v0.3h0.9v-0.3H201.1z M201.1,38.1h0.9v-0.3h-0.9V38.1z M201.7,42.4
									c-0.1,0.4-0.2,0.8-0.4,1.1c0.2,0,0.3,0,0.4,0c0.1,0,0.2,0,0.2-0.1c0.1-0.1,0.1-0.4,0.2-1H201.7z M203.3,41.3
									c0,0,0,0.3,0,0.4c0,0.6-0.1,1.1-0.1,1.5c0.4-0.4,0.8-0.9,1-1.5c-0.2-0.6-0.3-1.3-0.4-1.9c-0.1,0.1-0.1,0.2-0.2,0.3
									c-0.1-0.2-0.3-0.7-0.5-1h-0.9c0.1,0.2,0.2,0.5,0.3,0.7h0.9V41h-1.5c0,0.1,0,0.3,0,0.4H203.3z M204.6,38
									c0,0.1-0.1,0.3-0.1,0.4c0.1,0.5,0.2,1,0.3,1.5c0.1-0.6,0.2-1.2,0.3-1.9H204.6z"/>
							</g>
						</g>
					</g>
					<g>
						<path class="st2" d="M153.7,72.3h-39.4c-3.3,0-6-2.7-6-6v-5.6c0-3.3,2.7-6,6-6h39.4c3.3,0,6,2.7,6,6v5.6
							C159.7,69.6,157,72.3,153.7,72.3z"/>
						<g>
							<g>
								<path class="st1" d="M130,61.6c-0.3-0.4-0.8-0.6-1.2-0.6c-1,0-1.9,0.8-2,3.2c0.5-0.6,1.1-0.9,1.7-0.9c1.3,0,2.1,0.8,2.1,2.4
									c0,1.5-1,2.5-2.2,2.5c-1.5,0-2.6-1.3-2.6-3.8c0-3,1.3-4.1,2.8-4.1c0.8,0,1.4,0.3,1.8,0.8L130,61.6z M129.8,65.7
									c0-1-0.4-1.7-1.4-1.7c-0.5,0-1.1,0.3-1.6,1c0.1,1.6,0.7,2.5,1.7,2.5C129.2,67.5,129.8,66.8,129.8,65.7z"/>
								<path class="st1" d="M131.6,64.2c0-2.7,0.9-4,2.4-4c1.5,0,2.4,1.3,2.4,4c0,2.7-0.9,4-2.4,4
									C132.6,68.2,131.6,66.9,131.6,64.2z M135.5,64.2c0-2.2-0.6-3.2-1.5-3.2c-0.9,0-1.5,0.9-1.5,3.2c0,2.3,0.6,3.2,1.5,3.2
									C134.9,67.4,135.5,66.5,135.5,64.2z"/>
								<path class="st1" d="M137.4,64.2c0-2.7,0.9-4,2.4-4c1.5,0,2.4,1.3,2.4,4c0,2.7-0.9,4-2.4,4
									C138.4,68.2,137.4,66.9,137.4,64.2z M141.3,64.2c0-2.2-0.6-3.2-1.5-3.2c-0.9,0-1.5,0.9-1.5,3.2c0,2.3,0.6,3.2,1.5,3.2
									C140.7,67.4,141.3,66.5,141.3,64.2z"/>
							</g>
						</g>
					</g>
					<g>
						<path class="st2" d="M210.8,72.3h-39.4c-3.3,0-6-2.7-6-6v-5.6c0-3.3,2.7-6,6-6h39.4c3.3,0,6,2.7,6,6v5.6
							C216.8,69.6,214.1,72.3,210.8,72.3z"/>
						<g>
							<g>
								<path class="st1" d="M182.7,67.2l0.5-0.6c0.4,0.4,1,0.8,1.9,0.8c0.9,0,1.6-0.7,1.6-1.8c0-1.1-0.6-1.7-1.6-1.7
									c-0.5,0-0.8,0.2-1.3,0.4l-0.5-0.3l0.2-3.6h3.7v0.8h-2.9l-0.2,2.2c0.3-0.2,0.7-0.3,1.1-0.3c1.3,0,2.3,0.8,2.3,2.4
									s-1.2,2.6-2.5,2.6C183.9,68.2,183.2,67.7,182.7,67.2z"/>
								<path class="st1" d="M188.5,67.2l0.5-0.6c0.4,0.4,1,0.8,1.9,0.8c0.9,0,1.6-0.7,1.6-1.8c0-1.1-0.6-1.7-1.6-1.7
									c-0.5,0-0.8,0.2-1.3,0.4l-0.5-0.3l0.2-3.6h3.7v0.8h-2.9l-0.2,2.2c0.3-0.2,0.7-0.3,1.1-0.3c1.3,0,2.3,0.8,2.3,2.4
									s-1.2,2.6-2.5,2.6C189.7,68.2,189,67.7,188.5,67.2z"/>
								<path class="st1" d="M194.5,64.2c0-2.7,0.9-4,2.4-4c1.5,0,2.4,1.3,2.4,4c0,2.7-0.9,4-2.4,4
									C195.4,68.2,194.5,66.9,194.5,64.2z M198.4,64.2c0-2.2-0.6-3.2-1.5-3.2c-0.9,0-1.5,0.9-1.5,3.2c0,2.3,0.6,3.2,1.5,3.2
									C197.8,67.4,198.4,66.5,198.4,64.2z"/>
							</g>
						</g>
					</g>
					<g>
						<path class="st0" d="M267.9,48h-39.4c-3.3,0-6-2.7-6-6v-5.6c0-3.3,2.7-6,6-6h39.4c3.3,0,6,2.7,6,6V42
							C273.9,45.3,271.2,48,267.9,48z"/>
						<g>
							<g>
								<path class="st1" d="M247.8,42.5h-3.5v2.1h-1.6v-2.1h-4.7V41h1.6v-2.4c-0.1,0.1-0.3,0.3-0.4,0.4c-0.3-0.3-0.9-0.8-1.3-1
									c0.9-0.8,1.7-2.1,2.1-3.4l1.6,0.4c-0.1,0.2-0.2,0.5-0.3,0.7h5.8v1.5h-2.9v1.1h2.6v1.4h-2.6V41h3.5V42.5z M240.7,37.2
									c-0.2,0.4-0.5,0.7-0.7,1.1h2.8v-1.1H240.7z M242.8,41v-1.3h-1.5V41H242.8z"/>
								<path class="st1" d="M258,38c-0.1,1.4-0.3,2.7-0.7,3.9c0.3,0.7,0.7,1.3,1.2,1.7c-0.3,0.2-0.8,0.8-1,1.1
									c-0.3-0.4-0.6-0.8-0.9-1.3c-0.3,0.5-0.7,1-1.1,1.3c-0.1-0.2-0.4-0.5-0.6-0.7c0,0.1-0.1,0.2-0.1,0.3
									c-0.2,0.2-0.4,0.3-0.6,0.3c-0.2,0-0.5,0-0.9,0c0-0.3-0.1-0.7-0.2-1c-0.2,0.4-0.5,0.8-1,1c-0.1-0.3-0.5-0.7-0.8-0.9
									c0.3-0.2,0.6-0.5,0.7-0.8l-0.8,0.2c0-0.4-0.2-1-0.3-1.5l0.9-0.3c0.1,0.4,0.2,0.9,0.3,1.3c0.2-0.5,0.3-1.1,0.4-1.8h-0.6
									l0,0.2l-0.9,0.3c0-0.1,0-0.2,0-0.4c-1.5,0.2-1.9,0.3-2.1,0.4c-0.1-0.2-0.3-0.8-0.4-1.1c0.3-0.1,0.4-0.3,0.7-0.7
									c0.1-0.1,0.3-0.4,0.5-0.8c-0.6,0.1-0.8,0.1-0.9,0.2c-0.1-0.2-0.3-0.8-0.4-1.1c0.2-0.1,0.3-0.3,0.5-0.6
									c0.2-0.3,0.6-1.5,0.8-2.6l1.1,0.4c-0.2,0.8-0.6,1.7-1,2.5l0.4,0c0.2-0.5,0.4-1,0.6-1.4l0.9,0.5v-1.1h1
									c0-0.3,0.1-0.6,0.1-0.8l1.4,0.1c-0.1,0.3-0.1,0.5-0.2,0.8h1v2.8c0.5-1,0.7-2.3,0.8-3.6l1.2,0.2c-0.1,0.6-0.2,1.2-0.3,1.8
									h1.5V38H258z M249.9,41.9c-0.1,1-0.2,2-0.4,2.7c-0.2-0.1-0.8-0.3-1-0.4c0.3-0.6,0.3-1.6,0.4-2.5L249.9,41.9z M250.9,41.7
									c0.1,0.7,0.2,1.7,0.2,2.3l-1,0.2c0-0.6,0-1.6-0.1-2.4L250.9,41.7z M250.8,39.9c0-0.2-0.1-0.4-0.1-0.6
									c-0.1,0.2-0.3,0.5-0.4,0.7L250.8,39.9z M251.4,38.9c0.2,0.5,0.3,1.2,0.4,1.8v-0.9h1.1c-0.1-0.2-0.1-0.4-0.2-0.6l0.9-0.2
									h-1.9v-2c-0.3,0.7-0.6,1.3-1,2L251.4,38.9z M253,36.5v0.3h0.9v-0.3H253z M253,38.1h0.9v-0.3H253V38.1z M253.5,42.4
									c-0.1,0.4-0.2,0.8-0.4,1.1c0.2,0,0.3,0,0.4,0c0.1,0,0.2,0,0.2-0.1c0.1-0.1,0.1-0.4,0.2-1H253.5z M255.2,41.3
									c0,0,0,0.3,0,0.4c0,0.6-0.1,1.1-0.1,1.5c0.4-0.4,0.8-0.9,1-1.5c-0.2-0.6-0.3-1.3-0.4-1.9c-0.1,0.1-0.1,0.2-0.2,0.3
									c-0.1-0.2-0.3-0.7-0.5-1H254c0.1,0.2,0.2,0.5,0.3,0.7h0.9V41h-1.5c0,0.1,0,0.3,0,0.4H255.2z M256.5,38
									c0,0.1-0.1,0.3-0.1,0.4c0.1,0.5,0.2,1,0.3,1.5c0.1-0.6,0.2-1.2,0.3-1.9H256.5z"/>
							</g>
						</g>
					</g>
					<g>
						<path class="st2" d="M267.9,72.3h-39.4c-3.3,0-6-2.7-6-6v-5.6c0-3.3,2.7-6,6-6h39.4c3.3,0,6,2.7,6,6v5.6
							C273.9,69.6,271.2,72.3,267.9,72.3z"/>
						<g>
							<g>
								<path class="st1" d="M239.8,67.2l0.5-0.6c0.4,0.4,1,0.8,1.9,0.8c0.9,0,1.6-0.7,1.6-1.8c0-1.1-0.6-1.7-1.6-1.7
									c-0.5,0-0.8,0.2-1.3,0.4l-0.5-0.3l0.2-3.6h3.7v0.8h-2.9l-0.2,2.2c0.3-0.2,0.7-0.3,1.1-0.3c1.3,0,2.3,0.8,2.3,2.4
									s-1.2,2.6-2.5,2.6C241,68.2,240.3,67.7,239.8,67.2z"/>
								<path class="st1" d="M245.8,64.2c0-2.7,0.9-4,2.4-4c1.5,0,2.4,1.3,2.4,4c0,2.7-0.9,4-2.4,4
									C246.7,68.2,245.8,66.9,245.8,64.2z M249.6,64.2c0-2.2-0.6-3.2-1.5-3.2c-0.9,0-1.5,0.9-1.5,3.2c0,2.3,0.6,3.2,1.5,3.2
									C249,67.4,249.6,66.5,249.6,64.2z"/>
								<path class="st1" d="M251.6,64.2c0-2.7,0.9-4,2.4-4c1.5,0,2.4,1.3,2.4,4c0,2.7-0.9,4-2.4,4
									C252.5,68.2,251.6,66.9,251.6,64.2z M255.4,64.2c0-2.2-0.6-3.2-1.5-3.2c-0.9,0-1.5,0.9-1.5,3.2c0,2.3,0.6,3.2,1.5,3.2
									C254.8,67.4,255.4,66.5,255.4,64.2z"/>
							</g>
						</g>
					</g>
					<path class="st3" d="M39.7,73H15.9c-3.3,0-6-2.7-6-6V36.4c0-3.3,2.7-6,6-6h23.8c3.3,0,6,2.7,6,6V67C45.7,70.3,43,73,39.7,73z"
						/>
				</g>
				<g>
					<g>
						<path class="st1" d="M16.9,49.2l1-1.3c0.5,0.5,1.1,0.9,1.8,0.9c0.9,0,1.4-0.5,1.4-1.4c0-0.9-0.5-1.4-1.3-1.4
							c-0.5,0-0.7,0.1-1.3,0.4l-0.9-0.6l0.2-4.4h5v1.8h-3.2l-0.1,1.5c0.3-0.1,0.6-0.2,0.9-0.2c1.5,0,2.8,0.9,2.8,2.8
							c0,2-1.5,3.2-3.2,3.2C18.5,50.5,17.6,49.9,16.9,49.2z"/>
						<path class="st1" d="M24.4,45.8c0-3.1,1.3-4.6,3.2-4.6s3.2,1.5,3.2,4.6c0,3.1-1.3,4.7-3.2,4.7S24.4,48.9,24.4,45.8z
							 M28.7,45.8c0-2.4-0.5-2.9-1.2-2.9s-1.1,0.5-1.1,2.9c0,2.4,0.5,3,1.1,3S28.7,48.2,28.7,45.8z"/>
						<path class="st1" d="M31.9,44.4h1.5l0.9,2.6c0.1,0.3,0.2,0.7,0.3,1.1h0c0.1-0.4,0.2-0.7,0.3-1.1l0.9-2.6h1.6v5.9h-1.3v-2
							c0-0.6,0.1-1.5,0.2-2.1h0l-0.5,1.4l-0.8,2.2h-0.8l-0.8-2.2L33,46.2h0c0.1,0.6,0.2,1.5,0.2,2.1v2h-1.3V44.4z"/>
						<path class="st1" d="M40.1,43.8H41l-1.8,8h-0.9L40.1,43.8z"/>
						<path class="st1" d="M16.9,62.1l1-1.3c0.5,0.5,1.1,0.9,1.8,0.9c0.9,0,1.4-0.5,1.4-1.4c0-0.9-0.5-1.4-1.3-1.4
							c-0.5,0-0.7,0.1-1.3,0.4l-0.9-0.6l0.2-4.4h5V56h-3.2l-0.1,1.5c0.3-0.1,0.6-0.2,0.9-0.2c1.5,0,2.8,0.9,2.8,2.8
							c0,2-1.5,3.2-3.2,3.2C18.5,63.3,17.6,62.8,16.9,62.1z"/>
						<path class="st1" d="M24.5,57.2h1.5l0.9,2.6c0.1,0.3,0.2,0.7,0.3,1.1h0c0.1-0.4,0.2-0.7,0.3-1.1l0.9-2.6h1.6v5.9h-1.3v-2
							c0-0.6,0.1-1.5,0.2-2.1h0l-0.5,1.4l-0.8,2.2H27l-0.8-2.2L25.7,59h0c0.1,0.6,0.2,1.5,0.2,2.1v2h-1.3V57.2z"/>
					</g>
				</g>
			</g>
			<g>
				<path class="st0" d="M268.5,25.4l-253.3,0c-2.9,0-5.4-2.4-5.4-5.4v-5.7c0-2.9,2.4-5.4,5.4-5.4h253.3c2.9,0,5.4,2.4,5.4,5.4V20
					C273.9,23,271.5,25.4,268.5,25.4z"/>
				<g>
					<path class="st1" d="M111.6,20.4c0.3,0,0.3-0.1,0.4-1c0.3,0.2,0.8,0.4,1.1,0.5c-0.2,1.3-0.5,1.7-1.4,1.7h-1.3
						c-1.2,0-1.5-0.4-1.5-1.6v-3h-1.4c-0.2,2.2-0.7,3.9-3.4,4.8c-0.1-0.3-0.5-0.8-0.8-1.1c2.3-0.8,2.7-2.1,2.8-3.8h-2.6v-1.2h4V12
						h1.3v3.8h4V17h-2.7v3c0,0.4,0.1,0.4,0.4,0.4H111.6z M105.8,15.4c-0.3-0.6-0.9-1.5-1.5-2.2l1-0.6c0.6,0.6,1.3,1.5,1.6,2.1
						L105.8,15.4z M112.5,13.1c-0.5,0.8-1.2,1.7-1.7,2.2l-1.1-0.4c0.5-0.6,1.1-1.5,1.5-2.3L112.5,13.1z"/>
					<path class="st1" d="M115,19c-0.1,1-0.2,2-0.4,2.7c-0.2-0.1-0.6-0.2-0.8-0.3c0.2-0.7,0.4-1.6,0.4-2.5L115,19z M116.4,18.6
						c0-0.1,0-0.3-0.1-0.4c-1.6,0.2-1.9,0.3-2.2,0.4c-0.1-0.2-0.2-0.7-0.3-0.9c0.2-0.1,0.4-0.3,0.7-0.7c0.1-0.2,0.3-0.5,0.6-1
						c-0.6,0.1-0.9,0.1-1,0.2c-0.1-0.2-0.2-0.7-0.3-0.9c0.2,0,0.3-0.3,0.5-0.6c0.2-0.3,0.7-1.5,0.9-2.6l1,0.4
						c-0.3,0.9-0.7,1.8-1.1,2.6l0.5,0c0.2-0.5,0.4-1,0.6-1.4l0.9,0.5c-0.5,1.1-1.1,2.3-1.8,3.3l0.9-0.1c-0.1-0.3-0.1-0.6-0.2-0.9
						l0.8-0.2c0.2,0.7,0.4,1.7,0.5,2.2L116.4,18.6z M115.9,18.9c0.1,0.8,0.2,1.7,0.2,2.4l-0.8,0.1c0-0.6-0.1-1.6-0.2-2.4L115.9,18.9
						z M116.8,18.6c0.2,0.5,0.3,1.1,0.4,1.5l-0.7,0.2c-0.1-0.4-0.2-1.1-0.3-1.5L116.8,18.6z M123.5,16.8c-0.3,1.1-0.6,2.1-1.1,2.9
						c0.1,0.4,0.2,0.6,0.4,0.7c0.1,0,0.2-0.4,0.3-1c0.2,0.3,0.6,0.6,0.7,0.8c-0.3,1.3-0.7,1.6-1.1,1.6c-0.5,0-0.8-0.4-1.1-1
						c-0.3,0.4-0.7,0.7-1.1,1c-0.1-0.2-0.4-0.4-0.6-0.6c0.2-0.1,0.3-0.3,0.5-0.4c-1.2,0.2-2.4,0.3-3.4,0.4l-0.1-1
						c0.3,0,0.7-0.1,1.1-0.1v-0.7h-0.7v-0.8h0.7v-0.4h-0.7v-0.8h0.7v-0.4h-0.7v-0.8h0.7v-0.4h-1.2v-1h0.9c-0.2-0.1-0.5-0.3-0.7-0.5
						c0.5-0.6,0.7-1.5,0.8-2.4l0.9,0.1c0,0.3-0.1,0.7-0.2,1c0.2,0.1,0.4,0.2,0.5,0.3l-0.3,0.8c-0.1-0.1-0.3-0.2-0.4-0.3
						c-0.1,0.4-0.3,0.7-0.5,0.9h1.4c-0.2-0.1-0.4-0.3-0.6-0.4c0.6-0.6,0.8-1.5,1-2.5l0.9,0.1c-0.1,0.4-0.2,0.8-0.3,1.2
						c0.2,0.2,0.5,0.5,0.6,0.7c0-0.6,0-1.3,0-2h1.1l0,0.7l0.7-0.3c0.3,0.6,0.7,1.3,0.9,1.8l-0.9,0.4c-0.1-0.4-0.4-1-0.7-1.6
						c0,0.6,0,1.3,0,1.8h1.6v1H122c0,0.8,0.1,1.6,0.1,2.2c0.2-0.5,0.4-1.1,0.5-1.7L123.5,16.8z M118.9,20.1l0.4,0v-4.2h-0.4V20.1z
						 M120.4,14.8c-0.1-0.2-0.3-0.4-0.5-0.6c-0.1,0.3-0.3,0.5-0.4,0.7h1.4l0-0.6L120.4,14.8z M120.9,20.4c0.2-0.2,0.3-0.4,0.4-0.6
						c-0.2-1-0.3-2.3-0.4-3.8h-0.8v0.4h0.6v0.8h-0.6v0.4h0.6v0.8h-0.6v0.4h0.6v0.8h-0.6V20l0.7-0.1L120.9,20.4z"/>
					<path class="st1" d="M130.9,13.9c0.6,0.6,1.7,0.8,3.1,0.9c-0.3,0.2-0.5,0.7-0.7,1c-1.2-0.1-2.1-0.5-2.7-1.1
						c-0.4,0.5-1.3,0.9-3,1.1c-0.1-0.2-0.3-0.5-0.4-0.7h-2.8v-1h3.2v0.6c2-0.2,2.3-0.7,2.3-1.1v-0.2h-0.6c-0.2,0.3-0.5,0.7-0.7,0.9
						c-0.2-0.2-0.7-0.5-0.9-0.6c0.6-0.5,1-1.1,1.2-1.9l1.1,0.2c-0.1,0.2-0.1,0.3-0.2,0.5h3l0.2-0.1l0.8,0.3c-0.3,0.6-0.6,1.2-1,1.7
						l-1-0.4c0.1-0.2,0.3-0.4,0.4-0.6h-1.2v0.2V13.9z M131.2,20c1,0.4,2,0.8,2.6,1.1l-1.1,0.7c-0.6-0.3-1.7-0.9-2.7-1.2l0.6-0.5
						h-2.9l0.9,0.4c-0.9,0.5-2.2,1.1-3.3,1.4c-0.2-0.2-0.6-0.7-0.9-0.9c1-0.2,2.1-0.5,2.9-0.9h-1.5v-4.2h7V20H131.2z M127.3,13.4
						h-2.7v-0.9h2.7V13.4z M127,17h4.5v-0.4H127V17z M127,18.1h4.5v-0.4H127V18.1z M127,19.3h4.5v-0.5H127V19.3z"/>
					<path class="st1" d="M142,20.2c0.9,0.3,1.7,0.6,2.3,0.9l-0.9,0.7c-0.7-0.3-1.8-0.8-3-1.2l0.4-0.4h-2.6l0.8,0.4
						c-0.9,0.5-2.2,1-3.3,1.3c-0.2-0.2-0.6-0.7-0.9-0.9c1-0.2,2-0.4,2.7-0.7h-1.4v-3.1c-0.2,0.1-0.5,0.1-0.8,0.1
						c-0.1-0.3-0.4-0.7-0.6-1c1.2-0.2,2-0.4,2.4-0.7h-1.7c0.1-0.5,0.2-1.3,0.3-1.9h2v-0.4h-2.4v-0.7h2.4V12h1.1v0.5h1.2V12h1.2v0.5
						h2.2v1.9h-2.2v0.5h2.9c0,0,0,0.2,0,0.3c-0.1,0.6-0.1,1-0.3,1.2c-0.1,0.2-0.4,0.2-0.6,0.3c0,0-0.1,0-0.2,0v3.6H142z M136.8,14.8
						h1c0-0.1,0.1-0.3,0.1-0.5h-1L136.8,14.8z M137.4,16.9v0.4h4.5v-0.4H137.4z M137.4,18v0.4h4.5V18H137.4z M137.4,19.5h4.5V19
						h-4.5V19.5z M138.8,15.5c-0.1,0.2-0.3,0.5-0.5,0.7h1.9v-0.7H138.8z M140.2,14.3H139c0,0.2,0,0.3,0,0.5h1.2V14.3z M139,13.6h1.2
						v-0.4H139V13.6z M141.4,13.2v0.4h1.1v-0.4H141.4z M141.4,15.5v0.7h0.9c0-0.1-0.1-0.3-0.1-0.3c0.3,0,0.5,0,0.6,0
						c0.1,0,0.2,0,0.2-0.1c0-0.1,0.1-0.1,0.1-0.3H141.4z"/>
					<path class="st1" d="M145.8,17.6c0-2.1,0.6-3.8,1.5-5.3l0.8,0.3c-0.9,1.5-1.3,3.3-1.3,5c0,1.8,0.4,3.5,1.3,5l-0.8,0.3
						C146.3,21.4,145.8,19.7,145.8,17.6z"/>
					<path class="st1" d="M157.2,20.4c0,0.6-0.2,0.9-0.6,1.1c-0.4,0.2-1.1,0.2-2.2,0.2c-0.1-0.3-0.3-0.8-0.4-1c0.8,0,1.7,0,1.9,0
						c0.2,0,0.3-0.1,0.3-0.3v-1.8h-4.7c-0.3,1.2-0.8,2.3-1.8,3.2c-0.1-0.2-0.5-0.6-0.7-0.7c1.6-1.4,1.8-3.4,1.8-5.1v-3.3h6.5V20.4z
						 M156.1,17.6V16h-4.5c0,0.5,0,1-0.1,1.5H156.1z M151.7,13.6v1.5h4.5v-1.5H151.7z"/>
					<path class="st1" d="M161.6,18.1c0.3-0.2,0.7-0.3,1-0.4l0.2,0.9c-1.1,0.5-2.2,1.1-3.2,1.5l-0.4-1c0.4-0.1,0.8-0.3,1.4-0.5v-3
						h-1.2v-0.9h1.2v-2.3h0.9v2.3h1.1v0.9h-1.1V18.1z M168.9,13.7c0,0,0,0.4,0,0.5c-0.1,4.8-0.2,6.4-0.7,7c-0.2,0.4-0.5,0.5-0.9,0.5
						c-0.4,0-1,0-1.6,0c0-0.3-0.1-0.7-0.3-1c0.7,0.1,1.3,0.1,1.6,0.1c0.2,0,0.3,0,0.4-0.2c0.3-0.3,0.5-2,0.6-6h-3.3
						c-0.3,0.6-0.6,1.2-1,1.7c-0.2-0.1-0.6-0.4-0.8-0.5c0.7-0.9,1.4-2.3,1.7-3.6l0.9,0.2c-0.1,0.5-0.3,1-0.5,1.4H168.9z M164,18.2
						h3.3V19H164V18.2z M167,16.1v0.8h-2.5v-0.8H167z"/>
					<path class="st1" d="M172.7,12.4c-0.2,0.7-0.5,1.4-0.8,2.1v7.2H171v-5.5c-0.3,0.4-0.5,0.8-0.8,1.2c-0.1-0.2-0.3-0.8-0.5-1
						c0.9-1,1.7-2.6,2.2-4.1L172.7,12.4z M174.8,20.2l0.7,0.5c-0.6,0.5-1.7,0.9-2.6,1.1c-0.1-0.2-0.3-0.5-0.5-0.7
						C173.3,20.9,174.3,20.5,174.8,20.2h-1.7v-3.8h5.8v3.8H174.8z M174.7,13.3h-2v-0.7h6.6v0.7h-2.1v0.5h1.8v2.1H173v-2.1h1.8V13.3z
						 M173.8,15.3h0.9v-0.9h-0.9V15.3z M174.1,17.4h3.9v-0.5h-3.9V17.4z M174.1,18.5h3.9V18h-3.9V18.5z M174.1,19.6h3.9v-0.5h-3.9
						V19.6z M176.4,13.3h-1v0.5h1V13.3z M175.5,15.3h1v-0.9h-1V15.3z M177.1,20.2c0.9,0.3,1.9,0.7,2.5,1l-0.8,0.6
						c-0.5-0.3-1.4-0.7-2.3-1L177.1,20.2z M177.2,14.4v0.9h0.9v-0.9H177.2z"/>
					<path class="st1" d="M180.4,22.6c0.9-1.5,1.3-3.3,1.3-5c0-1.7-0.4-3.5-1.3-5l0.8-0.3c1,1.6,1.6,3.3,1.6,5.3
						c0,2.1-0.6,3.8-1.6,5.4L180.4,22.6z"/>
				</g>
			</g>
			<g>
				<path class="st0" d="M351.8,25.4l-51,0c-2.9,0-5.4-2.4-5.4-5.4v-5.7c0-2.9,2.4-5.4,5.4-5.4h51c2.9,0,5.4,2.4,5.4,5.4V20
					C357.1,23,354.7,25.4,351.8,25.4z"/>
			</g>
		</g>
		<g>
			<g>
				<path class="st2" d="M351.1,72.9h-49.8c-3.3,0-6-2.7-6-6v-6.3c0-3.3,2.7-6,6-6h49.8c3.3,0,6,2.7,6,6v6.3
					C357.1,70.2,354.4,72.9,351.1,72.9z"/>
				<g>
					<g>
						<path class="st1" d="M323,66h-1v2.1h-0.9V66h-3.3v-0.6l3.2-4.9h1.1v4.8h1V66z M321.1,65.2v-2.4c0-0.4,0-1,0.1-1.4h0
							c-0.2,0.4-0.4,0.8-0.6,1.1l-1.7,2.6H321.1z"/>
						<path class="st1" d="M323.8,67.5c2.4-2.1,3.5-3.6,3.5-4.9c0-0.9-0.5-1.5-1.4-1.5c-0.6,0-1.2,0.4-1.6,0.9l-0.6-0.5
							c0.6-0.7,1.3-1.1,2.3-1.1c1.4,0,2.2,0.9,2.2,2.3c0,1.5-1.2,3.1-3,4.8c0.4,0,0.9-0.1,1.3-0.1h2.1v0.8h-4.8V67.5z"/>
						<path class="st1" d="M329.6,66.2c0-1,0.7-1.7,1.4-2.1V64c-0.6-0.4-1-1-1-1.8c0-1.2,0.9-1.9,2.1-1.9c1.3,0,2.1,0.8,2.1,2
							c0,0.8-0.6,1.5-1,1.8v0.1c0.7,0.4,1.3,1,1.3,2c0,1.1-1,2-2.4,2C330.6,68.2,329.6,67.3,329.6,66.2z M333.5,66.2
							c0-1-0.9-1.4-2-1.8c-0.6,0.4-1,1-1,1.7c0,0.8,0.7,1.4,1.6,1.4C332.9,67.5,333.5,67,333.5,66.2z M333.4,62.4
							c0-0.8-0.5-1.4-1.3-1.4c-0.7,0-1.2,0.5-1.2,1.2c0,0.9,0.8,1.3,1.7,1.7C333.1,63.5,333.4,62.9,333.4,62.4z"/>
					</g>
				</g>
			</g>
			<g>
				<path class="st0" d="M351.8,47.1h-51c-2.9,0-5.4-2.4-5.4-5.4V36c0-2.9,2.4-5.4,5.4-5.4h51c2.9,0,5.4,2.4,5.4,5.4v5.7
					C357.1,44.7,354.7,47.1,351.8,47.1z"/>
				<g>
					<path class="st1" d="M301.3,39.1c-0.4-0.4-1.2-0.8-1.8-1.1l0.6-0.9c0.6,0.3,1.4,0.7,1.8,1L301.3,39.1z M299.8,42.9
						c0.5-0.8,1.2-2,1.8-3.3l0.8,0.8c-0.5,1.1-1.1,2.2-1.7,3.3L299.8,42.9z M301.8,36.3c-0.3-0.4-1.1-0.9-1.7-1.2l0.6-0.9
						c0.6,0.3,1.4,0.7,1.8,1.1L301.8,36.3z M309.4,39.9h-0.7v1.6h-2.4v1.1c0,0.6-0.1,0.9-0.5,1.1c-0.4,0.2-1,0.2-1.7,0.2
						c0-0.3-0.2-0.8-0.3-1.1c0.5,0,1.1,0,1.2,0c0.2,0,0.2,0,0.2-0.2v-1h-2.2v-1h2.2v-0.6h-2.7v-1.1h2.7v-0.6h-2.1v-1h0.5
						c-0.1-0.4-0.3-0.8-0.6-1.1l0.9-0.4c0.3,0.4,0.6,0.9,0.7,1.2l-0.6,0.3h4.9v1.5h0.7V39.9z M308.7,35c-1.6,0.4-3.9,0.7-5.8,0.8
						c0-0.3-0.2-0.7-0.3-1c1.9-0.1,4-0.4,5.3-0.8L308.7,35z M305.4,37.3c-0.1-0.4-0.3-1-0.6-1.4l0.9-0.3c0.3,0.4,0.5,1,0.6,1.4
						L305.4,37.3z M306.2,38.8h1.4v-0.6h-1.4V38.8z M307.6,39.9h-1.4v0.6h1.4V39.9z M306.8,36.9c0.3-0.4,0.6-1.1,0.8-1.6l1.1,0.3
						c-0.3,0.6-0.7,1.2-1,1.6L306.8,36.9z"/>
					<path class="st1" d="M314.1,36.9c-0.5,2.8-1.6,4.9-3.1,6c-0.2-0.3-0.7-0.8-1-1c1.2-0.8,2.1-2.2,2.6-4.1h-2.2v-1.3h2.6l0.2,0
						L314.1,36.9z M319.3,36.7c-0.8,0.8-1.7,1.6-2.4,2.2c0.8,1.2,1.9,2.2,3.2,2.8c-0.3,0.3-0.7,0.8-0.9,1.2
						c-1.5-0.8-2.6-2.1-3.4-3.6v3c0,0.7-0.1,1.1-0.6,1.3c-0.4,0.2-1,0.3-1.9,0.3c-0.1-0.4-0.3-1-0.5-1.4c0.6,0,1.1,0,1.3,0
						c0.2,0,0.2-0.1,0.2-0.2v-8.2h1.3v2.6c0.2,0.5,0.4,0.9,0.6,1.3c0.7-0.6,1.4-1.4,1.8-2.1L319.3,36.7z"/>
					<path class="st1" d="M327.9,39.4c0.7,0.5,1.6,0.9,2.6,1.1c-0.3,0.2-0.6,0.7-0.8,1c-0.1,0-0.2-0.1-0.3-0.1v2.3h-1.2v-0.2h-1.2
						v0.3h-1.1v-3.3h1.8c-0.5-0.3-0.9-0.7-1.3-1.1h-1.8c-0.4,0.4-0.8,0.8-1.3,1.1h1.9v3.2h-1.2v-0.2h-1.1v0.3h-1.1v-2.5
						c-0.1,0.1-0.3,0.1-0.5,0.2c-0.1-0.3-0.4-0.8-0.7-1c0.9-0.3,1.6-0.7,2.2-1.2h-2v-1.1h3.1c0.2-0.3,0.4-0.6,0.6-0.9h-3v-3h3.6v2.9
						l0.8,0.1c-0.1,0.3-0.3,0.6-0.5,0.8h2.2c-0.3-0.2-0.6-0.3-0.9-0.4l0.4-0.4h-1.1v-3h3.7v3h-1.8c0.4,0.2,0.8,0.4,1,0.6l-0.3,0.3
						h1.7v1.1H327.9z M323.8,35.5h-1.3v0.9h1.3V35.5z M323.9,41.6h-1.1v0.9h1.1V41.6z M328.2,42.5v-0.9h-1.2v0.9H328.2z M327,36.5
						h1.4v-0.9H327V36.5z"/>
					<path class="st1" d="M339.5,42.2c0,0.8-0.2,1.1-0.7,1.3c-0.5,0.2-1.2,0.2-2.3,0.2c-0.1-0.4-0.3-1-0.5-1.3c0.7,0,1.6,0,1.8,0
						c0.3,0,0.3-0.1,0.3-0.3v-1.5h-4.5c-0.3,1.2-0.8,2.3-1.8,3.1c-0.2-0.3-0.7-0.7-1-0.9c1.6-1.3,1.7-3.3,1.7-4.9v-3.4h6.8V42.2z
						 M338.1,39.5v-1.3h-4.2c0,0.4,0,0.8-0.1,1.3H338.1z M333.9,35.8V37h4.2v-1.3H333.9z"/>
					<path class="st1" d="M345,40.9c-0.1-0.3-0.4-0.8-0.7-1.3v4.2h-1.2v-3.7c-0.3,0.8-0.7,1.5-1.1,2c-0.1-0.4-0.4-0.9-0.6-1.2
						c0.6-0.7,1.2-1.8,1.5-2.8h-1.4V37h1.6v-1.2c-0.4,0.1-0.8,0.1-1.2,0.2c0-0.3-0.2-0.7-0.3-1c1.2-0.2,2.5-0.5,3.4-0.9l0.7,1
						c-0.4,0.2-0.9,0.3-1.4,0.4V37h1.3v1.2h-1.3v0.1c0.3,0.3,1.2,1.4,1.4,1.7L345,40.9z M351.2,42.4v1.1h-6.1v-1.1h1v-7.8h4.3v7.8
						H351.2z M347.3,35.7v1.4h1.8v-1.4H347.3z M349.1,38.3h-1.8v1.5h1.8V38.3z M347.3,42.4h1.8v-1.5h-1.8V42.4z"/>
				</g>
			</g>
		</g>
		<polygon class="st3" points="290.5,49.8 286.5,49.8 286.5,45.8 283.7,45.8 283.7,49.8 279.6,49.8 279.6,52.6 283.7,52.6 
			283.7,56.6 286.5,56.6 286.5,52.6 290.5,52.6 		"/>
	</g>
	<g>
		<path class="st1" d="M309.8,16.9c-0.2,1-0.5,1.9-0.8,2.7c0.2,0.1,0.4,0.3,0.6,0.4c0.7,0.4,1.7,0.5,2.9,0.5c1.2,0,3.1-0.1,4.2-0.3
			c-0.1,0.3-0.4,0.9-0.4,1.3c-0.9,0.1-2.7,0.1-3.9,0.1c-1.4,0-2.3-0.1-3-0.6c-0.4-0.2-0.8-0.6-1-0.6c-0.2,0-0.6,0.7-0.9,1.3
			l-0.8-1.2c0.4-0.4,0.8-0.8,1.1-1c0.2-0.5,0.5-1.2,0.6-1.8h-1.3c0.3-0.6,0.5-1.5,0.8-2.3h-1v-1.1h2.5c-0.2,0.7-0.5,1.6-0.7,2.3h0.4
			l0.2,0L309.8,16.9z M308.1,14.2c-0.1-0.5-0.4-1.2-0.6-1.8l1.2-0.3c0.2,0.6,0.5,1.3,0.6,1.7L308.1,14.2z M312.2,16.8
			c-0.4,1-1.2,2.2-1.9,2.8c-0.2-0.3-0.6-0.7-0.9-0.9c0.6-0.5,1.4-1.4,1.7-2.3L312.2,16.8z M312.5,16.3h-2.7v-1.2h2.7v-3h1.2v3h2.7
			v1.2h-2.7v3.8h-1.2V16.3z M311,14.9c-0.2-0.5-0.6-1.4-1-2l1.1-0.4c0.3,0.6,0.8,1.4,1,2L311,14.9z M314.7,16.3
			c0.6,0.8,1.5,1.8,1.8,2.5l-0.9,0.7c-0.4-0.7-1.2-1.8-1.8-2.6L314.7,16.3z M316.3,12.8c-0.4,0.7-0.8,1.5-1.2,2l-1-0.4
			c0.3-0.6,0.7-1.4,0.9-2L316.3,12.8z"/>
		<path class="st1" d="M320.7,12.4c-0.3,0.7-0.6,1.5-1,2.1v7.2h-1.2v-5.3c-0.2,0.3-0.5,0.6-0.7,0.8c-0.1-0.3-0.5-1-0.7-1.3
			c0.9-0.9,1.9-2.4,2.4-3.9L320.7,12.4z M324.4,15v5.4c0,0.6-0.1,0.9-0.5,1.1c-0.4,0.2-0.9,0.3-1.5,0.3c-0.1-0.4-0.2-0.9-0.4-1.3
			c0.4,0,0.9,0,1,0c0.1,0,0.2,0,0.2-0.2V15h-1.2c-0.3,0.6-0.6,1.2-1,1.6c-0.2-0.2-0.7-0.6-1-0.8c0.8-0.9,1.4-2.3,1.8-3.8l1.2,0.3
			c-0.1,0.5-0.3,1-0.5,1.6h3.6l0.2,0l0.9,0.2c-0.1,0.8-0.3,1.8-0.4,2.4l-1.1-0.2c0.1-0.3,0.1-0.8,0.2-1.2H324.4z M322.6,16.9
			c-0.3,1.3-0.8,2.6-1.4,3.5c-0.2-0.2-0.8-0.5-1.1-0.7c0.6-0.7,1-1.9,1.3-3.1L322.6,16.9z M325.9,16.6c0.5,1.1,1,2.5,1.1,3.4
			l-1.2,0.4c-0.1-0.9-0.6-2.4-1.1-3.4L325.9,16.6z"/>
		<path class="st1" d="M329,19.1c-0.1,0.8-0.3,1.8-0.4,2.4c-0.2-0.1-0.7-0.2-0.9-0.3c0.2-0.6,0.3-1.6,0.4-2.4L329,19.1z M330.9,18.5
			c0-0.1-0.1-0.3-0.1-0.4c-2,0.3-2.4,0.4-2.6,0.5c-0.1-0.2-0.2-0.7-0.4-1c0.3-0.1,0.5-0.3,0.8-0.7c0.1-0.1,0.4-0.5,0.7-0.9
			c-0.8,0.1-1,0.2-1.2,0.2c-0.1-0.2-0.2-0.8-0.4-1.1c0.2-0.1,0.3-0.2,0.5-0.6c0.2-0.3,0.8-1.4,1.1-2.5l1.1,0.4
			c-0.3,0.9-0.8,1.7-1.3,2.5l0.7-0.1c0.3-0.4,0.5-1,0.8-1.4l1,0.6c-0.6,1.1-1.4,2.3-2.2,3.2l1-0.1c-0.1-0.3-0.2-0.6-0.3-0.8l0.8-0.3
			c0.3,0.7,0.6,1.5,0.7,2.1L330.9,18.5z M330,18.8c0.1,0.7,0.3,1.6,0.3,2.2l-0.9,0.2c0-0.6-0.1-1.5-0.2-2.2L330,18.8z M337,20.9
			c-0.4-0.4-1.2-0.9-2-1.4v1.1c0,0.5-0.1,0.8-0.4,1c-0.3,0.2-0.8,0.2-1.4,0.2c0-0.3-0.2-0.8-0.3-1.1c0.3,0,0.7,0,0.8,0
			c0.1,0,0.2,0,0.2-0.1v-1c-0.6,0.5-1.3,0.9-1.8,1.2l-0.5-0.8c0.1,0.2,0.1,0.3,0.1,0.5l-0.8,0.3c-0.1-0.5-0.3-1.4-0.6-2l0.8-0.3
			c0.2,0.4,0.3,0.9,0.4,1.3c0.6-0.3,1.5-0.8,2.4-1.4v-1.5h-2.5v-1.1h3.5l0.1-0.5h-3.1c0.3-0.9,0.6-2.3,0.9-3.3l1.1,0.1
			c-0.1,0.2-0.1,0.5-0.2,0.8h1.8l0.2,0l0.8,0.1c-0.1,0.9-0.3,2-0.5,2.9h1.5v1.1H335v1.4l0.2,0.1c0.3-0.4,0.8-1,1-1.4l1,0.6
			c-0.4,0.5-0.8,1-1.2,1.3c0.6,0.4,1.2,0.8,1.6,1.1L337,20.9z M332.8,18.9c-0.3-0.3-0.8-0.8-1.2-1.2l0.6-0.6c0.4,0.3,1,0.8,1.2,1.1
			L332.8,18.9z M335.2,14.4l0.1-0.6h-1.8c-0.1,0.2-0.1,0.4-0.2,0.6H335.2z"/>
		<path class="st1" d="M339.9,16.9c-0.4-0.3-1.1-0.8-1.7-1.1l0.7-0.9c0.6,0.3,1.4,0.7,1.8,1L339.9,16.9z M340.7,18.3
			c-0.3,1.1-0.8,2.3-1.2,3.3l-1.1-0.6c0.4-0.8,1-2.1,1.4-3.4L340.7,18.3z M340.3,14.1c-0.4-0.3-1.1-0.8-1.7-1.1l0.7-0.9
			c0.5,0.3,1.3,0.7,1.7,1L340.3,14.1z M347.6,12.3v9.5h-1.2v-4.1l-0.5,0.2c-0.1-0.4-0.3-0.9-0.5-1.4v5h-1.2v-3.9l-0.6,0.3
			c-0.1-0.4-0.3-1.1-0.5-1.6c0,1.9-0.2,3.9-1.3,5.5c-0.3-0.2-0.7-0.6-1.1-0.7c0.7-1,1-2.1,1.2-3.3l-0.7,0.3
			c-0.1-0.7-0.3-1.7-0.6-2.5l0.9-0.3c0.2,0.4,0.4,1,0.5,1.5c0-0.3,0-0.6,0-0.9v-3.5h1.2v3.2l0.5-0.2c0.2,0.5,0.4,1,0.5,1.5v-4.2h1.2
			v2.7l0.4-0.2c0.2,0.4,0.5,0.9,0.7,1.4v-4.2H347.6z"/>
	</g>
</g>
</svg>
